<?xml version='1.0' encoding='utf-8'?>
<svg xmlns="http://www.w3.org/2000/svg" enable-background="new 0 0 2092.9133 5000" version="1.1" viewBox="0 0 2092.9 5e3"> <path d="m1238.1 554.52c-6.4553 4.09-13.738 7.8655-18.779 13.678l-24.877 244.82c2.5787-0.2569 3.8052-0.4419 6.2072-1.5629 12.314-11.305 42.754-32.93 43.438-48.903 1.4615-201.93 3.5734-198.57-3.0153-207.82l-2.975-0.2171z"/> <path d="m854.78 554.52-2.975 0.2171c-6.4777 9.0928-4.4621 7.9269-3.0153 207.82 0.6846 15.973 31.124 37.598 43.438 48.903 2.402 1.121 3.6285 1.306 6.2071 1.5629l-24.877-244.82c-5.0405-5.8119-12.323-9.5875-18.778-13.678z"/> <path d="m1205.7 574.79c-33.727 26.123-29.641 27.804-34.812 54.749-2.2133 14.664-33.972 214.39-25.385 226.98l3.2776-0.4218c13.544-10.968 27.678-21.566 39.547-34.379l20.37-245.54-2.9979-1.386z"/> <path d="m922 629.54c-5.1273-26.716-0.8101-28.414-34.812-54.749l-2.998 1.386 20.37 245.54c11.869 12.813 26.004 23.411 39.547 34.379l3.2776 0.4218c8.5866-12.594-23.168-212.29-25.385-226.98z"/> <path d="m1147.7 605.21-23.234 10.848-33.82 278.06 2.4188 2.8602 3.6342-1.121 39.75-29.567 19.711-261.08c-3.3574-0.9469-5.0772-0.8069-8.4605 1e-4z"/> <path d="m945.19 605.21c-3.3833-0.8071-5.1031-0.947-8.4606 0l19.711 261.08 39.75 29.567 3.6342 1.121 2.4188-2.8602-33.82-278.06-23.234-10.849z"/> <path d="m2043.6 2132.2c6.0547-22.182 33.207-32.576 49.332-107.64-13.535 12.454-31.592 33.449-50.416 36.258-6.1132-8.8347 1.3093-49.011 1.6403-62.383 1.6829-68.135 6.3723-150.57-13.672-216.23-7.9044 29.148-14.057 60.615-27.758 87.679-27.727 54.754-86.446 83.917-114.85 138.35-12.934 24.788-21.117 54.506-27.048 81.676-2.3617 10.82-3.172 34.176-8.0184 42.791-2.1287 3.7795-68.288 50.357-95.546 55.693-16.838 3.2908-38.76 4.3516-54.934-2.1333l-3.2832-3.2739c77.984 16.052 79.955-21.847 117.32-47.063l-87.462-9.1145c-14.825-1.1663-41.901 0.2822-54.926-6.2825 16.781-5.2927 35.434-6.1399 52.926-7.8994 33.826-3.4021 73.156-6.8872 106.92-1.269 11.885-59.015 26.183-114.09 67.326-156.91 5.1746-5.3812 53.559-49.587 53.93-51.053 1.0126-4.0267-14.559-33.902-17.469-38.163-5.7736-8.4554-12.591-15.477-20.447-21.99 2.3618-8.4526 9.0682-20.119 4.8608-28.03-1.8571-3.4962-4.9236-6.0885-7.8217-8.718 0.4763-6.3652 1.6915-14.977-0.7189-20.975-2.168-5.3987-12.212-17.359-12.283-21.873-0.1256-8.0479 5.9246-24.106 8.4575-32.017 43.792-0.2794 84.969-13.15 122.97-34.644-68.561-31.735-102.1-96.71-127.23-165.03-12.517-34.022-27.096-71.124-33.674-106.78 23.297-5.7238 44.106-12.754 65.583-23.573-9.6985-8.7407-20.889-17.829-28.651-28.35-54.994-74.538-44.956-206.26-158.87-321.93-6.5923-6.6904-50.804-42.66-52.381-46.428-4.2908-10.242-2.1497-75.948-52.706-147.22-8.2325 37.889-16.362 75.567-30.385 111.82-24.794-14.636-43.202-32.32-62.197-53.828-20.305-22.996-14.02-9.7991-34.909-120.85-19.386 18.306-32.662 36.19-45.709 59.472-34.542 68.619-31.602 63.799-33.198 65.189-2.5901 2.2535-9.8212 3.12-13.113 2.9886-31.19-1.2547-70.566-35.707-94.95-53.146 12.272-14.159 31.635-32.813 37.999-50.54-24.287-47.494-69.488-92.291-71.795-96.131-3.6913-6.1431 0.0284-29.336 0.5076-36.828 5.4189-79.924 5.1147-81.834 8.1384-90.2 10.11-27.954 60.382-59.717 43.784-95.767-9.6388-20.926-23.987-37.484-31.943-59.962-9.0475-25.56-10.381-90.584-64.738-167.45-68.692-97.153-149.25-110.16-156.05-117.49-1.9003-2.0498 0.2615 3.8734-49.663-154.93-50.692 161.25-47.783 152.91-49.662 154.93-6.652 7.1709-87.447 20.46-156.05 117.49-54.129 76.547-56.145 143.18-64.738 167.45-7.9557 22.478-22.304 39.036-31.943 59.962-16.599 36.05 33.674 67.813 43.784 95.767 3.1902 8.8259 2.8925 12.829 8.1385 90.2 0.479 7.4918 4.1988 30.685 0.5075 36.828-2.3318 3.8809-47.452 48.527-71.795 96.131 6.3641 17.727 25.727 36.38 37.999 50.54-24.383 17.439-63.76 51.891-94.95 53.146-3.2921 0.1313-10.523-0.7352-13.113-2.9886-1.7183-1.4969 1.1712 3.0861-33.198-65.189-13.047-23.282-26.323-41.166-45.709-59.472-20.871 110.95-14.521 97.756-34.909 120.85-18.995 21.509-37.402 39.193-62.197 53.828-14.023-36.255-22.153-73.933-30.385-111.82-24.201 34.119-39.453 72.056-47.492 113.02-1.9081 9.7159-1.6089 25.6-5.2145 34.207-1.5772 3.7675-45.789 39.737-52.381 46.428-114.25 116.01-103.76 247.24-158.87 321.93-7.7618 10.52-18.952 19.609-28.651 28.35 21.477 10.82 42.286 17.85 65.583 23.573-6.578 35.659-21.157 72.761-33.674 106.78-25.134 68.315-58.671 133.29-127.23 165.03 38.004 21.494 79.181 34.364 122.97 34.644 2.5329 7.9109 8.583 23.969 8.4575 32.017-0.0712 4.5144-10.115 16.475-12.283 21.873-2.4104 5.9974-1.1953 14.61-0.7189 20.975-2.8981 2.6295-5.9646 5.2218-7.8217 8.718-4.2074 7.9109 2.4991 19.578 4.8609 28.03-7.856 6.5137-14.673 13.535-20.447 21.99-2.9096 4.2606-18.482 34.136-17.469 38.163 0.3707 1.4658 48.756 45.672 53.93 51.053 41.122 42.794 55.405 97.72 67.326 156.91 46.244-7.6951 140.73 3.1396 159.84 9.1685-13.024 6.5647-40.101 5.1162-54.926 6.2825l-87.462 9.1145c37.469 25.287 39.029 63.178 117.32 47.063l-3.2832 3.2739c-16.174 6.4849-38.096 5.4241-54.934 2.1333-28.52-5.5828-93.998-52.944-95.546-55.693-4.8465-8.6155-5.6567-31.972-8.0184-42.791-5.9303-27.169-14.114-56.888-27.048-81.676-28.406-54.435-87.125-83.598-114.85-138.35-13.701-27.064-19.854-58.53-27.758-87.679-20.045 65.663-15.355 148.09-13.672 216.23 0.3309 13.372 7.7534 53.548 1.6403 62.383-18.824-2.8091-36.88-23.804-50.416-36.258 16.148 75.164 43.169 85.058 49.332 107.64 1.5556 5.7031-0.0021-10.514-0.0058 145.03-14.277-6.8047-26.84-15.001-39.844-23.912 21.222 61.691 34.208 63.158 44.551 85.443 9.9896 21.516 23.751 146.43 21.057 154.08-2.433 6.9014-17.289 22.478-22.15 29.773 6.7348 14.014 19.825 29.43 30.816 40.35 3.0153 2.9976-4.025 21.046-5.6308 26.277-40.18 130.86-34.981 178.23-38.792 229.71-0.9813 13.289-6.3554 29.288-4.7808 42.235 71.404 98.06 76.646 92.079 135.19 139.31 17.169 13.86 39.528 38.442 60.699 43.804 8.5919-1.021 13.714-4.5896 20.972-9.468 20.151 11.136 51.986 28.983 73.538 16.94 0.157-13.432-18.772-37.872-28.112-46.741-4.2189-4.0212-16.188-12.035-17.78-17.539-2.1593-7.5005 7.4966-15.4 1.3666-24.383-10.486-15.399-35.426-29.002-41.573-46.37-2.5376-7.1516 10.811-45.081 5.1717-59.831-12.812-33.427-13.553-86.906 7.3537-118.49 18.228 17.313 30.494 39.352 43.636 60.541-2.7327 6.4734-5.7592 13.204-7.274 20.048-4.4618 20.22-3.9607 9.9165 10.765 46.085 10.711 26.237 19.429 50.363 34.927 74.432 23.627-70.461 16.809-125.32 36.823-160.16l-46.505-76.973c3.5372-13.831 8.1469-24.377 15.272-36.686-36.604-28.415-43.841-38.651-63.36-85.842-6.684-16.204-7.5216-10.593-0.157-19.241 7.8304-9.1313 18.51-19.649 20.681-31.852-1.8684-11.288-13.877-20.114-21.81-27.757 23-81.778 53.291-158.9 83.656-237.97 4.3931-11.441 9.3566-35.374 16.591-44.254 4.0389-4.9536 13.013-9.5906 18.125-13.791 7.7817-6.3906 15.774-17.002 16.779-27.229l-4.1274-4.2637-8.5464 6.7844c6.1103-18.75 37.682-47.44 36.116-64.613-9.9413-8.655-29.772-9.3652-42.563-10.261l6.4323-60.501c0.4738-8.1418-0.8099-26.22 1.9683-33.138 0.7863-1.9584 17.029-10.81 18.493-26.425 1.7368-18.492-8.4752-28.114-19.876-42.295 30.594-19.479 27.408-30.225 13.241-50.942 30.112-11.584 44.48-20.231 58.14-50.719 16.95-37.829 31.589-71.212 55.385-105.8 14.93 22.335 25.006 47.785 39.873 69.627 14.092 22.37 35.771 34.45 47.483 57.056 8.2696 15.959 5.2773 42.218 8.1611 60.23 1.4178 8.849 6.3099 17.159 7.4625 25.903 0.9468 7.1836-2.7814 13.936-1.1411 21.217 2.9865 13.264 9.9954 27.004 15.258 39.572-4.5496 20.835-10.389 39.4-20.302 58.468-10.355 4.5342-18.533 6.6077-22.889 17.667l-36.313 124.35 19.511 23.445c-100.39 255.17-160.09 496.83-237.53 778.28-63.998 294.51-74.629 332.12-68.986 386.5 43.657-57.011 35.189-72.475 133.6-160.04 1.2523 15.97 13.761 112.33 11.544 117.86-3.9254 9.8389-25.71 23.756-26.178 34.507-0.406 9.3289 28.882 55.819 27.207 68.672-0.8329 6.4165-11.467 21.103-15.646 26.464-1.3834 1.7969-6.7005 7.0444-7.2083 8.9263-3.5827 13.204 11.219 31.998-1.1723 45.658-5.2174 5.7322-20.787 14.687-23.374 20.79-2.061 4.866 1.5673-4.5649-10.469 58.148l-23.074 85.411c2.744 9.3538 10.075 26.237 9.9753 35.477-0.0226 2.1274 1.2597-2.574-24.021 61.285-41.607 117.52 2.7951 178.67 14.728 263.96 8.0129 57.293 7.3853 116.78 8.0443 174.56 0.987 86.866 2.3304 173.36-9.4562 259.66-14.314 12.348-29.11 21.588-31.147 41.75 2.7869 10.01 7.4764 19.022 12.066 28.29-8.9712 15.542-27.085 31.37-33.489 46.883-5.6653 13.717 0.9643 44.032-7.3053 55.04-15.464 20.619-38.332 35.847-53.884 57.122-7.6192 10.409-8.7632 26.778-15.201 35.134-13.642 17.646-86.604 63.775-130.8 151.34-7.0115 13.917-13.943 28.49-12.802 44.346 9.901 16.142 50.544 25.552 68.678 29.887 131.64 31.497 289.92-10.868 326.48-51.76 7.8217-41.465 24.963-63.681 58.052-89.062l-6.2042 36.674c36.156-19.706 77.281-35.562 110.97-58.832 3.7131-189.74 1.8289-186.54 6.1074-214.74l-17.166-12.662c6.4594-47.926 13.581-38.151-19.374-76.399 4.5896-13.232 9.3364-26.094 15.378-38.756 2.4358-5.1045 8.4747-15.2 8.1694-20.59-0.6058-10.663-19.093-38.249-21.388-47.682-4.6381-19.05 50.738-222.95 60.942-252.5 26.974-78.082 93.412-142.62 99.514-227.77 3.9508-55.154-8.6005-109.51-6.1046-164.55-47.13 56.038-103.44 104.01-155.37 155.48-110.62 109.6-96.619 150.64-106.41 246.17l-23.673 197.54c0.4107-24.697 4.102-49.593 6.1556-74.29 14.672-193.12 25.327-250.96-2.4246-312.27-103.62-214.55-98.405-199.38-102.78-218.7 6.9896 5.6406 78.36 147.09 138.8 227.94 26.652-39.148 40.036-39.899 263.84-244.6-27.891-73.051-15.791-72.767-15.535-109.25 0.1054-14.972-5.2687-31.912-8.6204-46.541 4.4897-9.3828 20.672-21.275 28.243-29.117-2.8782-11.778-12.354-18.337-21.214-26.351 33.127-41.098 45.111-38.897 49.086-47.397 3.0904-6.6106-4.0704-26.643 8.9171-55.524l19.317-38.956c114.51 188.44 158.29 247.46 217.35 450.43 59.083-203.05 101.25-259.37 217.35-450.43l19.317 38.956c12.99 28.886 5.8314 48.924 8.9171 55.524 4.0272 8.6094 15.665 5.9333 49.086 47.397-8.8601 8.0137-18.336 14.573-21.214 26.351 7.5706 7.8425 23.753 19.735 28.243 29.117-3.3517 14.629-8.7258 31.569-8.6204 46.541 0.2482 35.287 12.478 35.881-15.535 109.25 224.84 205.65 237.27 205.57 263.84 244.6 62.329-83.392 131.18-221.8 138.8-227.94-4.2917 18.976 1.4269 2.936-102.78 218.7-28.656 63.311-16.321 129.36-2.4247 312.27 2.0537 24.697 5.7449 49.593 6.1556 74.29l-23.673-197.54c-9.8143-95.741 4.0365-136.74-106.41-246.17-51.922-51.475-108.24-99.442-155.37-155.48 2.496 55.04-10.055 109.4-6.1046 164.55 6.1017 85.155 72.54 149.69 99.514 227.77 10.204 29.544 65.58 233.45 60.942 252.5-2.3634 9.7144-20.781 36.998-21.388 47.682-0.3053 5.3901 5.7336 15.485 8.1694 20.59 6.0417 12.662 10.789 25.524 15.378 38.756-32.911 38.197-25.846 28.386-19.374 76.399l-17.167 12.662c4.3158 28.45 2.4135 25.973 6.1074 214.74 33.688 23.27 74.813 39.126 110.97 58.832l-6.2042-36.674c33.089 25.381 50.23 47.597 58.052 89.062 36.03 40.297 193.96 83.467 326.48 51.76 18.134-4.3345 58.777-13.745 68.678-29.887 1.1411-15.856-5.7904-30.429-12.802-44.346-21.89-43.376-53.554-80.221-88.574-113.59-12.462-11.864-32.082-24.64-42.223-37.758-6.4379-8.356-7.5818-24.725-15.201-35.134-15.552-21.275-38.421-36.503-53.884-57.122-8.2695-11.008-1.64-41.322-7.3053-55.04-6.4038-15.514-24.518-31.341-33.489-46.883 4.5898-9.2686 9.2794-18.28 12.066-28.29-2.0366-20.162-16.833-29.402-31.147-41.75-11.787-86.295-10.443-172.79-9.4562-259.66 0.6589-57.778 0.0314-117.27 8.0443-174.56 11.906-85.098 56.341-146.42 14.728-263.96-25.398-64.156-23.999-59.239-24.021-61.285-0.1-9.24 7.2312-26.123 9.9752-35.477l-23.074-85.411c-11.66-60.753-8.3746-53.203-10.469-58.148-2.587-6.1028-18.156-15.057-23.374-20.79-12.391-13.66 2.4104-32.453-1.1722-45.658-0.5078-1.8818-5.825-7.1294-7.2083-8.9263-4.1792-5.3611-14.814-20.048-15.646-26.464-1.6511-12.67 27.605-59.537 27.207-68.672-0.4677-10.751-22.252-24.668-26.178-34.507-2.2163-5.5322 10.292-101.89 11.544-117.86 98.534 87.682 89.714 102.74 133.6 160.04 5.6547-54.492-5.0681-92.364-68.986-386.5-74.513-270.84-136.35-521.14-237.53-778.28l19.511-23.445-36.313-124.35c-4.3557-11.059-12.534-13.133-22.889-17.667-9.9125-19.067-15.752-37.632-20.302-58.468 5.2627-12.568 12.272-26.308 15.258-39.572 1.6403-7.2809-2.0879-14.034-1.1411-21.217 1.1527-8.7439 6.0447-17.054 7.4625-25.903 2.8837-18.012-0.1085-44.271 8.1611-60.23 11.647-22.48 33.46-34.796 47.483-57.056 14.867-21.842 24.942-47.292 39.873-69.627 23.796 34.587 38.435 67.97 55.385 105.8 13.661 30.489 28.029 39.135 58.14 50.719-13.084 19.134-19.05 30.382 13.242 50.942-11.381 14.155-21.619 23.744-19.877 42.295 1.507 16.072 17.526 24.016 18.493 26.425 2.7782 6.9183 1.4945 24.996 1.9683 33.138l6.4324 60.501c-12.791 0.8955-32.622 1.6057-42.563 10.261-1.5659 17.174 30.006 45.863 36.116 64.613l-8.5464-6.7844-4.1274 4.2637c1.004 10.226 8.9969 20.838 16.779 27.229 5.1118 4.2007 14.086 8.8376 18.125 13.791 7.2341 8.8806 12.198 32.813 16.591 44.254 30.365 79.075 60.656 156.19 83.656 237.97-7.9331 7.6431-19.942 16.469-21.81 27.757 2.1709 12.203 12.851 22.72 20.681 31.852 7.3693 8.6536 6.5326 3.0232-0.157 19.241-19.598 47.379-26.892 57.532-63.36 85.842 7.1256 12.308 11.735 22.854 15.272 36.686l-46.505 76.973c20.61 35.871 12.225 86.798 36.823 160.16 15.498-24.069 24.215-48.196 34.927-74.432 14.535-35.7 15.326-25.418 10.765-46.085-1.5148-6.8442-4.5413-13.574-7.2739-20.048 13.142-21.189 25.408-43.228 43.635-60.541 20.779 31.39 20.239 84.87 7.3538 118.49-5.6887 14.88 7.791 52.449 5.1716 59.831-6.1472 17.367-31.087 30.971-41.573 46.37-6.13 8.9834 3.5259 16.883 1.3666 24.383-1.5919 5.5039-13.561 13.517-17.78 17.539-9.3392 8.8689-28.269 33.309-28.112 46.741 21.552 12.044 54.247-6.2783 73.538-16.94 7.3724 4.9558 12.448 8.4551 20.972 9.468 21.172-5.3613 43.53-29.944 60.699-43.804 59.369-47.897 64.015-41.565 135.19-139.31 1.5747-12.947-3.7996-28.946-4.7808-42.235-3.9998-54.038 1.0901-99.825-38.792-229.71-1.6057-5.2305-8.6461-23.279-5.6309-26.277 10.991-10.919 24.081-26.336 30.816-40.35-4.8608-7.2949-19.717-22.872-22.15-29.773-2.7916-7.9265 11.348-133.17 21.057-154.08 10.432-22.477 23.323-23.732 44.551-85.443-13.005 8.9116-25.567 17.108-39.844 23.912-0.0033-155.4-1.547-139.38-0.0054-145.03zm-1809.2 18.197 4.0818 0.7729c15.784 14.868 14.617 8.0142 4.1933 41.938-21.09 76.57-9.3584 25.844-55.619 252.04l-3.5829 6.479-2.9436-2.6777c1.4775-96.28 16.111-204.84 50.227-295.25l3.6428-3.3054zm-163.05-262.8c35.401 70.503 96.235 101.96 115.11 128.45 21.42 30.049 32.425 76.48 38.646 112.69-37.5 80.443-50.768 186.41-65.374 324.33l-3.8482 2.2161c-3.2633-11.861-0.7788-29.077-0.5648-41.462 1.4519-84.721 12.745-166.68 24.817-250.43 2.8696-19.914 11.921-42.877 8.2952-62.913-5.1633-28.541-23.04-68.261-39.359-91.962-23.616-34.293-75.958-75.593-78.259-120.16l0.5332-0.7614zm99.354 559.77-3.5999 2.8518 0.3453-32.63 3.2347-2.8518 0.0199 32.63zm-123.92-376.12c16.134 0.9866 36.858 17.924 54.366 22.33 3.7595-6.9441 6.2955-11.849 13.464-15.907 7.9499-1.6143 14.106-1.8596 21.18 3.1111 6.695 4.7056 7.5536 9.9729 8.6034 17.504l-1.1667 3.97c-3.4516 8.2246-8.937 10.765-16.724 13.768-12.614-1.8792-15.096-7.6741-25.339-12.953-17.275-8.9031-42.049-15.839-54.384-31.823zm0.4565 211.23 7.1996 0.4761c12.982 3.7473 36.147 7.3606 47.136 14.231 10.404 6.5076 25.265 37.47 29.276 49.125l-2.4619 0.4277-3.0862-2.96c-5.8307-7.9622-12.189-17.798-19.871-24.001-11.675-9.4226-53.616-24.665-58.192-37.299zm31.09 228.87c1.9225-5.23 11.136-10.571 15.606-14.019 20.456-15.665 43.016-30.953 69.431-33.432 39.565-3.7102 68.159 27.334 96.162 50.77-14.819-2.7747-30.788-12.916-45.846-16.985-67.921-18.351-108.5 7.7468-135.35 13.666zm141.99 21.032c-23.764 11.459-57.904 4.0269-84.175 8.2278l-43.616 11.521c25.393-26.509 42.036-39.065 81.822-39.172 16.471 2.6921 31.221 7.7141 45.481 16.469l0.488 2.9543zm-144.59 314.8c-3.7026 19.665-27.78 10.258-25.357-7.0366 0.7-4.9963 2.2699-7.1003 16.566-32.841-0.8876 18.232-1.1667 18.519-0.5392 20.484 1.611 5.0457 11.491 7.9124 9.3299 19.394zm1.344 53.597c4.1961 1.9109 8.9971 7.1008 12.651 10.095 2.9041 13.204 17.868 23.585 25.371 34.735-13.008-3.405-34.366-29.83-38.022-44.831zm21.965-39.503c-3.3823-7.9363-0.9207-13.757 8.4071-48.416 4.5975 21.617 4.7309 23.72 6.7127 26.364 3.7889 5.0557 15.693 6.1133 14.526 17.764-1.4532 14.514-23.07 19.721-29.646 4.2883zm26.197 51.167c3.7797 2.4812 13.301 11.265 14.485 15.485 3.2062 11.436 13.281 18.879 20.912 28.033-13.058-1.1749-35.02-28.589-35.397-43.519zm43.916-43.418c-10.004-0.7764-17.434-10.566-12.834-25.121 3.5723-11.306 12.908-21.939 10.463-34.195 3.9021 8.5459 5.2431 18.242 3.807 27.527 20.779 2.5337 19.613 33.424-1.4356 31.79zm32.152 86.879c-15.301-6.9302-23.271-23.784-30.619-37.986l5.0404-1.3972 26.845 7.6428 1.2552 3.0513c-6.475 0.2285-12.602-0.4844-19.004-1.3118-0.8272 6.9299 9.0513 17.567 13.267 23.613l6.6607 5.0193-3.4459 1.3689zm47.823 43.347 2.3105 3.9355c-12.936 2.583-26.008-4.1125-34.867-14.487 8.9725 0.1087 16.025 10.05 32.556 10.552zm53.459-346.92-1.1265 2.0166c-9.9585-2.1077-20.884-4.9851-31.087-3.9526-25.322 2.5608-32.288 17.721-47.033 35.51-19.26 23.234-40.218 41.063-71.487 43.872-23.571 2.1189-58.409-4.0237-76.987-19.689 16.213 1.4053 92.122 40.176 147.49-59.323 6.1985-11.142 12.246-27.896 23.325-34.464 13.53 2.181 27.284 16.714 56.908 36.029zm366.25 1311.1 3.9764-0.1995c15.864 28.97 11.775 62.57-16.368 79.907-12.718-12.956-12.142-56.834 12.392-79.708zm-290.05 905.87c-25.585-24.999-70.842-61.185-79.354-62.825-4.7811-0.9126-14.956 1.5112-20.056 2.2529-31.832 4.5732-58.816 16.852-93.287 22.501 10.588-8.7471 17.447-10.319 116.72-45.572 31.563 16.54 63.332 56.608 85.237 84.185 6.2736 7.8853 16.652 18.512 18.687 26.921-9.3621-5.5894-19.822-19.506-27.946-27.463zm-27.341-164.29c-3.5-1.6826-10.403-5.9033-13.843-6.1318-8.476-0.5254-47.826 13.775-73.541 25.638-6.8289 3.1655-18.618 10.78-25.967 9.126l13.233-10.837 92.996-50.248c101.38 95.301 119.25 110.35 128.54 127.87-11.971-5.7525-68.737-69.991-121.42-95.421zm-50.456-71.152 6.0873-4.8486 81.2-30.856c13.721 8.9546 25.912 21.217 38.495 31.712 12.748 10.608 27.969 20.932 37.962 34.25-11.123-2.8257-20.656-15.737-60.445-38.756-21.648-12.536-6.4233-13.366-100.3 10.58l-3.0037-2.0815zm184.09 1.226c-75.34-43.507-81.331-47.76-89.008-48.88-9.3836-1.3564-77.82 25.266-88.263 28.518l-1.2552-2.709c26.113-21.7 50.204-32.421 92.34-53.214 112.28 87.052 107.36 81.636 116.47 92.456-9.8269-2.0537-21.554-11.037-30.283-16.17zm120.64-14.145c-31.312 39.954-65.885 79.223-103.94 112.96 26.409-44.232 59.356-85.839 103.94-112.96zm-181.08-144.81c23.106 16.341 44.728 38.442 65.063 58.148 10.457 10.124 23.596 20.875 31.01 33.366-9.8618-2.9824-28.085-24.285-79.48-57.292-24.111-15.486-15.987-15.284-76.029 8.7837-5.5424 2.2241-10.811 5.5322-16.85 4.1636 22.327-16.75 50.702-35.732 76.286-47.169zm-56.435-528.12c11.378 28.717 13.332 48.985-6.6808 72.692l-4.2872 0.428c-15.821-25.557-8.1408-48.026 5.3998-72.835 1.9141-0.2282 3.6483-0.5136 5.5682-0.2851zm1068.3 95.136c-28.13-17.33-32.241-50.92-16.368-79.907l3.9764 0.1995c24.61 22.945 25.021 66.842 12.391 79.708zm50.721 577.8c44.585 27.121 77.532 68.728 103.94 112.96-38.056-33.737-72.628-73.006-103.94-112.96zm419.63 210.29c-33.61-5.5083-61.946-17.998-93.287-22.501-24.988-3.6333-16.524-6.0454-43.832 13.204-56.802 40.26-67.551 65.294-83.525 74.831 2.0327-8.4009 12.51-19.158 18.687-26.921 21.905-27.577 53.673-67.645 85.237-84.185 96.822 34.382 106.08 36.778 116.72 45.572zm-65.238-108.43 13.233 10.837c-7.3481 1.6538-19.138-5.9604-25.967-9.126-31.823-14.68-66.903-26.049-73.541-25.638-3.4402 0.2285-10.343 4.4492-13.843 6.1318-32.376 15.627-62.414 42.805-88.891 66.817-9.4393 8.584-21.611 23.356-32.53 28.604 9.3807-17.683 27.504-32.894 128.54-127.87l92.996 50.249zm-52.666-86.866c-75.527-19.267-76.998-20.1-83.037-19.392-7.4816 0.8608-45.994 26.992-55.784 33.851-6.475 4.5347-14.286 11.778-21.919 13.717 9.9924-13.318 25.214-23.642 37.961-34.25 12.583-10.495 24.774-22.757 38.495-31.712l81.2 30.856 6.0873 4.8486-3.0036 2.0815zm-2.5617-23.927-1.2552 2.709c-10.286-3.2031-78.88-29.874-88.263-28.518-15.206 2.2188-106.27 62.328-119.29 65.05 9.5494-11.339 6.2159-6.9761 116.47-92.456 41.054 20.259 66.26 31.543 92.34 53.214zm-41.804-88.719c-10.983 2.4893-56.637-26.093-74.388-23.271-10.358 1.623-67.862 45.456-77.355 52.844-5.6564 4.4199-13.92 12.748-20.615 14.772 7.4138-12.491 20.553-23.242 31.01-33.366 20.336-19.706 41.958-41.808 65.063-58.148 25.583 11.436 53.958 30.418 76.286 47.169zm-14.283-575.01c13.773 25.235 21.105 47.465 5.3998 72.835l-4.2872-0.428c-20.019-23.714-18.054-43.986-6.6808-72.692 1.9197-0.2286 3.654 0.0568 5.5682 0.2851zm23.151-2095.4-2.1138-1.5085c32.696-38.354 55.71-78.501 82.299-120.87l2.025 2.8518c-12.819 47.149-47.489 86.735-82.21 119.53zm117.82-95.741c-7.311 17.288-24.389 35-36.538 49.316-6.3868 7.5289-13.008 16.672-21.619 21.614-1.5148 2.4554-2.7642 5.2473-5.1404 6.9271 1.5232-2.6237 2.4733-5.407 5.1404-6.9271 3.7154-16.785 40.009-61.483 58.157-70.93zm-95.962 139.25c19.412-23.668 82.642-67.078 118.13-93.265-24.712 28.8-53.38 50.95-84.432 72.47-10.4 7.2094-21.75 16.766-33.7 20.795zm51.91 66.076-9.1025-0.7786c15.138-4.7623 45.686-16.058 60.802-14.501-12.902 11.641-34.815 16.181-51.7 15.28zm79.617-133.59c-6.2533 16.403-68.45 67.834-93.792 72.555 16.796-19.677 47.064-36.435 67.879-52.259 7.7076-5.8574 17.415-16.589 25.912-20.296zm-204.32-486.13c3.8822-1.8425 7.6962-1.962 11.898-2.0021 9.7587-0.0941 14.531 2.6522 21.46 9.4196 0.9669 8.3928 1.3807 8.584-3.4856 15.391-7.0658 4.1808-11.396 3.4679-19.509 3.6759-4.8264-4.2719-11.955-9.3937-13.729-15.776-1.1781-4.2348 1.4405-6.9898 3.3659-10.708zm-106.17-286.16c29.63-58.006 39.4-55.204 59.698-134.99 10.232 51.51 12.032 95.698 1.7515 147.71-7.5648-13.372-8.5775-40.293-11.105-55.821-45.974 80.911-75.201 157.65-72.049 252.35 1.7512 52.599 30.848 74.984 83.311 96.165 98.147 39.619 209.74 21.492 245.07 26.362-60.819 22.29-142.75 24.7-205.67 10.569-41.279-9.2711-118.24-39.52-137.56-71.455-10.84-17.915-9.6813-45.058-9.9209-65.452-0.83-70.112 14.508-142.87 46.476-205.44zm25.915 243.08c-4.2733 1.8452-8.8398 0.8557-13.344 0.4336-6.0702-4.8365-11.404-9.04-13.019-17.108-1.78-8.8948-0.9669-16.444 4.3473-23.875 4.9491-1.4457 7.6506-0.5447 12.474 1.0294 6.9545 5.7638 11.136 11.678 13.475 20.513 2.4049 9.0659 0.6047 11.299-3.9336 19.007zm186.07 324.39-4.7867 5.0676c-12.146 2.0466-24.633-9.5455-25.75-22.809l5.4426-5.0679c16.143 0.6428 23.515 8.8154 25.094 22.809zm-85.311-67.967c-5.9962 0.3793-9.4305 1.2947-14.822-1.6001-6.8176-3.6617-12.009-10.024-14.14-17.53-2.4847-8.7435-2.2563-11.441 2.125-19.344 3.7426-1.3088 7.7277-0.7241 11.624-0.536 7.6589 5.6008 14.003 13.355 16.898 22.538 2.4191 7.6658 2.0311 9.6048-1.6858 16.472zm-58.588-111.97c-2.6841 0.8811-5.0773 1.6825-7.9442 1.3546-5.8447-0.6674-13.207-5.3441-16.545-10.281-4.3931-6.4993-4.6097-8.8234-3.0352-16.418 7.6056-1.6823 18.156 2.2869 23.513 8.9604 5.172 6.4451 4.6412 8.6037 4.0107 16.384zm-150.6-368.96c6.6177 4.8396 7.2084 9.2113 8.3008 16.695-2.8868 8.048-6.6094 10.723-13.396 15.206-7.5964 1.9048-11.735 0.9781-18.995-1.7539-5.7419-6.2454-6.6892-7.7484-8.5748-15.988 2.8354-9.4816 4.6241-11.446 12.275-17.741 8.1068-0.8843 13.435-1.5001 20.39 3.5814zm-124.25-20.054c-5.015 41.718-99.749 141.56-114.09 148.68 6.5752-13.603 20.715-26.527 30.733-38.063l48.627-59.571c10.372-13.709 21.936-41.197 34.73-51.042zm-4.9378-55.51c-3.9514 14.368-4.7255 13.428-148.42 214.49-45.789 61.884-43.536 60.11-49.597 63.798 2.2948-10.82 2.0698-8.7788 134.12-192.1 59.005-81.423 55.667-78.34 63.9-86.184zm-210.89 215.54c-94.331 62.894-160.35 62.84-254.6 0-8.8361-5.89-19.197-11.691-25.484-20.423 0.0317-0.038 0.0604-0.0791 0.0911-0.1179 18.07 6.712 35.193 19.538 52.686 28.38 27.689 13.992 69.165 26.966 100.01 26.832 30.806 0.1346 72.282-12.821 100.01-26.832 17.476-8.8331 34.616-21.668 52.686-28.38 0.0308 0.0388 0.0594 0.08 0.0911 0.1179-6.2869 8.7324-16.648 14.533-25.484 20.423zm121.47-458.48c8.1841 9.636 14.377 18.223 19.491 29.816l-2.4729 2.3728-12.68-16.398c-6.3209 5.3327-8.8428 20.299-15.309 28.059l10.971-43.849zm-160.64-526.38c100.66 38.362 119.22 163.5 159.11 248.67-8.2408-7.3465-18.604-16.116-24.264-25.644-14.229-23.939-16.861-84.258-58.38-145.1-38.231-56.025-59.546-56.718-82.644-79.16 2.2621 0.2367 4.0305 0.4193 6.1728 1.2379zm98.795 561.65c-48.032 63.421-109.7 103.86-156.09 139.32l23.559-336.62 123.89-60.318 7.5822-1.007 20.41 21.589c1.4118 233.79 4.1259 206.02-19.355 237.04zm-37.368-326.04c3.2947-0.7644 6.3698-0.8727 9.7388-1.015 1.8284 12.938-0.6108 26.573-2.0083 39.5-35.377 26.074-79.435 44.058-119.7 61.337l-7.6078 2.1015c0.2255-1.6942 0.6106-2.9944 1.375-4.5285 40.64-81.585 40.919-70.797 118.2-97.395zm-210.29-100.05c7.5138-22.421 8.7488-50.845 12.506-74.404 20.269-104.79 11.364-65.202 38.173-172.54l-34.875 261.13-15.158 12.844c47.808 80.091 45.524 78.22 52.932 85.785 3.0094 0.2162 5.1997 0.6336 7.1595 0.6192 1.96 0.0144 4.1501-0.403 7.1597-0.6192 7.5157-7.6747 5.4092-6.1718 52.932-85.785l-15.158-12.844-34.875-261.13c26.8 107.31 17.903 67.741 38.173 172.54 3.757 23.559 4.9919 51.983 12.506 74.404 2.3817 7.1064 7.3508 13.8 11.704 19.848-21.799 39.044-33.854 76.368-48.89 118.22-24.241 63.91-21.881 57.613-23.55 62.288-1.8949-5.3066 1.6198 4.0704-23.55-62.288-15.036-41.848-27.091-79.172-48.89-118.22 4.3528-6.0486 9.3219-12.742 11.704-19.848zm29.381 197.44c0.7644 1.5341 1.1495 2.8344 1.375 4.5285l-7.6077-2.1015c-40.266-17.279-84.324-35.263-119.7-61.337-1.3975-12.927-3.8367-26.562-2.0083-39.5 3.3689 0.1423 6.4441 0.2506 9.7387 1.015 77.108 26.537 77.476 15.632 118.2 97.395zm0.5162 367.97c-53.354-40.792-109.16-77.358-156.09-139.32-23.464-30.99-20.77-2.5847-19.355-237.04l20.41-21.589 7.5821 1.007 123.89 60.318 23.559 336.62zm-57.293-700.97c2.1423-0.8186 3.9108-1.0012 6.1729-1.2379-23.034 22.38-44.569 23.364-82.644 79.16-41.493 60.804-44.141 121.14-58.38 145.1-5.6595 9.5281-16.023 18.297-24.264 25.644 39.896-85.161 58.454-210.3 159.11-248.67zm-160.64 526.38 10.971 43.849c-6.4666-7.7596-8.9885-22.726-15.309-28.059l-12.68 16.398-2.473-2.3728c5.1145-11.592 11.307-20.18 19.491-29.816zm-48.719 64.029c1.2123-6.6363 1.8857-10.928 7.0743-15.534 17.518 16.92 30.231 37.652 49.004 54.441 48.768 43.612 89.24 66.469 241.41 164.21 152.48-97.937 192.71-120.65 241.41-164.21 18.772-16.788 31.486-37.521 49.004-54.441 5.1887 4.6057 5.8621 8.8974 7.0743 15.534-6.1843 11.94-18.935 24.075-28.397 33.503-35.394 35.262-75.324 60.629-116.67 88.095-48.874 32.473-98.322 67.123-152.43 90.401-54.104-23.278-103.55-57.928-152.43-90.401-41.345-27.466-81.275-52.832-116.67-88.095-9.4616-9.428-22.212-21.563-28.397-33.503zm409.79 214.05c-6.5857 11.235-77.825 53.042-112.3 52.318-34.677 0.7283-105.85-41.321-112.3-52.318 8.572 1.0323 19.263 9.4707 27.002 13.564 76.979 40.718 93.494 40.779 170.59 0 7.739-4.0928 18.43-12.531 27.002-13.564zm-415.75-102.55c44.41 49.853 96.844 121.04 209.92 167.83 34.521 14.284 59.179 22.089 93.529 21.408 34.182 0.6775 58.425-6.8823 93.529-21.408 111.26-46.04 163.47-115.68 209.92-167.83l1.3379 2.5353c-51.64 86.08-145.53 174.14-251.84 203.68-133.87 37.19-287.67-86.874-357.74-203.68l1.3379-2.5353zm-9.867 99.734c176.04 242.92 171.11 236.36 173.14 245.96-10.37-6.3097-93.291-124.94-174.99-239.25-7.7903-11.994-19.209-25.15-23.029-39.038 9.6646 9.2084 17.067 21.476 24.871 32.328zm4.9205 74.224 48.627 59.571c10.018 11.536 24.158 24.46 30.733 38.063-13.541-6.7179-108.97-106.1-114.09-148.68 12.794 9.8445 24.358 37.333 34.73 51.042zm-21.246 159.85c-1.317 63.134-29.112 136.36-33.309 281.29-1.5391 53.094 0.2703 48.123 24.572 69.766 71.152 63.753 43.502 37.679 121.46 115.33 82.518 86.236 137.3 191.14 206.54 287.04l-2.4818-112.97c-0.114-26.239 3.928-58.738-0.9812-83.931-2.3346-11.978-8.7444-19.374-115.7-172.61-12.563-16.435-28.234-31.812-38.752-49.49 13.758 8.3734 7.6755 3.9283 149.57 166.93 3.9701-41.404 1.8409-83.812 1.5662-125.82-0.0483-7.3777 2.0796-24.779-0.2369-31.213-0.5834-1.6226-175.99-217.69-176.37-218.16l1.5061-1.6226 172.14 176.83v-140.07c-120.08-38.211-234.78-52.877-295.76-242.68 30.458 26.445 80.305 158.61 271.68 195.84 45.923 8.9308 42.143 8.9957 88.4 0 191.28-37.208 241.27-169.43 271.68-195.84-60.893 189.51-175.27 204.34-295.76 242.68v140.07l172.14-176.83 1.506 1.6226c-79.811 98.458-175.87 216.76-176.37 218.16-2.3165 6.4337-0.1886 23.835-0.2371 31.213-0.2751 42.092-2.4045 84.41 1.5663 125.82 142.97-164.24 136.17-158.77 149.57-166.93-10.518 17.678-26.189 33.055-38.752 49.49-106.79 153-113.36 160.59-115.7 172.61-4.9093 25.193-0.8672 57.692-0.9813 83.931l-2.4818 112.97c69.24-95.894 124.02-200.8 206.54-287.04 78.026-77.718 50.3-51.568 121.46-115.33 23.97-21.348 26.123-16.256 24.572-69.766-4.1096-141.9-32.021-219.53-33.309-281.29 4.0392 8.2416 8.4777 17.764 14.75 24.548 2.6987 2.9172 10.808 7.851 12.326 10.765 5.7961 11.131 7.5847 34.094 9.9209 46.784 15.952 86.695 27.148 176.02 30.168 264.18-90.861 81.519-145.68 125.49-220.38 222.61-42.811 55.653-76.594 116.22-115.97 173.99-16.008 23.482-33.8 44.793-51.52 66.903 1.1 46.279 6.5789 102.54-7.3851 147.24-0.5649-1.0647-1.0797-2.1333-1.549-3.2065-0.4691 1.0732-0.9839 2.1418-1.549 3.2065-13.97-44.714-8.4821-101.08-7.3851-147.24-95.426-119.07-100.21-153.43-167.49-240.89-74.715-97.124-129.55-141.11-220.38-222.61 3.0208-88.155 14.217-177.48 30.169-264.18 2.3361-12.69 4.1247-35.653 9.9208-46.784 1.5178-2.9143 9.6273-7.848 12.326-10.765 6.2728-6.7847 10.711-16.307 14.75-24.548zm727.28 451.3 1.64 1.7996c-75.928 98.8-87.071 88.735-94.65 98.356-1.9918 2.5253 1.6223-3.9294-26.703 73.058 24.931-4.2577 48.043-9.0117 71.898-17.692-18.251 15.069-35.928 29.952-57.074 40.88-4.413 2.2786-28.044 9.8217-29.476 11.67-2.319 2.9941-4.4641 18.1-5.6764 22.515l-17.86 57.584c18.898-2.7776 36.546-7.9196 54.774-13.523l-52.815 31.903c-3.6453 2.0364-16.53 7.0438-18.242 9.3824-1.7327 2.3632 1.6278-5.2383-22.641 76.086l66.969-23.134c-20.345 17.396-67.528 34.34-74.064 40.116-2.3875 2.1074-5.4995 10.372-6.9232 13.395-10.36 21.982-15.84 58.61-31.238 76.112 0.7529-28.532 13.635-61.867 20.749-89.8-16.148-15.103-30.608-29.932-41.031-49.707l47.269 23.285 24.746-65.161c-17.578-13.677-29.983-27.097-41.171-46.632l45.866 13.261c7.4678-27.754 21.169-53.12 31.886-79.662-15.275-11.564-34.889-25.01-45.969-40.766l50.008 9.291c6.0132-7.2152 9.6304-18.194 14.049-26.587l27.938-49.328c-12.123-6.1913-23.967-12.143-34.921-20.322 11.174-0.861 23.545-0.7443 33.629-6.0228 12.406-15.049 15.23-37.98 27.43-52.037l-3.7883 44.941c36.944-19.213 58.243-37.312 85.388-63.259zm-57.647 260.02c-8.9169 8.2332-10.703 23.436-18.955 30.683 0.4108-13.138 5.9646-26.459 15.829-35.394 10.914-9.89 37.788-27.739 51.734-30.58-10.378 16.709-34.436 22.201-48.607 35.291zm23.337 46.014c-11.796 13.093-33.17 18.084-42.879 30.771-12.235 15.982-10.016 45.321-22.966 60.353-0.9413-14.861 7.3566-38.688 13.467-52.51 8.3865-18.976 33.985-31.641 52.378-38.613zm-518.89 192.48c-15.398-17.502-20.878-54.13-31.238-76.112-1.4236-3.0229-4.5357-11.287-6.9231-13.395-6.9755-6.1655-52.719-21.865-74.064-40.116l66.969 23.134c-24.583-82.38-20.774-73.541-22.641-76.086-1.7114-2.3386-14.596-7.3461-18.242-9.3824l-52.815-31.903c18.228 5.6036 35.876 10.746 54.774 13.523l-17.86-57.584c-1.2123-4.4147-3.3574-19.521-5.6763-22.515-1.432-1.848-25.062-9.3911-29.476-11.67-21.146-10.928-38.823-25.812-57.074-40.88 23.856 8.6808 46.967 13.435 71.898 17.692-28.786-78.24-24.483-70.244-26.703-73.058-7.2127-9.1553-19.866-1.0436-94.65-98.356l1.64-1.7996c26.501 25.331 47.547 43.579 85.388 63.259l-3.7883-44.941c12.2 14.056 15.024 36.988 27.43 52.037 10.084 5.2786 22.455 5.1619 33.629 6.0228-10.954 8.1793-22.798 14.131-34.921 20.322l27.938 49.328c4.4183 8.3928 8.0355 19.372 14.049 26.587l50.008-9.291c-11.08 15.756-30.693 29.202-45.969 40.766 10.717 26.542 24.418 51.909 31.886 79.662l45.866-13.261c-11.188 19.535-23.593 32.955-41.171 46.632l24.746 65.161 47.269-23.285c-10.423 19.774-24.883 34.604-41.031 49.707 7.114 27.934 19.996 61.268 20.749 89.8zm-155.39-153.86c6.1103 13.823 14.408 37.65 13.467 52.51-12.95-15.032-10.731-44.371-22.966-60.353-9.7004-12.676-31.078-17.672-42.879-30.771 18.393 6.9728 43.992 19.638 52.378 38.613zm-77.649-119.92c13.946 2.8403 40.82 20.69 51.734 30.58 9.8641 8.9348 15.418 22.256 15.829 35.394-8.2524-7.2467-10.038-22.45-18.955-30.683-14.171-13.09-38.23-18.582-48.608-35.291zm-78.77-866.86c6.9548-5.0815 12.283-4.4657 20.39-3.5814 7.6506 6.2941 9.4392 8.259 12.275 17.741-1.8857 8.2391-2.8329 9.7422-8.5749 15.988-7.2598 2.7321-11.399 3.6587-18.995 1.7539-6.7861-4.483-10.509-7.158-13.396-15.206 1.0925-7.4834 1.6832-11.855 8.3007-16.695zm-222.04 275.01c6.9286-6.7673 11.701-9.5137 21.46-9.4196 4.2017 0.04 8.0156 0.1595 11.898 2.0021 1.9254 3.7186 4.5441 6.4736 3.3658 10.708-1.7742 6.3824-8.9027 11.504-13.729 15.776-8.1126-0.208-12.443 0.5049-19.509-3.6759-4.8663-6.8071-4.4525-6.9983-3.4856-15.391zm-167.15 38.2c35.611-4.9084 146.81 13.3 245.07-26.362 51.416-20.759 81.541-43.012 83.311-96.165 3.1521-94.694-26.075-171.44-72.049-252.35-2.5273 15.528-3.54 42.449-11.105 55.821-10.28-52.017-8.4807-96.205 1.7514-147.71 5.2886 20.787 10.532 41.545 19.417 61.146 20.829 45.924 88.58 125.34 86.757 279.29-0.6228 53.005-0.6017 69.108-44.896 95.749-98.374 59.148-223.35 61.703-308.25 30.588zm276.82-107.71c2.339-8.8348 6.5208-14.749 13.475-20.513 4.8235-1.5741 7.5251-2.4751 12.474-1.0294 5.3142 7.4319 6.1273 14.981 4.3474 23.875-1.6146 8.0679-6.9488 12.271-13.019 17.108-4.5043 0.4221-9.0709 1.4116-13.344-0.4336-4.5384-7.7084-6.3385-9.9412-3.9336-19.007zm-13.747 154.54c-3.3375 4.9366-10.7 9.6134-16.545 10.281-2.8669 0.3279-5.2601-0.4735-7.9442-1.3546-0.6305-7.7798-1.1612-9.9384 4.0107-16.383 5.3551-6.6708 15.904-10.643 23.513-8.9604 1.5747 7.5942 1.3581 9.9183-3.0351 16.418zm-54.116 101.77c-2.1308 7.5061-7.3223 13.868-14.14 17.53-5.3912 2.8948-8.8255 1.9794-14.822 1.6001-3.7169-6.8673-4.1049-8.8064-1.6858-16.472 2.8952-9.1827 9.2394-16.937 16.898-22.538 3.8966-0.1881 7.8816-0.7728 11.624 0.536 4.3814 7.9025 4.6098 10.6 2.125 19.344zm-83.736 69.356c-1.112 13.21-13.566 24.862-25.75 22.809l-4.7868-5.0676c1.5786-13.993 8.9507-22.166 25.094-22.809l5.4427 5.0678zm-49.426 356.15c-16.884 0.901-38.797-3.6389-51.699-15.28 15.116-1.5571 45.663 9.739 60.802 14.501l-9.1026 0.7786zm-79.617-133.59c8.4977 3.7073 18.205 14.439 25.912 20.296 20.815 15.825 51.083 32.582 67.879 52.259-25.49-4.7483-87.635-56.405-93.792-72.555zm97.828 46.718c-31.052-21.52-59.72-43.67-84.432-72.47 30.968 22.85 98.901 69.818 118.13 93.265-11.949-4.0292-23.3-13.586-33.7-20.795zm-62.262-118.45c18.164 9.455 54.446 54.164 58.157 70.93 2.6671 1.5201 3.6172 4.3035 5.1403 6.9271-2.3762-1.6798-3.6256-4.4717-5.1403-6.9271-8.6118-4.9421-15.232-14.085-21.619-21.614-12.149-14.316-29.227-32.028-36.538-49.316zm117.82 95.741c-34.721-32.796-69.391-72.381-82.21-119.53l2.0251-2.8518c26.589 42.372 49.603 82.52 82.299 120.87l-2.1138 1.5086zm24.304-213.35c-67.044 37.315-184.2 68.525-244.9 54.512l-3.4545-3.9783c90.326-35.03 242.8 2.438 342.34-222.42l17.634-45.572c2.0138-5.7894 4.0389-16.315 7.2653-21.203 3.4715-5.2587 25.81-15.674 32.356-19.649-26.28 92.512-61.452 208.34-151.24 258.31zm181.71 46.085c-95.908-65.959-94.187-63.674-102.95-73.163 11.162 1.2462 18.649 7.7953 101.81 65.62l34.984-249.15 1.9197-1.2548c1.6665 61.012-20.066 194.75-35.765 257.95zm34.87-401.29-3.4116-3.6647 1.7855-25.007c79.369-1.993 87.909 0.7729 83.748-70.203-3.9222-66.915-20.07-136.28-45.336-198.29-7.8244-19.204-23.473-40.858-28.665-60.116-0.669-2.4862-0.3936 1.0409 4.4643-60.935 45.29 105.63 88.26 204.43 98.709 320.41 10.064 111.59-24.31 94.963-111.29 97.803zm28.157 466.62c-3.5599 5.1135-8.5034 13.751-14.211 16.301-0.1196 0.2607-0.2118 0.4648-0.3218 0.7094-0.0343-0.0731-0.0556-0.1495-0.093-0.2217 0.1388-0.1642 0.2773-0.3204 0.4148-0.4877 7.8871-20.644 23.534-39.96 34.242-59.523 11.707-21.391 20.795-44.485 33.067-65.463l3.0493-1.0637c1.7972 9.9583-4.4926 19.184-8.7313 27.905-13.901 28.604-29.219 55.71-47.415 81.844zm19.466 67c12.133 3.9613 62.954 51.782 65.275 85.859-10.355-8.2789-17.96-30.275-26.628-41.739-11.83-15.648-26.874-28.472-38.646-44.12zm-280.95 1431.5c-6.6265 6.7019-14.305 17.71-21.722 22.729 0.4594-12.918 12.434-38.214 20.31-48.766 13.039-17.51 35.548-34.364 51.891-49.194 215.43-188.64 215.18-185.3 226.39-208.35l-49.648-80.278c18.755 10.865 35.32 27.72 52.883 40.752l24.258-101.24c-19.48-32.083-50.039-62.868-74.174-91.874 25.621 12.408 52.686 36.651 75.84 53.831 5.1259-6.9016 6.9061-25.39 9.0625-34.145l19.044-65.742c-15.116-15.5-28.385-32.696-42.717-48.906-10.851-12.274-22.806-23.133-31.629-36.925l70.523 49.858c4.9636-2.8945 9.3908-23.764 11.336-29.953 23.788-75.846 21.234-67.495 22.147-71.075l-81.004-85.483 76.074 48.287 21.08-86.524-96.182-97.896 1.5406-1.386c28.688 23.322 60.884 52.091 95.183 66.379 1.623-8.2588 2.5585-21.694 8.7773-27.494l10.683 5.584c2.9522 10.567 5.2107 0.3059-106.86 624.15-285.2 243.34-228.65 193.9-293.09 253.67zm346.42-11.065-2.1904 1.1121-86.965-133.98c-88.065 92.765-86.404 94.866-130.39 157.13 11.404-33.081 29.082-71.837 33.879-106.17 178.48-158.07 151.82-124.27 161.62-169.25 18.964-87.91 1.9018 1.7529 90.163-483.11 18.926-116.2 16.539-110.4 21.106-119.38l8.837 2.1047 9.947 5.0676c1.6974 9.835 7.6304-30.007-76.465 446.91-11.892 66.704-19.463 135.66-35.283 201.39l-66.935 51.247 72.68 146.92zm-302.72 336c34.276 72.036 73.755 136.66 131.42 192.44 127.81-65.461 162.45-117.67 178.65-124.17-5.2404 12.234-18.821 23.841-28.069 33.594-54.841 57.81-95.614 88.171-158.93 139.22-61.911-85.12-96.034-158.72-124.92-240.04l1.8486-1.0552zm121.34-57.949c-26.275 9.2112-51.026 15.229-78.69 18.394 16.068-9.2686 36.926-13.318 54.184-20.989 24.11-10.723 46.094-25.723 68.649-39.298 36.167 50.049 89.519 82.132 139.01 117.09-12.272-1.5112-23.28-7.614-34.19-13.09-30.639-15.371-55.533-34.393-81.377-56.865-28.888 49.45-46.539 117.12-49.885 174.13l-2.379-1.2546c7.1023-53.634-4.2259-125.13-15.324-178.12zm179.12 219.08c-80.019 74.871-131.5 115.23-186.09 204.73l-92.2-199.68c-11.738-25.01-30.984-56.009-36.652-82.759 15.171 14.999 56.777 105.53 110.06 156.19 7.2171 6.8726 15.079 15.599 23.904 20.305 119.14-51.808 207.85-134.46 220.6-138.68-7.9697 14.202-27.65 28.774-39.622 39.896zm39.031-297.16c-37.154-78.482-89.239-146.87-138.64-217.74l7.0515 77.113c0.4649 8.9263-1.686 26.322 0.7616 34.307 2.588 8.4504 93.932 151.98 114.49 167.31l3.3972 1.8821 2.7814-3.0796c3.4916 16.398 13.036 17.538 20.949 30.314-8.6346-2.2527-20.578-14.516-27.456-20.676-46.246-41.294-86.084-89.974-126.14-137.17-11.528 11.81-25.775 48.11-27.102 65.192-4.4387-23.413-12.258-44.802-20.872-66.932-103.57 93.157-95.414 88.237-109.55 96.476 8.3777-16.825 26.694-34.507 38.583-49.707 65.776-84.079 79.276-79.912 122.78-195.26l-168.73 168.94c1.9427-13.004 19.366-31.826 27.724-42.178 46.596-57.635 99.537-109.97 152.77-161.41 10.583 9.3257 21.36 36.788 28.614 49.764 34.076 60.914 76.103 124.31 99.405 190.04l2.0026 0.1997c75.02-69.379 67.072-62.112 69.465-64.052-11.108 32.026-45.986 57.093-72.278 76.656zm509.98-56.408c-71.941 116.4-149.74 221.81-193.74 351.55-44-129.75-121.8-235.16-193.74-351.55-156.37-275.44-123.86-202.33-130.31-223.04-1.9712-6.3306 16.947-114.67 19.072-129.33l24.466-191.04 2.1624-1.7966-14.425 310.36c-0.4421 11.607 22.05 43.034 28.491 54.47l113.11 198.6c3.113-113.21-14.574-122.77-103.14-257.32-1.7944-2.6235-3.2491-5.1045-3.483-8.3271-3.5681-49.045 44.072-706.82 47.503-722.66 0.4678-2.1589 1.1838-5.9834 3.0435-7.2778-17.674 481.36-33.285 720.27-29.863 730.19 5.899 17.196 24.58 39.44 34.986 55.268 61.398 93.45 67.866 106.19 66.547 230.34-0.1141 10.551 28.377 46.655 35.063 57.92 32.602 55.04 61.954 110.22 87.887 168.71-2.5583-38.365 0.2654-81.183 2.6129-118.81 4.6852-74.928 4.2719-59.53 10.01-94.908 5.7565 35.493 5.3314 20.092 10.01 94.908 2.3671 37.935 5.1703 80.456 2.6129 118.81 25.932-58.49 55.285-113.67 87.887-168.71 6.6864-11.265 35.178-47.368 35.064-57.92-1.3134-123.56 4.7316-136.25 66.547-230.34 10.406-15.828 29.087-38.072 34.986-55.268 4.177-12.112-12.071-245.62-29.863-730.19 7.4558 5.1895 21.287 232.64 45.863 610.05 2.2878 38.813 7.4993 81.19 4.6838 119.89-0.2339 3.2227-1.6887 5.7036-3.483 8.3271-89.852 136.5-106.21 145.65-103.14 257.32l113.11-198.6c6.4409-11.436 28.933-42.862 28.491-54.47l-14.425-310.36 2.1625 1.7966 24.466 191.04c2.125 14.658 21.043 123 19.072 129.33-5.3224 17.091 15.001-32.913-130.31 223.04zm165.02-341.73c-14.052-58.386 2.3145 11.826-102.48-582.48-2.8468-18.132-12.292-48.307-9.2679-65.825l9.947-5.0676 8.837-2.1047c2.7466 5.3997 106.24 604.04 117.48 631.09 5.6479 13.602 132.97 120.77 155.41 140.65 4.7979 34.336 22.475 73.092 33.879 106.17-45.254-64.059-43.272-65.363-130.39-157.13l-86.965 133.98-2.1904-1.1121 72.68-146.92-66.935-51.247zm89.073 257.52 7.0515-77.113c-49.4 70.867-101.48 139.25-138.64 217.74-26.292-19.564-61.17-44.631-72.278-76.656 2.3679 1.9189-5.5238-5.2976 69.465 64.052l2.0026-0.1997c23.302-65.734 65.329-129.13 99.405-190.04 7.254-12.976 18.031-40.438 28.614-49.764 53.234 51.446 106.17 103.78 152.77 161.41 8.3578 10.352 25.781 29.174 27.724 42.178l-168.73-168.94c12.691 33.651 25.656 67.416 45.324 97.759 28.736 44.301 104.84 124.72 116.04 147.21-14.531-8.4668-9.2671-6.2725-109.55-96.476-8.6144 22.13-16.433 43.518-20.872 66.932-1.3333-17.168-15.619-53.429-27.102-65.192-40.061 47.198-79.899 95.877-126.14 137.17-6.8776 6.1599-18.821 18.423-27.456 20.676 7.913-12.776 17.457-13.916 20.949-30.314l2.7814 3.0796 3.3972-1.8821c7.1483-5.3328 14.354-16.826 20.096-24.04 29.179-36.675 53.243-75.202 77.384-115.3 4.6553-7.7283 14.46-19.649 17.01-27.976 2.4476-7.9851 0.2967-25.381 0.7616-34.307zm71.242 396.83-2.379 1.2546c-3.3459-57.007-20.997-124.68-49.885-174.13-25.844 22.472-50.738 41.494-81.377 56.865-10.911 5.4756-21.919 11.578-34.19 13.09 49.494-34.963 102.85-67.046 139.01-117.09 22.555 13.574 44.539 28.575 68.649 39.298 17.258 7.6714 38.116 11.721 54.184 20.989-27.664-3.1655-52.415-9.1831-78.69-18.394-11.103 53.021-22.425 124.5-15.324 178.12zm151.15-36.76c-5.668 26.75-24.914 57.749-36.652 82.759l-92.2 199.68c-54.378-89.15-105.34-129.17-186.09-204.73-11.972-11.122-31.652-25.695-39.622-39.896 12.741 4.2195 101.37 86.836 220.6 138.68 8.8258-4.7056 16.687-13.432 23.904-20.305 51.69-49.146 96.614-142.9 110.06-156.19zm-14.488-83.415 1.8485 1.0552c-28.301 79.684-62.126 153.71-124.92 240.04-63.624-51.301-104.39-81.734-158.93-139.22-9.248-9.7534-22.829-21.36-28.069-33.594 15.365 6.1587 52.228 59.418 178.65 124.17 57.667-55.781 97.146-120.4 131.42-192.44zm-186.49-841.16c-24.135 29.006-54.694 59.791-74.174 91.874l24.258 101.24c17.563-13.033 34.128-29.887 52.883-40.752l-49.648 80.278c11.26 23.152 10.21 19.054 226.39 208.35 16.342 14.83 38.851 31.684 51.891 49.194 7.8756 10.552 19.851 35.847 20.31 48.766-7.4167-5.0188-15.096-16.027-21.722-22.729-64.426-59.759-8.7443-11.055-293.09-253.67-102.58-571-110.25-612.02-106.86-624.15l10.683-5.584c6.2189 5.8008 7.1543 19.236 8.7773 27.494 34.299-14.288 66.496-43.056 95.184-66.379l1.5405 1.386-96.182 97.896 21.08 86.524 76.074-48.287-81.004 85.483 0.6305 2.4724c28.612 91.223 28.568 96.056 32.853 98.555l70.523-49.858c-8.818 13.784-20.815 24.692-31.629 36.925-14.331 16.21-27.601 33.406-42.717 48.906l19.044 65.742c2.1564 8.7551 3.9366 27.243 9.0625 34.145 23.154-17.18 50.219-41.423 75.84-53.831zm-45.378-636.79c-46.288 66.713-174.4 128.38-257.68 153.8-65.98 17.125-57.966 13.698-59.065 14.667-2.4275 2.1306 0.4193 6.4453 0.6218 9.6707 2.1509 34.253 5.9763 69.41-5.4709 102.4 130.64-27.971 236.06-73.825 306.77-120.03 11.242-7.3464 30.197-25.82 42.925-28.47-24.802 38.509-217.58 176.45-451.96 175.3-228.91 1.1243-425.03-133.48-451.96-175.3 12.728 2.6494 31.683 21.123 42.925 28.47 70.739 46.222 176.18 92.064 306.77 120.03-11.447-32.992-7.6219-68.149-5.4709-102.4 0.2025-3.2253 3.0493-7.54 0.6218-9.6707-0.9424-0.8303 4.8854 1.9314-59.065-14.667-89.835-27.422-214.22-91.16-257.68-153.8 44.431 25.617 348.17 300.72 755.36 63.333 60.487-35.262 69.28-50.026 92.359-63.333zm-44.029-234.41c-8.6688 11.464-16.273 33.46-26.628 41.739 2.2749-33.401 52.702-81.754 65.275-85.859-11.772 15.648-26.817 28.472-38.646 44.12zm72.645-94.11c-0.11-0.2445-0.2023-0.4486-0.3219-0.7094-5.7076-2.5497-10.651-11.188-14.211-16.301-18.196-26.134-33.514-53.24-47.415-81.844-4.2388-8.7208-10.529-17.946-8.7313-27.905l3.0492 1.0637c12.272 20.978 21.36 44.072 33.067 65.463 10.708 19.563 26.355 38.878 34.242 59.523 0.1376 0.1672 0.2761 0.3235 0.4148 0.4877-0.0374 0.0722-0.0588 0.1486-0.093 0.2218zm-94.27-511.08c-8.3832-21.671-5.6267-45.668-3.4-70.357 10.449-115.97 53.419-214.78 98.709-320.41 4.9369 62.984 5.1735 58.299 4.4642 60.935-5.1915 19.258-20.841 40.912-28.665 60.116-25.265 62.009-41.413 131.37-45.336 198.29-4.2045 71.71 5.2472 68.231 83.748 70.203l1.7855 25.007-3.4116 3.6647c-57.494-1.8771-94.544 6.3173-107.89-27.446zm142.76 428.73c-16.258-65.452-37.403-198-35.765-257.95l1.9197 1.2548 34.984 249.15c79.027-54.948 90.458-64.352 101.81-65.62-8.6992 9.4191-6.5946 6.8962-102.95 73.163zm30.471-304.39c6.5466 3.9752 28.885 14.39 32.356 19.649 3.2264 4.8879 5.2515 15.414 7.2654 21.203l17.634 45.572c99.449 224.65 252.41 187.54 342.34 222.42l-3.4546 3.9783c-59.356 13.702-174.5-15.329-244.9-54.512-89.786-49.972-124.96-165.8-151.24-258.31zm468.25 690.06c-12.334 15.985-37.109 22.92-54.384 31.823-10.243 5.2788-12.725 11.074-25.339 12.953-7.7875-3.0029-13.273-5.5437-16.724-13.768l-1.1667-3.97c1.0498-7.5315 1.9083-12.799 8.6033-17.504 7.0741-4.9707 13.23-4.7253 21.18-3.1111 7.1685 4.0581 9.7045 8.9631 13.464 15.907 17.509-4.4059 38.232-21.343 54.366-22.33zm-139.68-55.205c18.902-26.519 79.723-57.962 115.11-128.45l0.5332 0.7614c-2.3016 44.565-54.643 85.865-78.259 120.16-16.319 23.701-34.196 63.421-39.359 91.962-3.6256 20.037 5.4257 43 8.2952 62.913 12.072 83.752 23.365 165.71 24.817 250.43 0.214 12.385 2.6985 29.602-0.5648 41.462l-3.8481-2.2161c-11.968-113.01-25.292-238.35-65.374-324.33 6.2212-36.212 17.226-82.642 38.646-112.69zm19.36 434.17-3.5999-2.8518 0.0199-32.63 3.2347 2.8518 0.3453 32.63zm-71.379-299.05 4.0818-0.7729 3.6429 3.3054c34.116 90.411 48.75 198.97 50.227 295.25l-2.9436 2.6777-3.5829-6.479c-46.411-226.93-34.537-175.5-55.619-252.04-10.444-33.991-11.482-27.173 4.1933-41.938zm-12.959 852.02 2.3105-3.9355c16.627-0.5046 23.406-10.441 32.556-10.552-8.8447 10.358-21.913 17.074-34.867 14.487zm50.134-47.283-3.4458-1.3689 6.6606-5.0193c4.2158-6.0457 14.094-16.683 13.267-23.613-6.4012 0.8274-12.529 1.5403-19.004 1.3118l1.2552-3.0513 26.845-7.6428 5.0403 1.3972c-7.3479 14.202-15.318 31.056-30.619 37.986zm25.089-87.874c-15.249-5.918-11.215-28.742 5.6274-30.795-1.436-9.2844-0.0951-18.981 3.807-27.527-3.5775 17.93 19.403 34.978 9.5823 51.82-3.7508 6.4317-11.88 9.2718-19.017 6.5022zm15.582 87.931c7.6305-9.1543 17.706-16.598 20.912-28.033 1.1838-4.2207 10.705-13.004 14.485-15.485-0.3793 15.035-22.395 42.349-35.397 43.519zm31.948-98.974c-1.1774-11.759 10.601-12.526 14.526-17.764 2.0425-2.7253 2.1011-4.6804 6.7128-26.364 8.7294 32.435 11.945 40.115 8.4071 48.416-6.5987 15.484-28.197 10.188-29.646-4.2883zm13.59 88.622c7.5023-11.151 22.467-21.531 25.371-34.735 3.6538-2.9944 8.4548-8.1843 12.651-10.095-3.6349 14.915-24.956 41.411-38.022 44.831zm48.696-117.82c0.6508-2.0374 0.3103-3.0366-0.5392-20.484 14.177 25.526 15.859 27.791 16.566 32.841 2.416 17.246-21.644 26.758-25.357 7.0366-2.2422-11.912 7.5917-13.95 9.33-19.394zm-8.4663-117.7c-18.578 15.665-53.417 21.808-76.987 19.689-31.269-2.8091-52.227-20.638-71.487-43.872-14.745-17.79-21.711-32.95-47.033-35.51-10.204-1.0325-21.129 1.845-31.087 3.9526l-1.1265-2.0166c30.538-19.911 43.422-33.855 56.908-36.029 11.079 6.5674 17.127 23.322 23.325 34.464 55.114 99.046 130.1 60.83 147.49 59.323zm-145.46-177.71 0.4878-2.9543c14.26-8.7549 29.01-13.777 45.481-16.469 39.944 0.1074 56.783 13.032 81.822 39.172l-43.616-11.521c-26.272-4.201-60.411 3.2309-84.175-8.2278zm6.6405-34.698c-15.058 4.0698-31.027 14.211-45.846 16.985 28.003-23.436 56.597-54.481 96.162-50.77 26.415 2.4783 48.975 17.767 69.431 33.432 4.4698 3.448 13.684 8.7893 15.606 14.019-27.385-6.0369-67.255-32.065-135.35-13.666zm108.25-177.9c-7.682 6.2024-14.04 16.039-19.871 24.001l-3.0862 2.96-2.4619-0.4277c2.3364-6.7903 5.1233-13.195 8.5778-19.492 22.009-40.132 19.05-29.782 67.833-43.864l7.1997-0.4761c-4.5755 12.634-46.516 27.876-58.192 37.299z"/> <path d="m962.42 2268c-12.038 23.12-14.494 47.194-12.859 73.023 0.9954 15.739 11.342 25.227 22.546 34.875l15.335 6.5107c31.94 12.145 85.992 12.181 118.03 0l15.335-6.5107c11.205-9.6475 21.551-19.136 22.546-34.875 1.6345-25.829-0.8214-49.903-12.859-73.023-65.537 7.3294-102.28 7.3577-168.07 0zm144.44 61.396c-47.1 7.6638-73.165 7.7534-120.82 0l-3.5942-3.6335c76.805-1.0869 47.409-1.1406 128 0l-3.5942 3.6335z"/> </svg>