<?xml version="1.0" standalone="no"?>
<!DOCTYPE svg PUBLIC "-//W3C//DTD SVG 20010904//EN"
 "http://www.w3.org/TR/2001/REC-SVG-20010904/DTD/svg10.dtd">
<svg version="1.0" xmlns="http://www.w3.org/2000/svg"
 width="1049.000000pt" height="1280.000000pt" viewBox="0 0 1049.000000 1280.000000"
 preserveAspectRatio="xMidYMid meet">
<metadata>
Created by potrace 1.15, written by Peter Selinger 2001-2017
</metadata>
<g transform="translate(0.000000,1280.000000) scale(0.100000,-0.100000)"
fill="#000000" stroke="none">
<path d="M6070 12746 c-36 -29 -272 -217 -525 -418 -253 -200 -757 -600 -1120
-889 l-660 -525 -45 18 c-92 35 -153 15 -172 -57 l-12 -44 -27 32 c-22 26 -33
32 -66 31 -54 -2 -114 -35 -178 -100 -75 -76 -114 -159 -121 -255 -8 -106 -11
-117 -43 -134 -45 -23 -74 -71 -74 -121 0 -53 21 -80 75 -94 56 -16 87 3 120
70 31 61 69 100 98 100 30 0 76 -46 98 -97 11 -27 28 -94 37 -151 14 -83 28
-126 70 -215 50 -106 135 -307 149 -353 6 -18 -1 -24 -43 -43 -72 -30 -104
-28 -149 14 -85 76 -176 94 -262 50 -56 -28 -80 -58 -80 -96 0 -26 17 -45 66
-75 18 -11 18 -13 2 -30 -29 -33 -40 -73 -28 -110 14 -41 35 -49 67 -24 31 24
39 25 47 4 8 -20 -8 -49 -54 -100 -48 -53 -66 -105 -50 -144 14 -34 32 -40 77
-26 50 15 52 -2 6 -43 -42 -36 -43 -38 -43 -102 0 -73 18 -109 54 -109 23 0
49 21 98 79 25 30 48 34 48 10 0 -5 -20 -32 -45 -58 -34 -36 -48 -60 -53 -92
-7 -42 -10 -45 -53 -55 -87 -22 -150 -72 -136 -108 6 -16 89 -46 129 -46 25 0
28 -3 28 -35 0 -52 21 -53 92 -5 64 43 85 40 49 -6 -25 -31 -27 -72 -6 -81 9
-3 35 2 58 11 60 23 66 21 87 -26 26 -58 26 -88 0 -88 -49 0 -148 -77 -180
-141 -15 -29 -17 -44 -10 -70 15 -52 59 -109 94 -124 l33 -14 -10 -50 c-35
-167 123 -231 244 -99 l38 42 28 -26 c37 -34 66 -48 98 -48 25 0 27 2 21 33
-12 58 -18 156 -12 181 3 14 24 46 46 71 23 26 52 69 66 96 l24 49 30 -15 c38
-19 37 -20 65 11 l25 26 10 -26 c5 -15 10 -36 10 -47 0 -11 13 -34 29 -50 24
-24 38 -29 76 -29 100 0 141 112 64 179 -16 14 -29 29 -29 33 0 5 27 8 59 8
87 0 91 3 91 67 0 62 -20 108 -50 116 -18 5 -20 13 -20 76 0 40 -4 71 -10 71
-5 0 -17 11 -25 24 -12 17 -13 30 -6 49 8 20 31 33 115 66 57 23 115 42 128
43 20 3 23 -1 21 -29 -5 -57 -43 -143 -68 -153 -38 -14 -65 -58 -65 -106 0
-36 5 -46 29 -64 23 -16 31 -31 37 -68 9 -62 27 -82 77 -82 37 0 46 6 92 55
41 45 56 55 82 55 20 0 40 8 53 22 49 53 67 213 31 278 -34 60 -48 94 -56 127
l-6 32 38 -5 c134 -18 187 -30 256 -56 54 -21 81 -37 87 -51 4 -12 18 -73 29
-136 28 -149 101 -366 196 -581 43 -95 80 -190 82 -211 5 -34 1 -44 -30 -79
-32 -35 -63 -75 -220 -284 -105 -140 -342 -584 -369 -691 -6 -27 -18 -58 -26
-67 -45 -54 -360 -91 -877 -104 -304 -7 -477 -28 -655 -79 -223 -64 -374 -137
-538 -259 -257 -192 -462 -378 -524 -476 -77 -122 -287 -514 -383 -718 -111
-233 -144 -321 -256 -677 -115 -369 -162 -459 -314 -604 -146 -138 -260 -167
-405 -101 -80 36 -136 42 -250 26 -44 -6 -67 -3 -114 13 -33 12 -76 21 -97 21
-49 0 -62 -19 -83 -128 -34 -171 -141 -421 -216 -505 l-43 -48 23 -95 c21 -85
22 -105 13 -174 -12 -93 -37 -148 -78 -170 -16 -9 -36 -28 -43 -43 -7 -15 -19
-114 -27 -229 -8 -112 -17 -225 -21 -253 -5 -45 -2 -55 26 -95 17 -25 43 -62
57 -82 31 -46 32 -99 4 -218 -31 -126 -28 -196 8 -251 17 -24 48 -62 70 -84
l41 -39 0 -189 0 -190 56 7 c93 11 180 61 434 250 170 127 267 219 445 426
160 186 205 231 205 209 0 -25 -52 -98 -136 -193 -157 -177 -183 -215 -218
-322 -22 -67 -70 -146 -144 -236 -84 -103 -102 -133 -102 -162 0 -30 7 -32
132 -41 48 -3 111 -13 140 -21 29 -8 73 -17 98 -20 25 -3 78 -22 119 -42 73
-36 77 -37 191 -37 115 0 117 0 189 38 39 21 76 35 81 32 16 -10 12 -44 -17
-134 -19 -60 -27 -109 -27 -159 -1 -69 1 -75 27 -98 18 -15 41 -24 62 -24 51
0 65 -36 79 -195 l11 -130 45 -7 c57 -8 547 -10 589 -2 25 5 31 11 31 33 0 16
-12 41 -31 62 -45 50 -136 243 -150 319 -15 80 -42 144 -102 236 -59 93 -87
148 -87 174 0 17 6 20 43 20 23 0 90 -7 148 -16 l106 -16 79 62 c99 79 244
152 244 123 0 -39 -33 -193 -54 -252 -42 -120 -32 -201 30 -250 21 -17 41 -21
94 -21 103 0 104 -3 108 -214 1 -94 4 -181 7 -193 3 -12 17 -25 36 -32 35 -12
614 -35 630 -25 18 11 -2 65 -97 259 -75 151 -107 205 -154 258 -112 126 -187
263 -197 359 -7 68 0 74 100 86 51 7 92 19 120 35 48 29 290 269 368 367 29
36 122 171 207 300 251 382 359 521 396 507 23 -9 20 -81 -9 -244 -67 -362
-157 -604 -284 -763 -37 -46 -55 -76 -47 -78 7 -2 62 11 122 29 273 79 507 39
647 -111 32 -34 63 -60 70 -57 6 2 17 43 24 92 15 103 69 320 113 455 38 117
87 209 233 443 134 213 296 493 343 592 34 72 79 261 165 699 21 109 40 200
41 201 2 1 237 34 442 61 42 5 232 -14 254 -25 10 -5 -15 -34 -80 -96 -165
-156 -370 -310 -472 -356 -30 -13 -46 -26 -46 -38 0 -9 25 -46 55 -81 91 -105
199 -359 209 -492 5 -65 27 -75 52 -26 29 57 123 166 238 275 105 99 308 264
380 308 99 61 147 100 152 124 26 124 192 490 271 595 34 47 37 49 44 28 15
-39 -35 -494 -66 -618 -25 -95 -77 -193 -157 -292 -126 -157 -232 -359 -240
-457 l-3 -40 130 -6 c213 -11 362 -44 471 -105 74 -41 79 -38 87 61 17 196
158 400 339 489 90 44 152 56 251 49 68 -5 77 -4 77 11 0 9 -7 19 -15 22 -11
5 -15 21 -15 60 0 30 1 54 3 54 1 0 20 -9 42 -20 22 -11 47 -20 57 -20 27 0
68 22 68 36 0 10 7 11 30 2 17 -5 42 -7 55 -4 20 5 25 13 25 39 3 220 20 599
28 613 22 39 36 -25 61 -270 10 -97 16 -106 71 -106 60 0 177 -86 231 -171 60
-91 71 -60 44 126 -18 124 -19 247 -3 263 20 20 65 14 97 -14 44 -36 83 -107
102 -184 l16 -64 27 52 27 53 47 -42 c238 -211 281 -243 329 -237 30 3 28 -1
77 169 9 31 41 94 71 140 32 49 55 95 55 111 0 15 -9 66 -20 113 -27 114 -26
128 3 120 51 -15 91 -43 109 -75 22 -43 24 -139 3 -180 -18 -35 -61 -70 -86
-70 -34 0 -119 -213 -104 -260 24 -77 382 -320 471 -320 65 0 80 48 95 305 12
220 7 278 -31 395 -39 120 -42 141 -31 191 7 31 7 61 -1 102 -11 54 -11 59 9
79 14 13 61 31 129 49 59 16 112 33 117 38 7 7 -4 31 -33 72 -53 76 -89 161
-90 211 0 43 -8 68 -22 68 -6 0 -35 -21 -65 -47 -87 -76 -125 -103 -136 -96
-16 10 -45 85 -61 159 -8 39 -26 94 -40 122 -14 28 -26 57 -26 64 0 10 30 13
127 13 108 0 139 4 195 23 88 31 180 91 218 143 51 72 38 115 -52 167 -103 59
-175 149 -193 241 -14 70 -33 76 -84 28 -20 -19 -75 -62 -122 -96 -104 -72
-165 -139 -180 -195 -6 -23 -13 -47 -15 -53 -5 -20 -29 -15 -107 21 -40 19
-100 44 -135 56 -44 16 -74 35 -100 63 -136 149 -260 247 -313 247 -14 0 -54
-18 -89 -41 -94 -61 -95 -60 -97 111 -1 134 -3 152 -32 234 -32 93 -38 131
-21 141 5 3 49 3 96 -1 72 -6 87 -10 91 -25 9 -33 122 -77 168 -65 l25 6 -1
178 c-1 232 -6 265 -41 272 -25 5 -23 8 49 70 41 36 93 80 116 98 23 18 56 46
73 61 30 28 71 47 80 39 2 -3 -7 -65 -21 -139 -31 -168 -31 -180 1 -212 60
-60 144 -56 184 9 36 57 41 48 55 -96 8 -77 16 -90 63 -90 30 0 43 -8 86 -55
59 -64 99 -80 160 -64 57 15 123 55 131 80 4 11 8 102 10 202 2 110 15 298 34
477 17 162 31 323 31 358 l0 62 48 0 c98 0 109 14 68 84 -44 76 -44 88 18 421
15 77 31 190 36 253 8 99 12 117 35 143 14 17 25 41 25 54 0 24 -39 81 -113
165 -57 65 -60 74 -36 101 47 54 -3 202 -72 216 -36 7 -37 -2 20 163 73 210
87 373 41 477 -28 64 -37 47 -15 -29 36 -122 19 -276 -53 -469 -40 -111 -65
-150 -83 -132 -9 9 -7 44 6 150 13 101 16 180 13 296 l-5 159 26 30 c18 22 22
33 13 36 -32 10 -77 61 -100 112 -34 77 -72 190 -64 190 4 0 30 -35 59 -77 60
-91 152 -195 153 -173 0 20 -27 63 -105 165 -36 47 -65 92 -65 100 0 8 -11 35
-25 61 -21 39 -25 61 -25 130 0 49 -4 84 -10 84 -5 0 -10 -5 -10 -10 0 -6 -16
-20 -35 -31 -19 -12 -35 -27 -35 -34 0 -7 -16 -22 -35 -34 -33 -19 -35 -24
-35 -70 0 -71 -6 -80 -43 -74 -55 8 -141 -31 -188 -87 -70 -83 -86 -78 -100
30 -5 40 -11 75 -14 78 -3 3 -14 -3 -25 -13 -18 -16 -20 -16 -20 -2 0 32 -101
129 -117 113 -3 -3 -12 -50 -19 -105 -7 -55 -24 -136 -38 -180 -70 -221 -60
-369 40 -581 29 -63 50 -116 46 -118 -5 -1 -38 4 -73 13 -35 8 -124 20 -197
27 -153 14 -379 1 -546 -32 -160 -32 -537 -160 -680 -232 -290 -146 -592 -390
-830 -673 -86 -102 -101 -116 -104 -96 -6 36 6 68 27 74 11 3 25 24 36 53 53
145 134 316 178 377 47 64 49 70 36 93 -12 23 -10 36 21 127 l35 102 76 38
c99 48 216 167 261 263 38 82 35 130 -13 210 -116 192 -461 523 -739 709 -138
92 -220 129 -302 133 -38 2 -68 6 -68 8 0 1 13 42 29 91 16 48 39 149 51 223
34 222 39 244 61 273 27 37 21 59 -42 158 -30 47 -56 101 -64 134 -7 30 -24
73 -39 95 -34 52 -101 100 -138 100 -35 0 -35 1 25 135 93 211 130 362 131
535 1 120 -1 130 -37 235 -106 307 -293 573 -309 438 -3 -24 -7 -28 -30 -25
-20 2 -32 -5 -49 -30 -12 -18 -24 -35 -26 -37 -2 -3 -21 -4 -43 -3 -36 3 -40
0 -40 -21 0 -13 32 -75 72 -138 68 -108 125 -226 114 -236 -17 -18 -84 36
-237 191 -44 45 -55 51 -106 57 -58 7 -58 7 -95 -33 -21 -21 -67 -52 -103 -68
-36 -16 -65 -34 -65 -41 0 -22 40 -67 75 -83 30 -15 35 -22 35 -52 0 -46 -24
-162 -62 -303 l-31 -115 -14 40 c-57 159 -65 212 -70 441 -5 221 -6 222 -29
238 -27 18 -56 8 -73 -24 -6 -10 -44 -35 -87 -57 -125 -64 -148 -108 -146
-279 1 -120 29 -237 95 -406 25 -63 53 -137 62 -165 13 -42 40 -76 139 -182
121 -129 156 -176 143 -189 -4 -3 -18 -1 -32 5 -22 10 -27 9 -41 -14 -27 -40
-33 -100 -17 -152 39 -127 -56 -320 -189 -386 -42 -21 -66 -26 -129 -26 -62 0
-81 -4 -103 -21 -14 -11 -26 -27 -26 -34 0 -21 -50 -75 -69 -75 -10 0 -28 11
-41 25 -13 14 -29 25 -36 25 -22 0 -51 -39 -62 -81 -13 -53 10 -83 78 -100 27
-7 50 -16 50 -19 0 -9 -129 -28 -264 -40 -188 -16 -318 14 -346 80 -11 26 -10
38 5 78 13 36 43 72 132 159 113 110 115 112 99 135 -22 31 -21 33 19 35 46 2
94 31 122 73 13 18 23 36 23 40 0 6 -178 22 -248 22 -13 0 -41 -12 -62 -26
-22 -14 -42 -26 -44 -26 -2 0 -23 38 -45 85 -23 47 -48 85 -55 85 -8 0 -16
-16 -19 -41 -7 -50 -16 -60 -31 -35 -35 61 -123 135 -140 119 -3 -4 -6 -16 -6
-29 0 -12 -16 -37 -37 -57 -36 -35 -36 -36 -19 -62 10 -15 33 -44 53 -66 37
-40 35 -45 -17 -51 -45 -5 -36 -38 30 -113 73 -83 122 -161 154 -246 29 -77
42 -164 27 -173 -32 -20 -210 126 -241 199 -9 22 -47 86 -84 143 -98 150 -206
343 -206 366 0 11 14 31 31 46 l32 26 -63 59 c-63 61 -100 118 -100 155 0 22
24 35 82 45 50 8 86 51 94 116 4 27 15 61 26 75 24 29 250 225 398 344 112 90
1311 1097 1595 1339 216 184 315 282 315 310 0 29 -43 71 -72 70 -13 0 -52
-24 -88 -53z m-485 -436 c-10 -11 -21 -17 -24 -14 -3 3 3 12 13 20 28 20 32
17 11 -6z m85 -31 c-44 -40 -80 -65 -80 -54 0 6 113 95 120 95 3 -1 -15 -19
-40 -41z m-160 -22 c0 -2 -15 -16 -32 -33 l-33 -29 29 33 c28 30 36 37 36 29z
m-100 -87 c-22 -31 -40 -46 -40 -34 0 8 51 64 58 64 2 0 -6 -13 -18 -30z m110
-15 c-18 -19 -36 -32 -39 -30 -6 7 50 65 63 65 5 0 -5 -16 -24 -35z m-249
-103 c-223 -198 -1259 -1077 -1374 -1165 -53 -40 -74 -46 -84 -21 -4 10 11 33
43 66 109 112 470 404 534 431 14 6 36 24 50 39 32 36 872 707 885 708 6 0
-19 -26 -54 -58z m169 45 c0 -2 -17 -19 -37 -38 -34 -31 -31 -21 6 24 12 15
31 23 31 14z m-122 -107 c-12 -16 -26 -30 -32 -30 -5 0 3 14 19 30 16 17 30
30 32 30 2 0 -6 -13 -19 -30z m-99 -77 c-28 -38 -104 -113 -113 -113 -6 0 19
29 54 65 64 65 84 81 59 48z m1105 -89 c13 -15 29 -36 35 -48 22 -43 111 -297
111 -317 0 -40 -24 -13 -36 42 -15 66 -47 139 -108 244 -25 44 -46 86 -46 93
0 20 17 14 44 -14z m-54 -71 c71 -86 163 -325 119 -311 -16 5 -68 95 -69 118
0 8 -25 56 -56 107 -51 85 -62 123 -35 123 5 0 24 -17 41 -37z m-1266 -34
c-39 -41 -200 -179 -210 -179 -11 0 223 208 235 210 3 0 -8 -14 -25 -31z
m1196 -16 c31 -40 78 -143 92 -203 11 -48 10 -54 -7 -66 -27 -20 -34 -18 -41
14 -4 15 -26 68 -49 119 -52 111 -69 159 -60 173 9 14 38 -3 65 -37z m-695
-431 c3 -13 1 -30 -6 -38 -14 -17 -55 -18 -65 -2 -12 20 -23 189 -17 261 5 56
9 67 22 62 9 -2 23 0 31 5 13 8 16 -9 22 -127 4 -76 10 -148 13 -161z m-125
151 c0 -48 5 -126 11 -174 6 -49 8 -96 5 -106 -7 -17 -9 -16 -26 5 -43 52 -61
294 -26 346 9 15 21 24 26 21 6 -4 10 -45 10 -92z m-87 -75 c3 -51 11 -117 18
-146 19 -93 -9 -132 -52 -72 -40 54 -48 253 -13 308 26 40 40 12 47 -90z
m-628 82 c-14 -23 -735 -632 -774 -654 -36 -21 16 29 129 123 63 52 176 147
250 211 133 116 392 330 398 330 2 0 0 -5 -3 -10z m1510 -41 c46 -43 57 -50
70 -39 8 7 22 10 30 6 10 -4 15 1 15 15 0 18 6 19 103 17 l102 -3 12 -35 c37
-107 -17 -407 -105 -588 -21 -45 -43 -77 -52 -77 -8 0 -36 32 -62 70 -26 39
-79 105 -117 147 -83 92 -89 113 -67 230 20 106 20 193 1 248 -8 23 -15 46
-15 51 0 22 36 5 85 -42z m-124 12 c19 -16 24 -30 27 -89 5 -82 -19 -205 -47
-241 l-18 -24 -33 79 c-30 69 -34 90 -34 170 -1 101 9 124 54 124 15 0 38 -8
51 -19z m-487 -353 c39 -129 103 -247 221 -407 100 -137 105 -145 89 -162 -54
-59 -244 30 -390 182 -65 68 -86 102 -114 184 -10 29 -32 79 -48 110 -34 64
-30 93 14 114 32 14 53 4 60 -28 20 -99 64 -197 139 -311 60 -91 100 -128 123
-113 14 8 23 6 41 -8 23 -19 52 -25 64 -13 3 4 -20 37 -53 74 -73 86 -95 124
-164 285 -53 123 -71 154 -80 144 -14 -16 85 -284 138 -372 19 -31 31 -57 26
-57 -13 0 -69 98 -154 267 l-75 152 51 41 c49 39 52 40 69 23 9 -10 29 -57 43
-105z m181 -128 c90 -47 215 -41 273 13 l22 21 50 -49 50 -49 -58 -33 c-80
-46 -143 -57 -207 -38 -54 17 -54 17 -92 -41 -12 -18 -14 -17 -38 11 -44 52
-78 130 -70 164 4 17 8 31 10 31 2 0 29 -13 60 -30z m-2015 -31 c78 -47 140
-136 140 -202 0 -60 -54 -117 -110 -117 -34 0 -95 36 -124 74 -49 65 -88 147
-75 162 6 7 8 26 4 42 -9 43 15 62 78 62 35 0 64 -7 87 -21z m2500 -141 c97
-128 99 -144 22 -169 -20 -6 -62 -24 -92 -39 -75 -36 -150 -46 -191 -24 -71
36 -169 150 -169 197 0 7 6 21 13 32 29 39 113 -16 167 -110 16 -29 37 -58 45
-65 31 -26 26 0 -14 67 -44 74 -49 94 -28 111 12 11 165 80 178 81 4 1 35 -36
69 -81z m-2756 9 c15 -11 20 -31 24 -90 3 -56 1 -77 -7 -77 -11 0 -21 20 -60
115 -6 13 -8 -2 -7 -45 3 -144 -41 -162 -84 -35 -20 57 -23 21 -6 -60 9 -43
11 -74 6 -79 -22 -22 -100 92 -100 146 0 84 168 173 234 125z m85 -13 c65 -82
38 -315 -39 -335 -44 -12 -126 -9 -144 4 -26 19 -7 52 38 68 19 7 37 21 39 31
3 10 19 23 35 29 17 6 38 22 47 36 17 26 17 31 -9 122 -21 75 -6 95 33 45z
m-318 -27 c-14 -37 -61 -110 -67 -104 -5 5 27 74 54 115 19 29 26 23 13 -11z
m-24 -149 c11 -13 28 -44 38 -71 33 -88 -8 -70 -55 24 -26 51 -29 69 -10 69 4
0 16 -10 27 -22z m3229 -40 c62 -57 93 -118 60 -118 -14 0 -116 132 -116 150
0 17 9 12 56 -32z m-16 -76 c33 -40 31 -52 -8 -52 -23 0 -32 10 -60 63 -18 34
-32 66 -32 70 0 13 68 -43 100 -81z m-136 34 c51 -39 63 -64 40 -87 -11 -10
-31 -21 -46 -24 -25 -6 -28 -4 -28 16 0 35 -34 86 -70 104 -43 22 -37 28 20
23 33 -3 61 -14 84 -32z m-2675 -55 c-31 -56 -73 -84 -135 -89 -69 -6 -79 13
-11 21 65 8 94 30 132 98 25 44 30 50 33 32 2 -13 -7 -40 -19 -62z m140 -65
c74 -95 72 -98 -64 -104 -49 -2 -95 -9 -102 -14 -7 -5 -17 -26 -24 -46 -23
-74 -52 -132 -65 -132 -16 0 -37 94 -38 175 l-1 59 49 8 c57 8 113 55 142 119
20 46 13 51 103 -65z m2315 70 c52 -30 70 -51 62 -71 -7 -18 -67 -20 -99 -4
-28 14 -107 90 -107 102 0 18 101 -2 144 -27z m-186 -2 c46 -19 92 -62 92 -86
0 -18 -35 -38 -66 -38 -8 0 -18 11 -23 23 -9 23 -53 69 -96 101 -19 15 -18 15
18 16 21 0 54 -7 75 -16z m-2665 -24 c30 -15 35 -41 12 -60 -9 -7 -20 -33 -26
-57 -19 -74 -73 -94 -129 -47 -40 35 -39 86 2 117 26 19 29 20 46 4 24 -22 32
-21 32 4 0 24 18 61 28 56 4 -1 19 -9 35 -17z m2458 -60 c46 -22 91 -40 101
-40 10 0 18 -6 18 -14 0 -39 -179 -48 -219 -12 -14 13 -21 31 -21 56 0 63 10
64 121 10z m865 -8 c6 -4 21 -25 32 -47 12 -22 35 -60 51 -85 43 -63 41 -80
-10 -80 -100 0 -346 50 -426 86 -80 37 -209 26 -332 -27 -60 -25 -62 -29 -125
-201 -60 -166 -81 -282 -66 -374 6 -37 14 -72 17 -77 3 -5 0 -8 -8 -5 -8 2
-21 19 -31 37 -19 39 -23 34 -38 -49 -13 -74 -34 -130 -49 -130 -5 0 -19 29
-31 64 -11 34 -27 72 -35 82 -8 10 -15 24 -15 31 0 6 32 60 72 120 73 111 118
196 117 223 0 8 -14 -12 -31 -45 -62 -121 -176 -243 -270 -291 -43 -22 -88
-32 -88 -19 0 3 12 24 27 46 21 32 24 44 16 57 -14 23 -76 21 -136 -4 -50 -20
-62 -34 -23 -27 29 6 42 -12 25 -33 -9 -11 -24 -14 -48 -11 -189 26 -221 38
-221 82 0 13 8 33 18 45 l17 21 24 -20 c13 -12 33 -21 45 -21 32 0 96 20 96
30 0 5 15 25 34 44 31 34 37 36 97 36 154 0 256 105 314 322 27 100 34 112 61
106 34 -7 21 -80 -36 -196 -50 -103 -62 -147 -37 -140 21 7 96 168 113 245 18
80 31 96 94 107 19 4 98 22 175 41 77 19 187 41 245 49 113 15 348 20 366 8z
m-2314 -133 c18 -23 47 -69 63 -102 17 -35 38 -63 48 -65 15 -3 17 5 17 62 0
38 4 66 10 66 12 0 36 -50 50 -107 6 -23 15 -45 20 -48 4 -3 21 14 37 37 37
56 76 67 162 45 34 -9 69 -13 78 -10 10 4 14 2 10 -5 -14 -22 -76 -35 -108
-22 -31 13 -83 7 -106 -11 -27 -23 -14 -46 37 -68 28 -12 50 -26 50 -31 0 -12
-230 -250 -241 -250 -5 0 -22 26 -38 58 -16 31 -49 85 -74 118 -56 76 -80 121
-71 135 3 6 20 10 38 9 50 -3 56 -1 56 20 0 13 -12 27 -31 38 -47 26 -89 62
-89 78 0 21 31 94 41 94 4 0 23 -18 41 -41z m-468 1 c14 -5 26 -16 26 -24 0
-29 86 -182 198 -353 l112 -172 0 -158 c0 -87 5 -176 11 -198 19 -75 25 -70
-92 -70 -93 0 -110 3 -129 20 -26 23 -261 488 -314 621 -45 113 -46 158 -7
256 25 62 34 74 58 79 45 10 109 10 137 -1z m2444 -57 c18 -24 29 -28 98 -34
44 -4 108 -8 144 -8 143 -2 177 -33 165 -150 -15 -148 -85 -418 -120 -468 -13
-19 -19 -20 -44 -10 -45 17 -115 -14 -149 -65 l-26 -40 -53 6 c-68 8 -102 24
-109 52 -7 25 11 64 29 64 29 0 78 -41 84 -71 l6 -32 18 24 c35 45 24 67 -40
79 -20 4 -47 10 -61 14 -22 6 -28 2 -43 -28 -9 -20 -21 -36 -26 -36 -11 0 -21
25 -21 54 0 40 -65 86 -123 86 -34 0 -56 17 -90 72 -22 36 -22 38 12 38 35 0
61 31 61 72 0 27 -61 108 -81 108 -19 0 -7 -24 27 -55 34 -32 35 -35 22 -61
-35 -74 -78 -15 -78 106 0 62 3 74 25 95 13 14 36 25 50 25 23 0 26 -4 23 -27
-3 -24 -8 -29 -43 -33 -38 -5 -39 -6 -18 -18 12 -6 38 -12 57 -12 l36 0 0 50
c0 54 -3 56 -80 62 -48 4 -44 19 15 48 34 18 55 36 64 58 18 39 22 39 58 6 24
-22 34 -25 72 -20 24 3 52 6 62 6 13 0 20 10 25 35 8 42 25 45 52 8z m-91 0
c5 -15 -76 -38 -89 -25 -6 6 -3 16 8 26 19 19 75 18 81 -1z m-196 -38 c0 -5
-9 -11 -21 -13 -20 -3 -27 8 -13 22 10 9 34 3 34 -9z m-101 -471 c118 -135
180 -184 318 -250 86 -42 112 -59 112 -74 0 -101 -348 91 -490 271 -62 78 -90
180 -46 163 8 -3 56 -53 106 -110z m-389 -136 c-16 -40 -54 -128 -85 -194 -31
-66 -56 -131 -56 -143 0 -20 132 -196 173 -230 25 -20 21 -70 -9 -113 -15 -21
-29 -38 -33 -37 -9 0 -147 171 -171 212 -12 20 -26 37 -32 37 -10 0 -39 -30
-103 -107 -22 -26 -63 -69 -91 -94 -41 -37 -57 -46 -78 -42 -45 9 -49 26 -15
69 49 60 179 261 179 276 0 7 -25 45 -55 83 -86 109 -155 215 -155 239 0 31
19 46 55 46 33 0 51 -15 98 -85 36 -54 112 -135 126 -135 6 0 25 21 41 48 103
168 114 182 155 202 24 11 51 30 61 41 29 32 27 8 -5 -73z m426 -60 c50 -39
72 -65 89 -104 32 -73 59 -90 30 -19 -8 19 -11 37 -6 40 16 10 38 -24 44 -68
4 -25 16 -53 26 -62 11 -10 24 -33 31 -52 15 -46 34 -37 36 18 1 24 2 53 2 64
1 14 4 16 12 8 10 -10 30 -182 23 -192 -9 -11 -291 204 -366 280 -95 97 -109
121 -83 149 13 15 16 28 10 57 l-7 37 47 -52 c25 -28 76 -75 112 -104z m-2447
87 c35 -18 66 -54 84 -97 22 -52 33 -54 71 -16 48 50 155 76 155 38 0 -13 -33
-27 -82 -35 -49 -8 -131 -95 -126 -134 3 -24 7 -26 46 -24 23 1 42 -1 42 -4 0
-3 -18 -25 -40 -51 -72 -81 -148 -262 -111 -262 16 0 31 27 47 81 20 70 53
119 80 119 11 0 33 14 49 30 32 34 72 42 60 13 -18 -49 6 -48 81 3 28 19 55
34 59 34 5 0 -23 -33 -62 -72 -75 -76 -106 -130 -118 -208 -7 -44 -8 -44 -23
-22 -23 35 -38 27 -71 -40 -54 -108 -39 -162 64 -226 36 -23 65 -46 65 -51 0
-5 -19 -14 -42 -18 l-43 -9 -3 -62 c-2 -34 -7 -62 -11 -62 -21 0 -99 233 -108
320 -11 112 -40 118 -124 29 -33 -36 -61 -59 -68 -55 -6 4 -11 29 -11 55 0 37
7 56 31 89 34 46 72 136 62 146 -14 13 -40 5 -76 -25 -42 -35 -57 -31 -57 13
0 32 20 55 135 152 32 28 53 52 47 54 -6 2 -22 -4 -34 -12 -30 -21 -38 -20
-38 4 0 11 -11 27 -25 36 -20 13 -31 14 -56 5 -45 -15 -49 -14 -49 13 0 15 19
45 50 79 64 70 64 81 3 72 -84 -11 -110 38 -45 84 56 40 132 46 192 16z m780
-24 c1 -31 28 -92 70 -155 46 -72 52 -119 14 -124 -30 -4 -111 71 -123 115 -9
33 -6 136 5 193 5 24 6 24 20 6 8 -11 14 -27 14 -35z m1816 26 c16 -14 25 -31
23 -42 -4 -17 -8 -15 -42 14 -20 18 -37 37 -37 42 0 16 29 9 56 -14z m-1512
-38 c33 -15 39 -56 25 -171 -13 -107 -28 -158 -49 -169 -26 -14 -145 -48 -149
-43 -9 9 18 228 34 281 29 95 76 130 139 102z m346 -25 c18 -18 50 -167 50
-235 l0 -26 -147 -5 c-98 -3 -153 -1 -162 6 -11 8 -12 30 -7 103 3 51 12 109
19 130 15 46 37 53 150 49 61 -2 82 -7 97 -22z m874 -83 c90 -106 124 -135
325 -275 162 -114 203 -136 232 -129 28 8 56 77 78 196 22 113 30 135 55 157
14 11 16 9 16 -14 0 -37 -68 -371 -82 -401 -6 -13 -20 -27 -30 -31 -40 -12
-220 94 -388 229 -211 170 -300 266 -300 323 0 19 4 34 9 34 5 0 44 -40 85
-89z m916 65 c5 -14 36 -43 69 -65 86 -59 358 -310 382 -353 14 -25 -9 -70
-35 -66 -12 2 -66 59 -130 138 -128 156 -277 310 -283 293 -6 -18 19 -53 157
-218 69 -82 146 -177 170 -209 l45 -59 -55 -48 c-30 -27 -60 -49 -66 -49 -5 0
-20 33 -33 73 -25 78 -201 424 -239 469 -30 36 -56 35 -111 -1 -50 -33 -65
-32 -51 4 26 68 82 115 138 115 25 0 35 -5 42 -24z m-190 -1 c0 -7 -81 -65
-92 -65 -13 0 -9 58 5 63 16 7 87 8 87 2z m-2132 -17 c13 -13 16 -60 5 -71
-11 -12 -53 35 -53 60 0 25 27 32 48 11z m2549 -50 c81 -55 199 -168 176 -168
-11 0 -222 170 -248 200 l-20 23 25 -13 c14 -7 44 -26 67 -42z m-487 -36 c0
-5 -16 -17 -35 -28 -26 -14 -38 -15 -46 -7 -8 8 -4 15 17 27 32 17 64 21 64 8z
m3663 -6 c9 -24 20 -161 12 -154 -9 9 -35 115 -35 146 0 24 15 30 23 8z
m-4434 -129 c60 -154 141 -397 141 -423 0 -13 -7 -25 -17 -28 -61 -19 -273
-34 -273 -20 0 4 13 30 29 58 81 142 113 390 65 510 -5 13 -4 17 4 12 6 -3 29
-52 51 -109z m459 76 c-5 -25 -28 -28 -28 -4 0 12 6 21 16 21 9 0 14 -7 12
-17z m253 -125 c-17 -123 -48 -170 -70 -107 -6 18 -11 64 -10 103 1 61 2 66
10 39 14 -47 27 -49 35 -6 4 21 11 49 16 63 9 24 10 24 20 6 8 -14 7 -42 -1
-98z m3647 40 c9 -35 4 -65 -9 -51 -4 4 -11 25 -14 46 -9 47 11 51 23 5z m57
-30 c5 -24 3 -38 -3 -38 -14 0 -22 25 -22 68 1 44 14 27 25 -30z m-5770 1 c17
-31 34 -163 35 -253 l0 -49 -126 7 c-136 8 -154 11 -154 31 0 8 29 51 64 97
35 47 80 110 100 141 20 31 43 57 51 57 8 0 22 -14 30 -31z m1577 -19 c98 -79
270 -197 337 -232 66 -34 67 -44 10 -74 -36 -18 -158 -44 -209 -44 -53 0 -67
21 -125 187 -26 76 -56 155 -66 176 -11 20 -17 37 -14 37 3 0 33 -23 67 -50z
m-1713 14 c7 -6 -67 -109 -116 -161 l-44 -48 -22 25 c-29 33 -73 161 -64 185
7 16 17 17 125 10 64 -3 119 -9 121 -11z m691 -25 c46 -5 86 -11 87 -13 2 -1
-2 -72 -7 -157 -12 -182 -12 -183 -107 -177 -80 5 -101 24 -142 129 -55 139
-52 199 12 218 44 13 60 13 157 0z m4679 -139 c-8 -124 -26 -260 -34 -269 -3
-2 -15 1 -28 7 -12 6 -35 13 -52 14 -28 3 -30 6 -33 47 -3 42 22 144 65 260
18 51 33 39 26 -23 -6 -47 -38 -192 -49 -220 -5 -14 -4 -17 4 -12 21 13 40 60
56 141 9 44 21 106 27 138 19 91 26 54 18 -83z m-5640 108 c5 -13 14 -41 20
-63 29 -107 122 -204 195 -205 l31 -1 -30 -17 c-24 -13 -51 -17 -132 -15 -129
2 -141 -7 -94 -72 l32 -45 -20 -34 c-52 -84 -3 -229 90 -264 38 -15 49 -2 56
64 3 32 10 65 16 72 5 6 31 12 57 12 27 0 73 10 104 21 31 12 59 19 63 15 4
-3 -3 -19 -15 -35 -11 -15 -27 -44 -35 -63 -8 -20 -27 -44 -42 -54 -62 -44
-65 -49 -65 -131 0 -89 -14 -124 -53 -137 -56 -20 -180 36 -222 101 -10 15
-19 46 -20 69 -2 49 -10 64 -34 64 -42 0 -141 97 -141 138 0 14 8 18 63 27 27
4 41 13 49 30 15 33 -6 64 -65 93 -25 12 -59 38 -76 58 l-31 34 20 51 c10 28
22 54 25 57 4 4 24 -3 45 -16 21 -12 43 -22 49 -22 5 0 10 26 9 58 -1 73 25
133 82 190 49 48 57 51 69 20z m3330 7 c37 -18 81 -71 81 -95 0 -36 -22 -32
-67 11 -50 49 -67 75 -58 89 8 13 11 13 44 -5z m-2636 -50 c5 -34 67 -241 94
-311 4 -12 -294 -120 -305 -110 -4 4 -7 90 -7 191 0 163 2 186 18 202 15 16
153 70 183 72 6 1 14 -19 17 -44z m2191 -43 c-1 -38 -12 -84 -33 -137 -47
-122 -46 -124 57 -193 95 -64 117 -85 107 -102 -11 -18 -40 -11 -135 35 -51
25 -94 44 -96 43 -1 -2 -11 -24 -22 -48 -11 -25 -30 -56 -42 -70 -12 -14 -40
-60 -61 -102 -22 -43 -45 -78 -52 -78 -6 0 -22 -3 -34 -6 -14 -4 -23 -2 -23 5
0 7 34 69 75 139 108 180 108 189 18 228 -32 14 -73 32 -90 39 -18 8 -33 18
-33 23 0 4 12 22 28 40 l27 33 60 -41 c100 -67 107 -62 165 115 18 55 39 113
47 129 21 42 38 18 37 -52z m2814 -149 l-3 -168 -29 -3 c-15 -2 -26 1 -22 6 3
5 10 60 16 123 15 168 21 209 31 209 6 0 8 -69 7 -167z m592 -37 c-1 -20 -2
-19 -24 6 -32 36 -68 135 -60 161 5 17 14 5 45 -62 22 -46 39 -93 39 -105z
m-104 92 c6 -24 17 -57 25 -75 15 -37 7 -52 -17 -32 -24 20 -44 72 -44 114 0
49 23 45 36 -7z m-390 2 c46 0 49 -34 19 -164 -27 -114 -45 -142 -59 -93 -11
37 -19 232 -12 263 7 25 9 26 17 11 6 -9 21 -17 35 -17z m319 -47 c19 -38 45
-80 57 -96 18 -22 20 -29 9 -40 -10 -10 -15 -9 -22 3 -5 8 -26 42 -46 75 -19
33 -44 75 -55 93 l-20 32 21 0 c16 0 30 -17 56 -67z m-2757 41 c45 -31 11 -88
-49 -82 -27 2 -36 9 -44 32 -8 24 -6 31 14 47 28 23 49 24 79 3z m-2953 -105
c15 -15 -23 -11 -55 6 -17 9 -30 17 -30 19 0 7 74 -15 85 -25z m3188 -29 c31
-61 36 -133 11 -168 -22 -32 -40 -27 -71 19 -21 32 -27 53 -27 93 0 55 27 120
47 114 7 -2 24 -28 40 -58z m-346 14 c9 -24 -6 -43 -76 -96 -64 -50 -97 -59
-108 -32 -9 24 17 63 72 105 54 41 101 51 112 23z m147 -148 c-38 -76 -65
-139 -61 -148 3 -9 55 -46 116 -83 177 -106 208 -145 141 -180 -30 -16 -40
-11 -40 17 0 10 -4 18 -9 18 -6 0 -45 26 -88 59 -43 32 -88 61 -101 65 -12 4
-27 16 -32 27 -6 10 -17 19 -24 19 -8 0 -49 -52 -91 -115 -72 -108 -97 -135
-126 -135 -22 0 0 59 57 156 l57 95 -36 37 c-39 40 -45 60 -25 80 15 15 43 15
84 0 41 -15 47 -10 122 96 72 103 115 152 120 137 2 -7 -26 -72 -64 -145z
m2922 -118 c-3 -145 -10 -285 -15 -313 -7 -39 -6 -54 5 -66 20 -22 17 -57 -5
-69 -26 -13 -131 -13 -131 0 0 6 11 32 25 58 14 26 25 54 26 62 0 8 5 -1 11
-20 8 -28 11 -31 19 -18 29 53 42 369 18 476 -17 83 -32 54 -25 -47 7 -84 2
-121 -14 -121 -27 0 -42 188 -19 247 12 32 26 43 55 43 12 0 27 7 34 15 7 8
15 15 18 15 3 0 2 -118 -2 -262z m-5953 233 c8 -8 -5 -11 -45 -11 -62 0 -88 7
-88 22 0 14 118 4 133 -11z m-163 -21 c9 -16 21 -20 68 -20 78 0 98 -14 50
-35 -21 -8 -44 -15 -52 -15 -21 0 -31 -21 -15 -30 7 -5 35 -6 61 -3 44 5 48 4
48 -16 0 -35 -75 -64 -158 -59 l-66 3 -12 -55 c-22 -105 -38 -115 -79 -47 -37
64 -43 128 -16 163 24 31 27 72 6 100 -8 10 -15 22 -15 27 0 4 38 7 85 7 74 0
86 -2 95 -20z m-601 -76 c11 -14 30 -55 42 -92 29 -91 44 -117 92 -169 47 -51
84 -73 124 -73 39 0 49 -10 58 -50 4 -19 16 -52 28 -72 11 -21 18 -40 15 -44
-4 -3 -24 6 -45 20 -45 31 -69 34 -58 9 4 -10 11 -34 14 -53 5 -25 14 -39 36
-50 l30 -15 -60 -6 c-77 -8 -168 -34 -224 -65 -57 -32 -71 -31 -71 5 0 66 88
141 167 141 23 0 45 5 48 11 11 17 -26 149 -50 177 l-23 27 -48 -18 c-52 -19
-64 -16 -46 13 7 11 17 28 24 39 16 26 3 51 -25 51 -13 0 -44 -13 -68 -30 -44
-30 -69 -37 -69 -21 0 5 7 14 15 21 9 7 14 20 13 29 -3 13 -18 16 -76 17 -73
0 -113 18 -98 43 9 15 73 31 123 31 49 0 63 17 63 75 0 72 32 95 69 49z m5985
2 c22 -14 57 -26 94 -30 88 -10 100 -28 143 -219 24 -107 36 -142 66 -185 20
-29 34 -54 32 -57 -8 -8 -242 94 -265 116 -29 27 -137 243 -153 306 -14 51 -1
93 28 93 11 0 36 -11 55 -24z m566 -22 c16 -41 12 -89 -9 -108 -33 -30 -245
-59 -278 -38 -15 10 -33 96 -23 112 6 10 223 56 278 59 16 1 25 -7 32 -25z
m-5133 -41 c43 -93 42 -250 -2 -267 -7 -2 -27 0 -43 6 -39 15 -61 5 -68 -32
-7 -34 -65 -90 -94 -90 -23 0 -50 26 -50 48 0 10 9 34 20 55 28 52 26 57 -24
57 -85 0 -80 58 10 105 40 22 40 22 58 128 12 66 25 40 19 -38 -3 -41 -3 -75
1 -75 4 0 18 24 31 53 17 37 24 45 24 29 1 -13 6 -33 12 -44 9 -17 13 -18 20
-7 5 8 9 25 9 38 0 25 0 25 35 -9 19 -18 37 -32 39 -29 3 2 -3 23 -13 45 -29
63 -34 84 -21 84 6 0 23 -25 37 -57z m1400 51 c27 -7 43 -55 43 -127 0 -26 7
-77 16 -113 15 -58 15 -67 2 -81 -19 -18 -282 -43 -298 -27 -21 21 -70 304
-53 304 4 0 60 11 123 25 128 26 136 27 167 19z m1320 -66 c40 -43 53 -69 53
-108 0 -38 -39 -117 -75 -150 -22 -21 -28 -22 -35 -10 -5 8 -10 23 -10 33 0
11 -9 50 -21 87 -17 56 -18 73 -9 92 18 35 54 88 61 88 3 0 19 -15 36 -32z
m-1788 -42 c14 -17 51 -185 51 -233 0 -17 -5 -35 -10 -38 -15 -9 -159 -23
-324 -31 l-143 -7 -22 82 c-27 98 -45 200 -38 207 5 6 323 30 418 33 38 1 60
-4 68 -13z m-1549 -78 c-3 -65 -1 -71 15 -64 11 4 15 -2 15 -25 0 -41 24 -33
28 9 3 32 17 43 24 20 5 -15 28 -1 28 17 0 8 5 26 11 42 9 25 11 26 21 10 7
-13 6 -38 -1 -80 -7 -40 -7 -65 -1 -71 6 -6 10 -7 10 -3 0 20 63 -28 78 -59
16 -34 16 -36 -3 -50 -16 -12 -22 -12 -43 2 -27 18 -66 12 -94 -13 -25 -22
-23 -33 17 -89 40 -57 43 -72 15 -102 -45 -47 -97 -20 -139 73 -40 87 -77 105
-96 45 l-8 -25 -13 30 c-7 17 -13 35 -14 42 0 21 31 43 61 43 l29 0 -35 46
c-45 59 -44 78 4 110 38 25 53 49 67 107 10 42 26 32 24 -15z m5780 17 c0 -8
-7 -15 -15 -15 -8 0 -15 7 -15 15 0 8 7 15 15 15 8 0 15 -7 15 -15z m-42 -145
c14 -84 16 -124 9 -152 -9 -37 -42 -77 -53 -65 -12 12 -52 181 -46 195 8 23
32 -15 33 -52 0 -17 5 -40 10 -51 10 -22 4 184 -7 245 l-6 35 20 -20 c16 -15
26 -49 40 -135z m-84 121 c4 -5 1 -22 -4 -37 -14 -35 -34 -18 -24 20 6 26 18
33 28 17z m-164 -47 c0 -14 -5 -35 -11 -46 -9 -17 -13 -18 -20 -7 -12 20 -11
63 3 77 16 16 28 5 28 -24z m111 -59 c21 -82 22 -186 2 -192 -16 -6 -76 49
-98 90 -18 34 -15 87 5 87 5 0 23 -27 41 -60 55 -104 64 -64 13 60 -27 68 -29
81 -12 98 18 18 27 2 49 -83z m-2983 -14 c-4 -114 -19 -137 -109 -168 -35 -12
-67 -19 -71 -15 -15 15 -41 183 -30 194 10 10 186 76 205 77 5 1 7 -39 5 -88z
m3159 -28 c-2 -16 -4 -5 -4 22 0 28 2 40 4 28 2 -13 2 -35 0 -50z m70 0 c-2
-16 -4 -5 -4 22 0 28 2 40 4 28 2 -13 2 -35 0 -50z m-3514 3 c13 -34 19 -174
8 -194 -12 -23 -160 -76 -174 -63 -8 8 -28 195 -23 225 3 23 4 24 81 35 89 13
102 12 108 -3z m2598 -26 c57 -6 151 -21 209 -34 122 -28 350 -110 383 -137
21 -19 21 -20 3 -32 -10 -7 -59 -41 -109 -76 l-89 -63 -37 20 c-131 74 -653
151 -944 139 -149 -5 -251 -29 -512 -116 -194 -64 -292 -106 -439 -186 -66
-35 -122 -63 -124 -61 -7 7 181 158 265 213 380 248 931 379 1394 333z m-2825
-46 c11 -57 -2 -174 -26 -244 -38 -113 -196 -408 -236 -441 -19 -15 -68 17
-269 178 -188 150 -340 286 -382 342 -37 48 -46 114 -17 125 56 22 142 -16
244 -109 110 -100 262 -225 273 -225 14 0 0 124 -29 242 -14 56 -23 107 -20
114 2 6 26 15 51 19 26 3 53 9 60 11 15 6 41 -124 51 -246 8 -108 11 -120 35
-120 15 0 26 13 40 48 73 174 173 342 204 342 8 0 17 -14 21 -36z m814 -108
l125 -11 -3 -35 c-12 -120 -104 -201 -308 -268 -164 -54 -174 -53 -149 18 8
24 26 99 40 168 14 69 29 130 35 137 10 12 37 11 260 -9z m2726 -86 c-38 -178
-112 -270 -310 -384 l-49 -28 5 73 c7 108 56 189 164 271 99 75 83 21 -29 -99
-69 -75 -97 -117 -83 -130 22 -22 141 121 198 236 44 90 111 176 116 149 2 -8
-4 -48 -12 -88z m-5983 66 c79 -32 82 -40 12 -32 -61 7 -110 30 -100 46 9 15
24 12 88 -14z m6391 -37 c27 -32 34 -76 16 -108 -12 -23 -90 -55 -102 -43 -7
7 5 127 18 170 6 22 42 13 68 -19z m-3474 1 c44 -44 12 -140 -72 -215 -28 -25
-56 -44 -62 -42 -7 2 -12 45 -14 114 l-3 110 58 26 c70 32 68 32 93 7z m-2820
-34 c0 -8 -23 -42 -50 -75 -28 -33 -55 -72 -60 -86 -13 -35 -13 -104 1 -143
20 -58 4 -59 -47 -4 -27 28 -52 52 -55 52 -3 0 -20 -20 -37 -44 -63 -87 -140
-110 -193 -57 -41 42 -41 102 2 154 17 20 28 41 25 45 -3 5 -27 7 -53 5 -33
-3 -54 0 -68 10 -20 15 -20 16 4 41 29 31 121 63 221 76 132 17 133 16 75 -35
-27 -24 -58 -47 -67 -50 -22 -8 -110 -171 -106 -198 5 -36 32 -26 38 14 9 50
41 91 123 155 40 31 85 70 100 88 15 17 49 39 75 48 59 21 72 22 72 4z m6175
-18 c2 -2 -8 -26 -23 -53 -23 -42 -31 -49 -52 -47 -41 6 -103 37 -144 74 l-39
34 127 -2 c70 -1 129 -4 131 -6z m-1211 -13 c155 -18 380 -62 419 -82 15 -8
30 -20 34 -28 7 -20 -35 -201 -58 -250 -11 -22 -31 -55 -44 -74 -16 -22 -25
-47 -25 -72 0 -45 8 -48 40 -14 12 13 27 22 31 19 5 -3 9 -54 9 -114 0 -139
21 -298 69 -525 67 -316 84 -412 78 -429 -6 -16 -9 -16 -39 0 -84 43 -145 112
-169 192 -6 23 -16 42 -21 42 -12 0 -9 -60 6 -103 13 -35 12 -40 -13 -78 -15
-22 -61 -80 -102 -130 -41 -49 -94 -127 -119 -172 l-45 -82 -47 -3 c-27 -2
-108 10 -185 27 -76 17 -235 46 -354 66 -256 42 -425 86 -612 161 -168 67
-180 74 -492 287 -314 214 -419 292 -435 322 -12 22 -7 36 46 142 49 99 71
131 139 202 99 103 195 181 347 282 284 188 596 333 824 384 202 45 487 57
718 30z m-2365 -9 c8 -9 9 -43 2 -116 -9 -114 -14 -122 -99 -167 -32 -17 -34
-17 -46 -1 -12 16 -42 255 -34 263 7 7 114 33 139 34 15 1 32 -5 38 -13z
m3383 -69 c31 -16 76 -31 100 -34 55 -7 73 -24 94 -87 9 -28 34 -87 54 -132
l37 -81 -68 -62 c-196 -178 -198 -461 -4 -738 l46 -65 -25 -222 c-14 -121 -29
-266 -32 -320 -10 -146 -38 -165 -131 -90 -22 19 -50 53 -61 76 -23 47 -42
165 -43 261 0 77 -12 146 -22 130 -4 -6 -12 -69 -18 -140 -17 -209 -11 -193
-70 -193 l-51 0 7 148 c4 81 10 210 14 287 l7 140 56 130 c90 209 94 274 29
403 -16 32 -40 85 -54 119 -14 34 -46 91 -71 126 -25 36 -46 74 -46 86 0 12
23 49 50 82 28 33 69 94 91 135 23 41 44 74 48 72 3 -2 32 -16 63 -31z m299
-89 c22 -25 105 -136 129 -174 13 -20 12 -25 -4 -43 -30 -33 -64 -26 -111 23
-44 45 -75 116 -75 171 0 51 26 61 61 23z m-781 -20 c-1 -47 -59 -143 -76
-125 -3 3 1 28 10 54 27 80 66 122 66 71z m-2341 -30 c-7 -13 -27 -47 -46 -76
-43 -67 -113 -206 -122 -240 -5 -17 -15 -28 -29 -30 -23 -4 -136 30 -184 55
-35 17 -36 43 -4 143 l24 75 168 47 c201 55 209 57 193 26z m2565 -205 c50
-81 48 -94 -23 -132 -71 -37 -81 -38 -110 -7 -34 36 -22 81 35 145 25 28 50
51 54 51 5 0 25 -26 44 -57z m-3304 7 c10 -20 30 -239 29 -325 l-1 -40 -13 30
c-16 37 -65 271 -65 313 0 27 9 39 32 41 4 1 12 -8 18 -19z m-669 -15 l50 -26
-47 -67 c-90 -127 -286 -377 -467 -595 -150 -180 -169 -209 -164 -240 3 -24
-1 -31 -22 -39 -25 -9 -112 -5 -145 8 -24 9 -19 55 11 99 15 22 104 135 198
250 94 116 244 301 333 412 138 172 182 221 200 223 1 0 25 -11 53 -25z m3779
4 c9 -16 7 -29 -9 -61 l-19 -40 -7 46 c-11 69 10 102 35 55z m-76 -37 c3 -15
15 -112 26 -217 12 -104 34 -246 50 -315 37 -161 91 -423 97 -476 5 -43 -12
-69 -36 -55 -7 5 -30 91 -51 192 -21 101 -48 225 -60 274 -21 91 -70 474 -70
553 0 74 31 106 44 44z m-3142 1 c16 -18 48 -103 48 -127 0 -31 55 -201 117
-361 169 -438 197 -530 288 -955 37 -168 68 -313 71 -322 3 -10 -4 -25 -16
-35 -24 -20 -146 -72 -172 -73 -21 0 -17 -12 -107 376 -39 164 -83 355 -100
424 -16 69 -33 148 -37 175 -3 28 -12 56 -18 64 -7 9 -11 67 -12 155 -1 181
-28 341 -90 539 -23 76 -31 137 -17 150 11 12 29 8 45 -10z m3970 -64 c-4 -32
-34 -92 -49 -97 -24 -7 -16 79 9 105 26 28 44 25 40 -8z m-3390 -66 c43 -41
55 -113 34 -204 -9 -41 -27 -98 -41 -126 -28 -62 -49 -67 -102 -27 -58 44 -78
112 -38 128 19 7 20 36 1 36 -7 0 -30 -7 -49 -15 -20 -8 -41 -15 -47 -15 -29
0 9 118 61 192 27 37 95 70 129 62 14 -3 37 -17 52 -31z m3482 2 c15 20 15 19
16 -6 0 -15 -8 -37 -18 -49 -16 -19 -22 -21 -40 -11 -18 10 -22 21 -22 59 l0
47 24 -30 c24 -30 25 -30 40 -10z m-571 -25 c16 -13 24 -27 20 -36 -3 -8 -45
-35 -94 -59 -127 -64 -134 -90 -10 -39 39 15 77 24 100 22 34 -3 36 -5 39 -39
l3 -36 -48 4 c-94 8 -161 -57 -94 -91 16 -9 50 -16 74 -16 28 0 53 -7 67 -18
20 -17 22 -22 11 -53 -6 -19 -30 -66 -52 -104 -60 -103 -68 -131 -78 -302 -9
-150 -19 -189 -41 -167 -14 14 -95 338 -110 439 -7 44 -23 134 -36 200 -29
147 -38 226 -30 258 6 24 8 25 68 20 50 -4 73 0 108 16 57 26 71 26 103 1z
m351 -52 c-3 -13 -13 -39 -22 -58 -14 -32 -16 -33 -19 -12 -6 32 16 92 33 92
11 0 13 -6 8 -22z m64 -30 c4 -33 -24 -102 -38 -93 -13 8 -13 66 0 100 12 32
34 28 38 -7z m-4058 -3 c65 -33 63 -81 -5 -144 -56 -51 -90 -54 -140 -10 -50
44 -47 107 9 151 26 22 97 23 136 3z m4180 -19 c0 -28 -23 -76 -36 -76 -18 0
-18 24 1 60 16 31 35 40 35 16z m-191 -190 c22 -20 22 -20 28 2 3 12 9 22 14
22 11 0 12 -97 1 -104 -4 -2 -22 2 -40 10 -37 15 -57 53 -66 129 l-7 50 25
-45 c13 -25 34 -54 45 -64z m188 39 c-7 -51 -27 -96 -38 -89 -15 9 -10 98 7
122 23 33 37 17 31 -33z m-78 -22 c-1 -21 -4 -51 -8 -68 -11 -48 -23 -3 -15
56 8 58 25 66 23 12z m-4254 -19 c30 -40 35 -55 35 -99 0 -44 -10 -72 -68
-186 -37 -74 -85 -161 -108 -194 -22 -33 -58 -89 -79 -125 -44 -75 -73 -110
-91 -110 -7 0 -27 12 -45 27 -40 34 -209 259 -209 278 0 16 3 18 129 91 88 52
232 181 331 298 30 35 58 65 62 65 4 1 23 -20 43 -45z m159 -52 c29 -57 79
-199 102 -284 15 -62 15 -63 -6 -80 -12 -10 -26 -18 -31 -18 -17 0 -125 399
-115 426 8 22 23 9 50 -44z m568 -4 c43 -54 108 -150 108 -161 0 -14 -53 -3
-60 13 -15 33 -48 97 -74 143 -34 58 -20 61 26 5z m3473 -123 c6 -30 5 -37 -4
-29 -7 6 -14 28 -18 50 -8 53 13 33 22 -21z m73 -7 c22 -51 13 -74 -13 -34
-18 28 -34 107 -17 91 5 -5 19 -31 30 -57z m-3582 -86 c76 -87 86 -123 15 -60
-20 19 -51 43 -68 53 -35 21 -67 70 -59 90 9 24 33 6 112 -83z m29 83 l30 -13
-31 -1 c-17 -1 -37 6 -44 14 -16 20 3 20 45 0z m205 -85 c22 -11 47 -20 57
-20 10 0 34 -10 53 -22 31 -20 33 -23 13 -26 -21 -3 -156 59 -168 78 -9 15 1
12 45 -10z m3382 -27 c9 -8 18 -23 21 -34 9 -32 -26 -22 -92 27 -2 2 -1 10 3
19 7 18 40 13 68 -12z m-4244 -13 c2 -12 -4 -40 -13 -61 -17 -37 -17 -39 1
-65 54 -76 55 -79 51 -124 -5 -47 -86 -217 -157 -327 -28 -45 -46 -63 -60 -63
-26 0 -150 127 -150 154 0 10 28 64 63 120 35 55 92 153 126 216 97 176 130
212 139 150z m257 -11 c8 -23 1 -34 -14 -24 -13 8 -15 45 -2 45 5 0 13 -9 16
-21z m622 -6 c3 -10 17 -46 30 -81 14 -35 22 -66 19 -69 -6 -7 -76 135 -76
154 0 19 20 16 27 -4z m-847 -78 c0 -14 -4 -25 -9 -25 -12 0 -23 29 -15 41 10
18 24 9 24 -16z m630 -47 c0 -5 -5 -8 -11 -8 -14 0 -69 55 -69 70 0 12 80 -50
80 -62z m507 9 c15 -13 55 -42 88 -64 81 -55 88 -64 69 -91 -8 -12 -23 -22
-33 -22 -22 0 -178 134 -186 160 -14 44 19 52 62 17z m-348 -16 c54 -35 117
-98 108 -107 -9 -10 -74 37 -127 91 -51 52 -45 57 19 16z m-1463 -55 c95 -98
134 -156 134 -198 0 -42 -28 -87 -169 -271 -59 -78 -150 -200 -201 -272 -51
-71 -122 -165 -157 -208 -69 -85 -78 -107 -71 -172 15 -133 161 -293 430 -471
140 -93 135 -84 86 -165 -41 -67 -98 -194 -98 -218 0 -29 -41 -54 -76 -45 -46
11 -97 40 -124 69 -14 16 -62 52 -108 82 -118 77 -248 200 -424 402 l-47 55
-20 -26 c-11 -13 -58 -76 -104 -139 -204 -280 -478 -617 -592 -729 l-75 -75
-210 -3 c-136 -3 -210 -1 -210 6 0 38 371 509 690 877 242 279 300 352 300
378 0 12 -24 58 -53 102 -213 319 -477 784 -477 842 0 38 31 45 240 50 l197 6
65 -124 c118 -226 303 -509 333 -509 38 0 222 202 333 365 33 50 90 131 126
180 36 50 88 131 116 182 71 128 71 128 166 29z m993 -303 c45 -182 104 -429
131 -549 28 -119 97 -404 154 -633 58 -229 112 -454 121 -500 20 -97 17 -103
-55 -115 -58 -9 -87 6 -99 51 -29 112 -388 1555 -440 1771 -63 262 -68 287
-51 297 24 15 145 31 151 21 4 -6 43 -160 88 -343z m442 242 c40 -30 76 -55
81 -55 15 0 8 -25 -15 -53 l-22 -28 -40 51 c-86 111 -95 123 -95 131 0 18 20
8 91 -46z m320 16 c24 -17 66 -49 93 -73 40 -36 47 -48 42 -66 -10 -30 -40
-28 -102 8 -56 31 -124 103 -124 130 0 40 32 40 91 1z m-307 -153 l97 -106
-58 -86 c-32 -47 -61 -85 -64 -86 -3 0 -29 89 -58 198 -29 108 -55 206 -58
217 -6 24 -4 22 141 -137z m718 23 c59 -36 108 -71 108 -76 1 -64 -148 -32
-239 50 -42 38 -52 70 -29 93 17 17 39 8 160 -67z m1831 27 c31 -24 55 -46 54
-50 -7 -24 -352 -278 -378 -278 -59 0 26 156 160 292 42 43 84 78 92 78 8 0
41 -19 72 -42z m-5619 3 c7 -10 -62 -246 -128 -436 -24 -71 -54 -179 -66 -240
-24 -118 -40 -159 -65 -169 -9 -3 -40 -6 -68 -6 -56 0 -160 -15 -354 -50 -68
-12 -130 -19 -139 -16 -13 5 -15 15 -11 49 11 78 79 301 139 452 121 308 116
299 206 334 157 62 467 114 486 82z m5896 -40 c16 -16 32 -40 36 -55 9 -38 -3
-74 -36 -107 -95 -96 -202 69 -108 168 30 32 72 30 108 -6z m-3450 -381 c50
-201 90 -376 88 -390 -3 -22 -11 -15 -78 65 -41 50 -110 128 -153 175 -129
138 -168 209 -148 262 5 14 49 85 97 159 74 114 88 131 95 114 5 -11 50 -184
99 -385z m928 339 c50 -95 137 -162 231 -178 36 -6 72 -18 80 -26 14 -13 14
-15 0 -15 -9 0 -38 7 -65 15 -47 14 -50 14 -66 -6 -25 -30 -23 -39 17 -84 37
-41 86 -109 99 -135 8 -17 -68 66 -146 160 -50 60 -62 68 -163 112 -101 44
-167 89 -153 103 3 3 34 -5 69 -19 108 -45 124 -34 79 53 -33 67 -35 74 -18
69 7 -3 23 -24 36 -49z m325 -61 c60 -34 113 -70 118 -79 6 -12 3 -24 -11 -41
l-19 -23 -75 38 c-117 60 -188 131 -159 160 14 15 42 4 146 -55z m312 -2 c28
-13 73 -46 100 -73 28 -26 72 -59 97 -73 l47 -24 108 22 c59 12 115 22 123 22
25 0 -2 -17 -55 -34 -56 -18 -95 -42 -95 -57 0 -6 25 -37 57 -70 31 -32 53
-59 49 -59 -4 0 -47 26 -94 59 -48 32 -93 62 -101 66 -8 5 -92 13 -185 19
-182 12 -229 29 -91 34 92 2 125 8 125 22 0 5 -36 39 -80 76 -107 88 -109 120
-5 70z m1645 -55 c-5 -11 -56 -57 -113 -102 -56 -45 -121 -100 -144 -123 -31
-29 -46 -37 -54 -29 -18 18 5 47 98 120 49 39 117 95 153 126 44 39 66 53 68
43 2 -8 -2 -24 -8 -35z m181 -93 c17 -29 20 -46 17 -133 -4 -114 -26 -173 -71
-189 -43 -15 -57 6 -57 83 0 82 25 237 41 257 19 23 48 16 70 -18z m343 -42
c55 -56 84 -78 125 -92 l53 -19 -4 -186 c-3 -210 -7 -220 -80 -239 -67 -19
-158 18 -158 62 0 11 -13 33 -30 49 -24 25 -33 28 -49 19 -28 -15 -48 -12 -55
7 -4 9 -13 84 -21 167 -8 83 -20 180 -25 215 -14 85 -9 91 92 91 l79 0 73 -74z
m-7054 55 c0 -5 -22 -60 -48 -123 -65 -150 -104 -259 -143 -393 -34 -119 -56
-171 -85 -196 -11 -9 -80 -33 -154 -54 -74 -20 -185 -52 -247 -70 -62 -18
-114 -31 -117 -28 -6 6 83 187 122 247 99 154 240 302 448 467 66 52 137 109
159 127 40 31 65 40 65 23z m5782 -37 c11 -7 10 -47 -2 -80 -10 -26 -12 -27
-73 -21 -101 10 -166 27 -195 53 l-27 24 25 21 c24 20 32 21 144 15 66 -4 123
-9 128 -12z m244 -44 c93 -13 154 -32 154 -49 0 -27 -54 -45 -129 -46 -89 0
-145 17 -167 50 -23 36 -10 69 25 62 15 -3 68 -11 117 -17z m-1202 -31 c100
-37 149 -91 114 -126 -14 -13 -24 -11 -94 17 -148 58 -192 95 -149 126 20 15
57 10 129 -17z m-458 -69 c115 -96 503 -255 674 -276 101 -12 107 -26 62 -127
-56 -123 -224 -423 -254 -454 -63 -65 -131 -67 -254 -9 -143 68 -465 307 -531
394 -56 74 -50 101 65 292 105 176 139 220 170 220 11 0 42 -18 68 -40z m1301
-31 c34 -6 70 -17 80 -25 17 -13 17 -15 -2 -30 -15 -11 -32 -14 -65 -9 -92 12
-195 38 -210 52 -37 34 45 40 197 12z m-462 -29 c178 -37 220 -57 181 -89 -17
-14 -56 -10 -215 20 -124 24 -161 40 -161 73 0 28 9 38 29 32 9 -3 83 -19 166
-36z m-427 -11 c59 -23 115 -49 126 -59 18 -17 18 -18 -4 -40 -19 -19 -30 -22
-76 -17 -123 13 -238 99 -192 145 18 18 30 16 146 -29z m1227 -5 c60 -9 120
-20 133 -25 21 -8 22 -12 11 -26 -12 -14 -30 -15 -132 -9 -131 7 -157 15 -157
51 0 30 0 30 145 9z m-472 -40 c18 -9 48 -30 68 -45 20 -16 42 -29 49 -29 7 0
25 -11 42 -25 36 -31 60 -31 206 -4 62 11 130 19 150 17 l37 -3 -60 -23 c-107
-42 -109 -55 -21 -111 69 -43 87 -61 61 -61 -19 0 -131 55 -193 94 -22 14 -51
28 -64 31 -14 4 -86 -6 -160 -20 -75 -14 -155 -25 -179 -23 -42 3 -39 4 61 33
67 20 106 36 108 45 1 9 -31 38 -78 70 -44 30 -80 58 -80 63 0 11 18 8 53 -9z
m-336 -80 c73 -13 137 -24 142 -24 15 0 41 -30 41 -46 0 -8 -15 -21 -34 -29
-29 -13 -40 -13 -78 0 -23 8 -86 21 -138 30 -158 26 -174 36 -154 90 7 18 3
19 221 -21z m-1907 -111 c40 -50 53 -101 48 -195 -4 -61 -11 -89 -35 -135 -17
-32 -53 -101 -80 -154 -167 -322 -366 -950 -388 -1224 -11 -138 -23 -146 -82
-57 -40 60 -41 60 -118 46 -54 -9 -63 -19 -97 -93 l-29 -64 26 -37 c14 -20 25
-41 25 -47 0 -19 18 -25 40 -13 15 8 25 7 44 -5 24 -16 38 -13 109 23 4 2 4
-27 1 -66 -5 -56 -3 -74 11 -96 16 -23 17 -43 12 -149 -6 -136 -42 -346 -83
-482 -15 -49 -35 -126 -44 -171 -9 -45 -23 -90 -31 -102 -8 -11 -71 -65 -140
-120 -404 -320 -706 -721 -926 -1229 l-31 -72 -69 -19 c-105 -31 -208 -52
-252 -52 l-40 0 36 53 c101 150 209 434 264 694 11 54 26 162 33 240 14 162
-2 131 167 339 242 300 291 377 391 604 126 284 197 510 239 755 63 372 157
692 270 918 34 69 331 516 406 614 231 296 259 329 285 332 3 1 20 -16 38 -36z
m648 -26 c52 -55 51 -177 -2 -294 -29 -61 -45 -66 -107 -31 -47 26 -61 56 -89
187 -23 108 -21 120 20 121 8 1 31 9 50 20 49 27 101 26 128 -3z m1352 -7 c13
-13 20 -33 20 -57 0 -110 102 -547 135 -582 12 -12 42 -9 212 28 109 23 217
41 241 41 36 0 42 -3 42 -22 0 -26 -141 -167 -225 -225 -33 -22 -100 -73 -148
-112 -111 -90 -174 -132 -312 -211 -252 -144 -589 -391 -800 -587 -77 -71
-238 -233 -357 -360 -254 -268 -384 -388 -673 -620 -282 -226 -277 -223 -290
-183 -3 10 -37 62 -76 115 -38 53 -69 98 -69 100 0 1 44 30 98 63 123 77 203
141 368 297 l132 125 195 0 c229 0 223 -3 214 95 -7 77 -18 100 -56 120 -52
26 -50 69 3 83 19 5 36 18 44 35 16 33 82 84 287 219 88 58 196 136 240 174
98 84 451 431 586 576 l100 106 -35 64 c-41 74 -54 109 -106 278 l-38 125 70
138 c39 76 84 151 99 168 32 34 70 38 99 9z m-1844 -124 c3 -13 4 -37 2 -52
-2 -23 -9 -30 -30 -32 -33 -4 -35 9 -12 68 18 46 31 51 40 16z m16 -148 c25
-39 57 -134 103 -310 l45 -170 -99 -201 c-105 -212 -193 -448 -211 -564 -6
-36 -20 -78 -30 -93 -11 -15 -71 -76 -134 -134 l-114 -107 -72 20 c-39 10 -73
21 -76 23 -2 3 0 29 6 59 5 30 17 105 25 168 51 363 299 1059 434 1213 21 23
46 60 56 81 20 43 45 48 67 15z m-2923 -67 c16 -10 16 -9 -23 -233 -14 -81
-30 -221 -36 -310 -19 -287 -29 -383 -52 -457 -16 -53 -27 -75 -42 -80 -17 -7
-188 -13 -625 -25 -41 -1 -45 1 -53 29 -17 61 30 324 87 486 14 41 51 157 81
259 31 102 62 197 70 211 18 36 43 44 244 75 141 22 301 48 330 53 3 0 11 -3
19 -8z m3309 -48 c12 -23 -3 -63 -23 -63 -10 0 -15 10 -15 33 0 48 21 64 38
30z m146 -99 c60 -45 129 -87 451 -274 88 -51 168 -99 177 -108 16 -14 12 -22
-59 -126 -97 -142 -304 -421 -446 -601 -61 -77 -112 -142 -114 -144 -11 -16
-16 43 -23 316 -9 338 -11 353 -93 686 l-44 178 38 59 c21 33 41 60 45 60 3 0
34 -21 68 -46z m-4346 -42 c2 -20 -16 -93 -47 -185 -50 -153 -121 -406 -161
-573 -12 -49 -25 -97 -30 -105 -12 -19 -84 -16 -340 16 -248 31 -280 39 -280
65 0 24 52 214 78 290 50 140 133 284 192 333 16 14 62 38 102 53 130 50 432
143 458 141 20 -2 26 -8 28 -35z m6562 -65 c0 -28 -40 -128 -98 -248 -33 -68
-65 -148 -71 -177 -14 -66 -44 -127 -74 -147 -24 -16 -82 -12 -93 7 -3 5 2 37
10 72 12 45 16 102 15 193 -3 182 14 223 93 223 18 0 49 10 68 22 105 64 150
80 150 55z m990 -39 c0 -73 95 -190 205 -253 62 -35 85 -54 85 -71 0 -25 -55
-64 -170 -123 -215 -109 -367 -106 -434 9 -43 72 -10 228 60 289 19 17 74 57
122 90 48 32 94 66 101 75 21 25 31 19 31 -16z m-888 -40 c92 -80 135 -141
159 -222 12 -39 34 -107 49 -152 34 -98 72 -314 68 -384 l-3 -51 -119 71 c-65
39 -148 91 -183 115 -35 25 -68 45 -73 45 -12 0 -91 120 -85 130 3 5 -7 18
-22 30 l-27 21 23 72 c13 40 45 120 72 180 27 59 52 128 56 152 3 25 10 45 15
45 5 0 37 -24 70 -52z m-2658 -289 c8 -38 20 -108 27 -156 6 -49 20 -110 30
-138 11 -27 56 -140 101 -250 44 -110 89 -222 99 -248 l19 -48 -59 -61 c-71
-72 -73 -72 -231 -9 -119 48 -194 96 -185 118 36 96 65 296 65 463 1 156 33
337 72 401 19 30 21 32 33 15 7 -9 20 -48 29 -87z m2994 51 c95 -37 139 -71
168 -134 36 -77 32 -101 -19 -134 -68 -42 -144 -75 -161 -69 -8 3 -18 23 -21
44 -11 61 -35 141 -71 236 -19 49 -34 91 -34 94 0 8 63 -8 138 -37z m-1124
-197 c17 -70 17 -77 2 -88 -29 -21 -212 -79 -229 -72 -30 11 -22 69 16 104 34
32 176 133 187 133 3 0 14 -35 24 -77z m423 -108 c101 -18 237 -77 428 -185
135 -76 203 -108 420 -200 132 -56 204 -100 258 -160 63 -70 73 -114 68 -290
-2 -57 2 -90 19 -135 48 -133 58 -192 44 -265 -7 -32 -8 -32 -54 -28 -48 5
-235 88 -279 125 l-24 20 41 58 c23 32 42 62 42 66 0 4 4 19 10 33 8 23 12 24
41 16 18 -5 34 -8 36 -6 7 7 -67 169 -93 203 -22 28 -62 53 -188 113 -89 43
-224 103 -301 135 -77 31 -205 86 -285 121 -244 106 -396 146 -435 114 -26
-22 -17 -30 33 -30 62 0 115 -19 517 -180 444 -178 636 -275 663 -335 17 -36
4 -36 -43 -1 -42 33 -194 101 -350 159 -85 31 -765 247 -778 247 -4 0 -168
-88 -363 -194 l-356 -195 6 39 c14 89 24 97 266 222 233 121 335 186 318 203
-10 11 -38 -1 -139 -62 -119 -71 -356 -193 -375 -193 -18 0 -18 1 59 236 l62
188 46 29 c47 29 319 125 444 157 62 16 75 16 115 4 25 -8 82 -21 127 -29z
m-2057 -6 c21 -39 51 -452 32 -434 -13 12 -113 268 -136 346 -20 67 -14 86 28
98 49 14 64 12 76 -10z m-1513 -51 c-3 -13 -17 -68 -31 -122 -15 -55 -47 -199
-71 -320 -25 -122 -67 -293 -94 -381 -28 -88 -56 -182 -63 -209 -12 -44 -19
-52 -58 -72 -63 -32 -214 -68 -430 -103 -223 -37 -325 -47 -333 -34 -4 6 10
55 29 109 75 209 141 524 174 829 14 122 21 141 62 161 35 16 729 160 787 162
30 2 33 0 28 -20z m1063 -55 c0 -134 -37 -343 -60 -343 -44 0 -25 258 26 366
24 49 34 42 34 -23z m3533 -76 c34 -139 31 -217 -9 -217 -8 0 -63 18 -122 40
-217 82 -235 123 -85 199 l43 21 19 -37 c10 -21 26 -62 35 -92 17 -58 40 -91
63 -91 17 0 14 12 -33 127 -19 45 -34 87 -34 92 0 6 17 19 38 30 33 17 39 18
53 5 9 -9 24 -43 32 -77z m-8027 -7 c13 -13 38 -53 55 -88 33 -70 273 -784
284 -844 4 -21 13 -38 20 -38 45 0 422 312 699 579 257 248 382 349 404 327 4
-4 8 -83 10 -174 l3 -167 -258 -230 c-289 -258 -451 -407 -631 -581 l-122
-119 55 -155 c92 -257 192 -560 214 -647 58 -226 39 -287 -160 -505 -39 -44
-81 -83 -93 -88 -46 -17 -68 30 -96 205 -12 70 -34 175 -49 233 -46 172 -110
409 -143 525 -29 100 -57 157 -78 157 -5 0 -34 -22 -65 -49 -74 -65 -285 -214
-645 -458 -162 -109 -351 -241 -420 -293 -163 -124 -608 -426 -663 -450 -36
-16 -45 -17 -62 -6 -38 25 -41 57 -15 209 12 78 23 174 23 214 l-1 71 152 52
c406 141 616 252 922 491 60 47 165 128 234 179 232 174 411 340 448 417 15
31 14 40 -13 145 -50 200 -115 408 -196 624 l-78 212 16 58 c9 33 23 86 32
119 21 76 25 83 64 94 52 17 124 7 153 -19z m2305 -50 c27 -15 25 -57 -12
-273 -77 -462 -159 -728 -251 -815 -33 -31 -42 -34 -134 -43 -54 -5 -162 -8
-239 -7 l-139 3 -7 40 c-4 22 -8 276 -10 564 l-4 523 235 0 c129 -1 278 3 330
7 142 12 209 12 231 1z m6009 -75 c19 -60 48 -115 86 -162 l34 -41 -32 -7
c-18 -4 -71 -16 -118 -27 l-85 -21 -46 52 c-25 28 -52 62 -59 76 -13 24 -11
27 30 63 68 59 163 123 171 115 3 -5 12 -26 19 -48z m-1361 -247 c57 -118 120
-299 124 -355 l2 -38 -57 -3 c-79 -4 -94 6 -102 70 -10 78 -46 401 -46 416 0
6 7 12 15 12 9 0 35 -41 64 -102z m-3190 36 c29 -36 27 -48 -6 -40 -58 14 -68
12 -71 -15 -4 -36 18 -53 52 -38 20 9 29 9 41 -1 20 -16 19 -19 -16 -60 l-29
-35 -24 30 c-20 24 -27 28 -37 18 -19 -19 -39 -16 -39 6 0 11 -9 27 -21 35
l-21 14 26 35 c14 18 26 38 26 43 0 20 25 34 61 34 29 0 43 -6 58 -26z m682
-15 c75 -56 330 -181 455 -221 l103 -33 1 -59 0 -59 -227 6 c-241 6 -372 22
-468 58 -104 39 -138 87 -110 155 26 64 151 194 186 194 4 0 31 -18 60 -41z
m3074 -129 c98 -39 168 -75 183 -93 7 -8 22 -67 34 -131 20 -112 20 -119 4
-155 -10 -21 -28 -50 -40 -66 l-23 -29 -99 77 c-54 41 -120 97 -145 124 l-46
48 11 115 c11 113 18 140 36 140 5 0 44 -14 85 -30z m-3464 -46 c44 -26 50
-64 15 -99 -21 -21 -34 -25 -85 -25 -33 0 -63 5 -66 10 -3 6 -22 10 -41 10
l-34 0 0 55 c0 41 4 57 18 65 27 17 154 6 193 -16z m2292 -54 c9 -67 5 -715
-5 -726 -11 -11 -58 24 -71 54 -9 19 -12 122 -12 360 l0 334 24 19 c39 31 55
21 64 -41z m-138 -65 c9 -80 2 -731 -7 -741 -4 -4 -50 -13 -102 -21 -115 -17
-227 -53 -268 -88 -17 -14 -35 -22 -39 -18 -4 4 12 73 37 153 25 80 77 253
115 385 86 297 97 320 169 363 80 47 87 45 95 -33z m1772 -67 c-3 -7 -5 -2 -5
12 0 14 2 19 5 13 2 -7 2 -19 0 -25z m-512 -130 c169 -177 160 -161 139 -247
-13 -55 -21 -71 -35 -71 -29 0 -190 114 -252 179 -64 67 -92 120 -82 160 6 24
81 111 96 111 4 0 64 -60 134 -132z m417 -148 c64 -53 241 -132 318 -142 14
-2 24 -9 23 -15 -2 -7 -10 -69 -18 -139 -17 -135 -19 -144 -38 -144 -45 0
-265 141 -363 233 l-63 58 13 37 c33 92 59 142 75 142 9 0 33 -13 53 -30z
m-8572 -98 c0 -30 -128 -181 -275 -328 -95 -94 -178 -181 -184 -192 -19 -36
-13 -77 15 -103 25 -23 32 -24 162 -24 107 0 149 -4 192 -19 99 -34 99 -33 44
-73 -65 -46 -108 -68 -185 -92 -103 -33 -237 -54 -339 -54 -118 -1 -144 10
-300 124 -64 46 -126 91 -139 99 l-23 15 23 55 c18 44 23 80 27 187 l4 131 77
-1 c59 0 99 7 180 31 92 28 118 32 223 32 85 0 129 5 160 16 68 26 244 133
279 170 31 32 59 44 59 26z m3670 -173 c0 -18 -311 -322 -430 -421 -276 -227
-540 -398 -643 -414 -21 -4 -42 -14 -47 -23 -5 -10 -23 -113 -40 -229 -45
-315 -74 -439 -135 -583 -74 -177 -226 -326 -294 -290 -113 61 41 631 284
1048 32 54 99 157 150 228 68 96 362 528 369 542 1 0 89 13 196 27 214 29 380
63 486 100 77 27 104 31 104 15z m-1130 -218 c0 -4 -62 -94 -138 -198 -77
-105 -158 -222 -181 -259 -24 -38 -68 -109 -98 -159 -95 -154 -181 -382 -263
-700 -21 -82 -47 -200 -57 -262 -20 -125 -18 -123 -117 -123 -101 0 -268 -68
-386 -156 -61 -46 -68 -49 -125 -48 -33 0 -91 5 -130 11 -38 6 -130 14 -203
18 l-133 7 63 67 c35 36 108 122 163 191 54 69 158 193 230 275 72 83 162 191
200 240 39 50 103 128 144 175 41 47 113 137 159 200 47 63 117 158 157 210
104 137 165 234 236 373 34 67 66 128 72 135 11 14 407 18 407 3z m-2401
-1298 c-30 -203 -32 -211 -65 -313 -13 -41 -33 -120 -44 -175 -11 -55 -28
-115 -38 -135 -17 -34 -19 -35 -72 -34 -65 2 -255 23 -289 32 -13 4 -26 12
-28 19 -2 6 24 42 58 80 103 113 171 230 199 341 10 42 36 75 175 224 63 68
115 126 115 131 0 4 4 7 8 7 4 0 -4 -80 -19 -177z m1693 -433 c50 -14 84 -58
98 -127 21 -100 68 -236 100 -287 17 -27 65 -84 107 -128 41 -44 72 -83 67
-87 -5 -4 -40 -13 -77 -20 -38 -6 -104 -23 -148 -37 -44 -14 -101 -28 -127
-31 -60 -7 -78 9 -87 75 -14 95 -37 182 -55 204 l-18 23 -12 -30 c-29 -78 -87
-96 -138 -45 -45 45 -47 74 -14 176 16 49 35 114 42 144 23 99 57 142 131 165
54 17 83 18 131 5z m-941 -216 c6 -31 40 -97 123 -239 72 -124 105 -232 77
-249 -5 -3 -92 -10 -193 -16 -101 -5 -192 -12 -200 -15 -13 -5 -17 0 -17 27 0
18 -3 71 -7 117 -7 84 -7 85 -25 62 -10 -12 -21 -38 -25 -58 -8 -40 -54 -75
-94 -71 -23 3 -25 7 -28 61 -2 36 5 91 18 144 12 47 26 112 30 145 5 33 14 66
21 74 21 26 169 54 269 50 41 -1 45 -3 51 -32z m1316 -504 c57 -25 126 -97
148 -153 31 -83 42 -80 -268 -75 -302 4 -317 7 -317 61 1 52 18 111 36 124 10
7 34 13 53 13 20 1 74 14 121 30 95 33 152 33 227 0z m-1061 -76 c43 -47 89
-136 81 -156 -4 -12 -27 -17 -99 -22 -405 -24 -433 -25 -440 -13 -12 19 -9
143 3 171 21 45 59 52 273 55 l148 1 34 -36z"/>
<path d="M6416 11304 c-3 -16 -12 -72 -21 -124 -20 -121 -31 -175 -61 -280
-26 -91 -30 -130 -13 -130 16 0 35 55 80 227 47 181 59 287 36 317 -14 19 -15
19 -21 -10z"/>
<path d="M6281 11092 c-40 -196 -43 -248 -17 -239 35 12 101 447 68 447 -5 0
-28 -94 -51 -208z"/>
<path d="M6212 11258 c-6 -18 -13 -53 -16 -78 -4 -25 -16 -84 -28 -131 -24
-96 -19 -147 9 -94 40 74 79 314 55 329 -6 3 -15 -8 -20 -26z"/>
<path d="M5350 11001 c0 -89 160 -396 178 -342 2 5 -23 62 -56 128 -32 65 -69
144 -82 176 -26 67 -40 80 -40 38z"/>
<path d="M6075 10693 c8 -35 32 -73 46 -73 6 0 8 9 3 23 -12 39 -34 77 -45 77
-7 0 -9 -10 -4 -27z"/>
<path d="M3105 10299 c-8 -12 14 -31 30 -26 6 2 10 10 10 18 0 17 -31 24 -40
8z"/>
<path d="M6233 10045 c-22 -15 -43 -87 -43 -146 l0 -30 77 3 c91 4 96 9 107
121 l7 67 -63 0 c-40 0 -71 -6 -85 -15z m105 -17 c17 -17 15 -61 -5 -104 -16
-33 -20 -35 -53 -30 -63 10 -79 62 -34 115 27 33 70 41 92 19z"/>
<path d="M6448 10053 c-11 -3 -19 -19 -22 -49 -4 -24 -9 -64 -12 -89 l-5 -46
73 3 73 3 8 70 c4 39 8 79 10 90 2 18 -4 20 -53 22 -30 0 -63 -1 -72 -4z m73
-23 c27 -15 26 -83 -1 -110 -26 -26 -56 -25 -70 1 -14 26 -7 57 21 92 23 31
23 31 50 17z"/>
<path d="M6053 10040 c-31 -13 -29 -17 5 -12 43 6 57 -17 46 -81 -7 -41 -13
-53 -29 -55 -39 -5 -60 22 -59 77 0 28 -1 51 -3 51 -1 0 -9 -13 -18 -30 -33
-63 -11 -104 63 -116 54 -8 69 5 77 64 3 26 7 62 10 80 4 31 3 32 -33 31 -20
0 -47 -4 -59 -9z"/>
<path d="M6396 9748 c-32 -114 -48 -188 -42 -203 7 -20 66 -20 92 0 19 14 19
14 -3 15 -58 1 -63 17 -37 131 9 42 22 73 32 78 19 10 79 3 87 -9 3 -4 -8 -51
-24 -104 -25 -85 -26 -95 -10 -80 23 20 59 115 59 153 0 38 -25 57 -87 65
l-51 6 -16 -52z"/>
<path d="M5996 9781 c12 -11 114 -22 114 -12 0 10 -50 21 -93 21 -18 0 -27 -4
-21 -9z"/>
<path d="M6204 9765 c-48 -49 -70 -140 -41 -179 7 -9 32 -22 56 -27 57 -13 83
4 105 67 24 70 21 129 -6 148 -34 24 -85 20 -114 -9z m115 -11 c2 -2 -1 -29
-7 -59 -19 -93 -71 -144 -108 -107 -13 12 -15 30 -11 81 6 80 29 105 86 95 20
-4 38 -8 40 -10z"/>
<path d="M5956 9761 c-27 -30 -26 -85 1 -113 26 -26 111 -49 135 -37 20 10 41
79 35 112 -3 20 -5 19 -15 -8 -33 -85 -59 -102 -103 -67 -18 16 -25 33 -29 77
l-5 57 -19 -21z"/>
<path d="M3360 9452 c0 -10 10 -28 23 -39 26 -25 87 -56 94 -50 14 15 -73 107
-102 107 -8 0 -15 -8 -15 -18z"/>
<path d="M3395 9330 c-9 -15 4 -30 25 -30 27 0 34 17 11 29 -24 13 -28 14 -36
1z"/>
<path d="M3968 8689 c-46 -23 -65 -54 -47 -75 18 -22 39 -17 39 10 0 15 12 34
30 49 49 41 39 49 -22 16z"/>
<path d="M9390 8625 c0 -35 42 -141 80 -203 18 -30 50 -64 71 -78 22 -13 39
-29 39 -34 0 -6 7 -10 15 -10 8 0 15 9 15 20 0 17 5 19 25 14 14 -3 25 -3 25
2 0 17 -85 234 -92 234 -12 0 -10 -23 8 -101 9 -38 14 -75 11 -82 -5 -16 -45
62 -68 133 l-18 55 0 -40 c-1 -22 3 -56 9 -74 20 -69 -1 -42 -55 72 -30 65
-57 117 -60 117 -3 0 -5 -11 -5 -25z"/>
<path d="M3612 7994 c-24 -17 -30 -44 -8 -44 19 0 67 40 61 51 -9 13 -28 11
-53 -7z"/>
<path d="M3742 7875 c-14 -31 -15 -55 -3 -55 12 0 28 21 40 53 9 23 8 27 -8
27 -10 0 -23 -11 -29 -25z"/>
<path d="M8744 7863 c-8 -41 11 -225 27 -273 18 -50 33 -36 25 23 -3 28 -9 95
-12 147 -6 112 -11 140 -24 140 -5 0 -12 -17 -16 -37z"/>
<path d="M8910 7875 c-10 -12 -11 -44 -7 -128 7 -118 15 -165 32 -169 17 -5
17 102 0 177 -12 53 -13 79 -5 99 5 15 10 29 10 32 0 10 -18 3 -30 -11z"/>
<path d="M8826 7873 c-20 -20 6 -319 30 -343 13 -13 14 -1 9 120 -9 201 -16
245 -39 223z"/>
<path d="M9044 7854 c-10 -39 5 -260 19 -292 10 -23 12 -9 15 103 3 138 -3
215 -18 215 -5 0 -13 -12 -16 -26z"/>
<path d="M8572 7858 c-19 -19 -14 -44 18 -112 22 -45 33 -85 38 -141 4 -48 12
-80 20 -83 20 -6 15 116 -8 191 -11 35 -29 75 -39 89 -12 15 -18 33 -14 46 6
25 2 27 -15 10z"/>
<path d="M8956 7837 c-4 -20 0 -50 9 -77 8 -23 15 -57 15 -74 0 -35 15 -64 26
-53 10 9 -21 216 -34 229 -6 6 -12 -2 -16 -25z"/>
<path d="M9122 7858 c-30 -30 0 -171 40 -184 34 -10 61 24 54 71 -16 126 -34
139 -38 28 -2 -43 -6 -71 -9 -63 -27 67 -33 90 -33 123 0 20 0 37 -1 37 -1 0
-6 -5 -13 -12z"/>
<path d="M9244 7836 c-3 -9 -3 -33 1 -54 5 -20 7 -47 6 -59 -2 -15 3 -23 14
-23 13 0 15 11 13 72 -2 46 -7 73 -15 76 -7 2 -16 -3 -19 -12z"/>
<path d="M9326 7828 c-18 -26 -20 -65 -6 -102 17 -45 33 -31 27 22 -4 32 -1
58 8 75 12 23 12 27 0 27 -8 0 -21 -10 -29 -22z"/>
<path d="M8660 7817 c0 -7 9 -47 20 -88 11 -41 20 -101 20 -134 1 -70 23 -132
35 -102 16 38 -12 224 -46 310 -12 28 -29 37 -29 14z"/>
<path d="M8300 7775 c0 -9 14 -47 30 -85 17 -38 30 -83 30 -102 0 -60 19 -152
35 -167 15 -15 15 -7 10 79 -4 52 -11 113 -17 135 -20 78 -88 187 -88 140z"/>
<path d="M8430 7710 c0 -55 6 -99 20 -137 11 -32 20 -67 20 -79 0 -23 23 -48
33 -37 13 13 7 72 -13 114 -11 25 -20 66 -20 94 0 58 -17 125 -30 125 -6 0
-10 -36 -10 -80z"/>
<path d="M8510 7745 c0 -9 9 -50 19 -93 11 -42 25 -126 31 -187 13 -145 35
-169 26 -30 -7 125 -30 254 -51 294 -17 34 -25 39 -25 16z"/>
<path d="M8103 7734 c-3 -9 6 -69 22 -133 15 -64 29 -150 32 -191 5 -94 11
-122 23 -115 15 10 12 174 -5 238 -8 32 -15 74 -15 93 0 30 -35 124 -46 124
-3 0 -7 -7 -11 -16z"/>
<path d="M8180 7717 c0 -15 9 -67 19 -115 11 -48 22 -112 26 -142 10 -75 23
-106 37 -92 8 8 6 43 -6 129 -18 127 -40 209 -62 233 -12 12 -14 11 -14 -13z"/>
<path d="M8271 7685 c-1 -45 47 -277 59 -289 32 -32 -8 225 -45 293 l-14 26 0
-30z"/>
<path d="M8020 7677 c0 -27 32 -244 41 -279 28 -108 40 41 14 167 -8 39 -20
82 -26 98 -12 28 -29 37 -29 14z"/>
<path d="M7926 7642 c-7 -11 9 -69 24 -87 6 -8 17 -67 25 -132 15 -127 22
-156 36 -147 24 14 -2 202 -42 310 -21 55 -33 71 -43 56z"/>
<path d="M7840 7560 c0 -19 13 -62 28 -95 16 -33 32 -85 36 -115 11 -81 17
-100 32 -100 18 0 18 -1 -5 106 -21 97 -53 189 -76 220 -13 18 -14 17 -15 -16z"/>
<path d="M7767 7496 c-11 -27 -8 -48 9 -81 9 -16 18 -54 21 -83 6 -55 17 -72
35 -54 13 13 -25 188 -46 217 -12 17 -13 17 -19 1z"/>
<path d="M7680 7466 c0 -15 10 -59 21 -98 13 -42 19 -84 16 -106 -6 -45 4 -84
22 -90 22 -7 9 158 -19 238 -25 76 -40 96 -40 56z"/>
<path d="M7606 7472 c-7 -11 9 -141 24 -193 6 -19 10 -66 10 -105 0 -76 5 -90
27 -73 21 18 17 150 -6 207 -11 26 -22 69 -25 95 -7 54 -20 85 -30 69z"/>
<path d="M7524 7416 c-9 -24 12 -286 24 -298 6 -6 18 -8 27 -4 19 7 18 13 -10
111 -9 33 -18 91 -20 129 -4 72 -10 90 -21 62z"/>
<path d="M7450 7288 c0 -40 3 -110 7 -155 5 -70 9 -84 25 -89 11 -3 22 -4 24
-1 3 3 -1 38 -10 78 -8 41 -17 111 -21 157 -4 45 -11 82 -16 82 -5 0 -9 -33
-9 -72z"/>
<path d="M7361 7290 c0 -46 39 -264 49 -274 25 -23 -10 236 -36 271 -10 14
-13 15 -13 3z"/>
<path d="M7290 7243 c1 -44 21 -210 30 -245 17 -62 33 -47 25 25 -11 105 -37
237 -46 237 -5 0 -9 -8 -9 -17z"/>
<path d="M7221 7098 c-1 -94 12 -136 25 -83 7 28 -3 126 -16 159 -6 14 -9 -13
-9 -76z"/>
<path d="M7133 7073 c3 -38 11 -81 18 -98 12 -28 13 -28 16 -8 5 25 -25 173
-34 173 -3 0 -3 -30 0 -67z"/>
<path d="M7035 7100 c-8 -13 3 -113 16 -157 10 -30 43 -53 57 -39 3 4 -2 22
-11 41 -9 20 -17 56 -17 81 0 64 -26 105 -45 74z"/>
<path d="M9615 6364 c-9 -9 -15 -26 -13 -38 2 -16 11 -22 41 -24 35 -3 37 -2
37 25 0 49 -34 68 -65 37z"/>
<path d="M9862 5818 c-21 -21 -13 -38 19 -38 22 0 39 -10 63 -36 37 -41 56
-38 56 7 0 44 -39 79 -88 79 -21 0 -43 -5 -50 -12z"/>
<path d="M9103 4653 c-24 -9 -13 -31 37 -73 28 -23 50 -48 50 -55 0 -19 20
-29 31 -18 16 16 -19 89 -57 123 -35 31 -40 32 -61 23z"/>
<path d="M9497 4713 c61 -148 173 -303 173 -240 0 29 -161 277 -180 277 -5 0
-2 -17 7 -37z"/>
<path d="M10227 8563 c-4 -114 -11 -223 -17 -242 -12 -44 -6 -51 13 -14 28 53
41 148 42 290 0 117 -3 145 -16 158 -14 15 -16 -2 -22 -192z"/>
</g>
</svg>
