<?xml version='1.0' encoding='utf-8'?>
<svg xmlns="http://www.w3.org/2000/svg" enable-background="new 0 0 2072.7458 5000" version="1.1" viewBox="0 0 2072.7 5e3"> <path d="m21.02 2541.3-0.7065 2.5283c0.0582-0.0256 0.1159-0.0525 0.1741-0.0781 0.094-0.4309 0.3873-1.8403 0.5324-2.4502z"/> <path d="m2051.7 2541.3c0.145 0.6099 0.4385 2.0193 0.5325 2.4502 0.0581 0.0256 0.116 0.0525 0.1741 0.0781l-0.7066-2.5283z"/> <path d="m9.6217 2718c0.2136 0.1101 0.4431 0.239 0.6593 0.3525l0.0273-0.5466c-0.2302 0.0674-0.4562 0.126-0.6866 0.1941z"/> <path d="m2062.4 2717.8 0.0273 0.5466c0.2163-0.1135 0.4458-0.2424 0.6594-0.3525-0.2304-0.0681-0.4565-0.1267-0.6867-0.1941z"/> <path d="m1957.5 2711.1-7.4174 9.2322-7.5815-0.8984c0.6093-13.95 11.952-27.27 13.344-41.89 5.0192-52.73-4.2096-110.85-9.507-163.43 2.0394-1.6633 2.1313-2.2588 4.8551-2.4729 23.121 69.436 3.8475 168.88 12.139 181.35 38.268 16.542 41.395 7.8269 99.134 24.787-8.5286-171.04-7.0417-159.65-10.179-174.02-51.778-22.888-100.09-51.579-158.23-55.747-2.8795-0.2058-4.2206-0.3755-6.5494-2.3196 3.3494-7.0317 13.482-13.824 17.673-14.684 9.6598-1.9805 25.95 3.616 35.301 6.3945 40.159 11.941 79.428 27.412 112.61 53.327 6.5059-10.358 8.1924-70.741 19.582-105.11 2.1758-6.5647-32.611-26.9-34.489-33.376-0.8562-2.9573-0.05 5.5186 2.2648-71.883 0.55-210.84 7.4232-444.51-111-617.2-6.3185-9.2152-12.954-21.704-22.65-27.634-6.5856 3.5406-4.6215 14.099-5.1835 21.523-2.0978 27.698-12.984 55.806-21.298 82.152-20.19-28.035-27.496-21.701-36.255-33.834 16.328-36.624-10.719-48.688-13.246-55.814-3.5378-9.9846 1.5803-15.609-9.8826-49.241 4.1735-6.0109 12.537-3.9331 19.144-8.6505-9.8824-75.221-32.981-154.74-59.387-225.71 30.744-9.4989 59.838-23.974 90.726-32.78 18.315-5.2208 37.977-6.787 56.835-9.0955-39.358-49.116-93.883-84.625-112.69-105.95-8.7111-9.8744-15.236-22.714-21.71-34.157 34.736-19.947 49.226-26.864 50.715-35.033 3.2025-17.596-25.952-58.629-35.368-73.56-48.65-77.137-98.049-125.93-234-156.5l3.236-30.933c-9.6963-14.178-20.296-32.519-35.234-41.414-6.3213-3.7634-10.84-2.6981-17.667-0.8428-13.744 12.303-21.034 46.858-26.918 64.194-47.743-11.314-44.171-9.8409-45.567-10.825-11.722-8.2617-16.499-32.566-31.86-39.976-7.782-3.7554-18.382-3.978-26.682-6.8453-8.5415-2.9515-15.948-8.7983-24.233-12.356-7.5677-3.2516-13.892-4.5594-18.775-11.73-23.635-34.713-52.876-56.593-88.748-77.532 10.236-46.135 19.72-95.648 19.34-143.02l14.29-8.7758c24.69-16.539 30.095-78.111 36.077-105.85l15.903-70.82c-13.636 12.767-21.226 27.036-32.11 41.739-9.916 13.393-21.423 26.03-32.193 38.761 42.27-137.41 38.835-288.76-23.827-419.76 15.644 86.61 3.728 183.83-21.073 267.86-6.7969-10.639-13.157-21.874-20.572-32.082-4.7299-6.5143-11.19-12.214-15.283-19.068-12.239-20.5-21.05-76.25-124.67-103.68-6.0182-7.0112-7.2478-41.669-8.7253-53.274-7.9672-62.559-19.35-121.43-33.506-182.62-14.157 61.197-25.54 120.07-33.506 182.62-1.4776 11.605-2.7072 46.263-8.7253 53.274-103.17 27.314-112.27 82.914-124.67 103.68-4.0927 6.8537-10.553 12.553-15.283 19.068-7.4146 10.208-13.775 21.443-20.572 32.082-24.801-84.027-36.717-181.25-21.073-267.86-62.662 131.01-66.098 282.35-23.827 419.76-10.77-12.731-22.277-25.367-32.193-38.761-10.884-14.703-18.474-28.972-32.11-41.739l15.903 70.82c5.9819 27.74 11.388 89.312 36.077 105.85l14.29 8.7758c-0.381 47.372 9.1035 96.886 19.339 143.02-35.871 20.939-65.113 42.818-88.748 77.532-4.8829 7.1707-11.207 8.4785-18.775 11.73-8.2855 3.5573-15.692 9.4041-24.233 12.356-8.2995 2.8673-18.9 3.0898-26.682 6.8453-15.361 7.41-20.138 31.714-31.86 39.976-1.3888 0.979 2.196-0.494-45.567 10.825-5.8844-17.337-13.174-51.892-26.918-64.194-6.8275-1.8553-11.346-2.9206-17.667 0.8428-14.938 8.8951-25.538 27.237-35.234 41.414l3.2359 30.933c-134.64 30.285-185.04 78.88-234 156.5-9.4151 14.932-38.57 55.965-35.368 73.56 1.492 8.1857 15.308 14.7 50.715 35.033-6.4744 11.443-12.999 24.283-21.71 34.157-18.56 21.042-73.725 57.32-112.69 105.95 18.858 2.3085 38.52 3.8746 56.835 9.0955 30.889 8.8063 59.982 23.281 90.726 32.78-26.406 70.968-49.504 150.49-59.387 225.71 6.6078 4.7174 14.971 2.6396 19.144 8.6505-11.09 32.538-6.5365 39.798-9.8825 49.241-2.7205 7.6718-29.767 18.758-13.246 55.814-8.7603 12.135-16.045 5.7711-36.255 33.834-8.3135-26.346-19.2-54.454-21.298-82.152-0.5621-7.424 1.4021-17.983-5.1835-21.523-9.696 5.9301-16.332 18.419-22.65 27.634-118.23 172.4-111.55 405.32-111 617.2 2.322 77.642 3.1369 68.871 2.2648 71.883-1.878 6.4756-36.664 26.811-34.489 33.376 11.433 34.501 13.036 94.69 19.582 105.11 33.186-25.915 72.455-41.386 112.61-53.327 9.351-2.7786 25.641-8.375 35.301-6.3945 4.3242 0.8877 14.352 7.7117 17.673 14.684-2.3288 1.9441-3.6699 2.1138-6.5494 2.3196-58.139 4.1675-106.45 32.859-158.23 55.747-3.1769 14.552-1.6793 3.5508-10.18 174.02 56.687-16.651 61.016-8.3091 99.134-24.787 8.2951-12.476-11.053-111.7 12.139-181.35 2.7238 0.2141 2.8157 0.8096 4.8551 2.4729-5.2973 52.571-14.526 110.7-9.5069 163.43 1.3911 14.62 12.734 27.94 13.344 41.89l-7.5815 0.8984-7.4174-9.2322c-26.47 12.517-46.413 18.033-75.496 20.228-9.7346-1.1948-20.616-8.3452-29.497-12.999l-0.2197 4.4065c8.7277 9.8188 25.727 24.394 26.854 37.57 1.2268 14.353 2.6626 29.484 7.3396 43.169 3.2719 9.5405 11.165 21.557 12.228 31.236 15.948 13.685 31.684 28.9 48.644 41.305 11.824 8.623 25.307 15.521 36.734 24.478 16.607 12.99 35.986 39.108 57.498 43.002l4.1262-2.9758c1.1296-9.7634 0.2059-18.803-0.8596-28.511 23.001 10.153 43.027 17.134 68.454 16.773l3.6309-3.0879c-0.4618-11.181-16.382-27.954-24.339-35.436-19.936-18.8-54.156-26.407-59.601-33.684 25.494-0.1772 59.713 15.439 79.11-1.3354l-1.2743-5.7297c-19.128-19.276-36.545-23.003-58.633-35.742-14.002-8.0896-51.256-42.052-56.221-62.351-3.9035-14.632 7.534-75.021 24.854-116.06 2.3788-5.6382 7.0893-9.396 9.1566-14.575 7.5858-19.002 25.074-83.971 24.673-93.921-0.2531-6.2585-2.5679-11.732 0.0112-17.682 14.292 11.864 10.226 22.291 5.2055 41.539-19.314 67.22-21.31 73.63-20.964 74.556 0.7534 2.032 26.73 19.829 34.639 29.745 11.716 14.689 15.684 38.388 23.666 55.478 4.0537 8.6755 12.606 18.87 15.08 27.673 6.1627 24.933 36.498 40.037 50.47 35.909 0.815-10.708 3.3079-23.949 0.9515-34.463-2.5485-11.362-9.7628-21.176-13.319-32.16-2.5682-7.9331 0.4845-10.981-6.2322-19.067 2.2898-2.7288 2.4875-6.1306 2.596-9.5879 0.4006-12.959-6.4188-18.339-14.571-27.326l8.6165 3.5435c-0.1306-9.4988-3.4778-26.168-10.194-33.161-2.4679-2.5674-6.3185-4.6006-9.3817-6.3892l7.1643-1.897c-7.9845-33.782-5.7876-56.247-50.264-97.589-8.8001-8.1833-36.895-24.6-40.415-35.03-0.3617-1.0547 18.941-38.312 24.219-58.287 4.3959-16.644-10.681-14.544-8.7083-26.881 2.0058-12.522 7.5119-25.999 11.476-38.079 33.517-102.09 79.954-153 95.064-173.41 34.889-47.114 71.417-99.198 85.365-157.13l-3.4888-6.1777c3.1578-5.894 7.5453-16.383 12.386-20.797 8.7751-8.005 22.65-12.762 32.614-19.724l-25.38-32.405c6.0095-8.7616 14.568-18.697 17.701-28.833l-15.934-27.479c3.8588-7.9133 9.9047-14.211 14.699-21.546 10.909-16.7 5.8426-34.986 2.6792-53.16l24.42-52.243c8.2939-1.8191 21.721-2.3754 26.106-10.614 3.1854-5.9858 4.4071-13.507 6.7663-19.935 27.258-68.57 20.93-58.75 82.557-152.99 4.2596 13.123 10.433 28.435 11.16 42.212 0.679 12.92-3.4528 28.249 0.0891 40.802 3.0994 10.981 15.25 12.603 20.583 20.583 2.6514 3.9635 4.329 15.318 5.8204 20.338 21.28 71.484 21.485 61.434 14.262 114.88-0.5537 4.0887-3.1356 15.126-1.572 18.789 3.8062 8.9065 23.07 16.998 28.231 25.448 2.3926 3.9135 9.3538 106.19 7.7681 110.74-5.4392 5.3544-24.665 20.892-25.647 27.22l24.089 25.028c-6.3991 10.37-12.673 21.095-19.865 30.93-7.5649 10.347-18.905 19.818-19.651 33.117-0.6566 11.696-13.143 22.666-20.828 30.608-3.0632-0.0056-11.577-0.8792-13.516 1.0347-4.9633 4.8982-16.404 23.273-16.315 30.452 0.1196 9.6877 10.063 21.187 9.8491 29.798-0.075 3.0293-6.3351 13.115-7.8346 16.252-99.824 213.83-100.21 218.42-140.82 469.12-53.715 296.4-65.087 409.23-149.32 547.61-10.222 16.8-26.551 32.794-34.622 50.123 60.675-28.093 106.45-70.706 146.45-123.94-24.306 103.44-48.634 215.79-99.504 310.17 66-42.554 153.24-121.58 173.06-142.3l10.903 109.48c6.9 4.1724 19.637 10.737 23.969 17.384-17.142-4.9421-30.642-18.914-56.201-35.77-2.0479 11.404 4.8995 25.868 6.182 37.69 3.0022 27.76 0.3674 54.852-8.0295 81.443-2.1311 6.7588-3.0186 13.351-8.7111 17.802l-9.0785 1.0569c3.9886 18.631 25.14 51.453 25.538 58.3 0.2713 4.6106-65 88.458-76.531 245.5-3.2862 44.805 36.544 250.41 29.483 492.94-2.4398 83.824-1.9746 94.902-24.745 141.05l-5.2585 1.9751-9.8937-5.5078c-19.181 20.861-12.158 71.93-16.59 98.383-1.497 8.9282-6.6469 17.162-8.945 25.896-2.1033 8.0107-1.8055 16.55-4.2818 24.422-8.906 28.232-33.42 57.383-47.98 83.668-31.982 57.835-27.519 64.655-33.654 75.741-2.657 4.7842-20.16 15.048-25.28 19.026-40.075 31.208-71.798 78.578-69.013 131.4 1.0702 20.37 40.709 37.812 59.621 46.062 12.495 5.7148 10.859 5.2295 26.017 5.2295 2.6988 0 4.0565 1.3906 6.3463 2.4473 12.759 5.8413 35.908 12.295 49.774 14.13l22.533-78.792c0.0117 1e-3 0.0232 0.0039 0.0349 0.0044-0.56 25.378-7.298 52.33-11.132 77.536 65.705-8.9844 134.54-22.53 193.38-54.435 6.6022-3.5601 23.34-11.766 27.332-17.246 6.0793-8.3442 5.1779-28.872 8.5917-39.414 3.9562-12.239 13.405-17.023 20.822-26.536 4.9274-6.2866 5.7064-15.132 9.5488-22.058 8.3551-15.02 33.314-18.024 48.25-25.812 13.53-7.0928 37.084-23.115 42.076-38.635-3.329-3.0303-5.2372-4.0254-8.0992-5.7021-4.7352-23.747 6.9271-68.03 5.8873-77.104-1.6386-14.269-6.58-28.872-9.2204-43.141-3.116-16.828-3.9674-33.684-6.3434-50.568-1.4021-9.958-4.0203-21.084-3.8868-31.126 0.0668-4.9507 3.72-10.626 5.1361-15.52 12.499-43.42 0.3142-48.729-9.7991-74.684-5.684-14.631-10.06-46.312-7.9877-61.694 3.7171-27.593 12.754-56.326 18.964-83.584 87.845-351.25 68.735-277.65 81.316-292.25 2.68-3.1094 6.3098-70.436 19.912-80.302l6.3519 4.2 3.5418-1.3074c6.7468-20.905 1.8531-10.09 29.227-123.25 2.3928-9.9023 6.7471-20.917 3.8868-30.986-8.4802-29.874-10.475-56.993-24.294-85.643 5.0273 3.3938 9.6238 9.8188 13.789 14.353-2.8264-83.737-15.893-101.71-12.3-117.58 0.9155-4.0608 6.7971-10.569 9.1147-14.213 6.1766-9.6519 14.604-26.063 15.72-37.384l-8.8112-2.1975c4.8884-5.0898-2.0588-35.631-2.3872-44.365-1.1436-30.152 14.039-68.731 29.567-94.321l-25.026 5.8689c3.7321-2.0056 8.7526-4.4861 10.965-7.7048 4.6205-6.7046 22.201-69.929 47.281-111.59 0.2365-12.545-54.284-85.448-63.265-97.993-18.317-25.552-15.095-13.879-11.958-36.967 8.2228-68.191 4.1326-20.172 18.647-241.07-0.1653 213.42 0.9453 167.01-3.4306 233.48-0.334 3.7273-2.5401 13.462-1.6889 16.327 1.3355 4.5061 8.8254 13.018 11.644 17.218 224.35 338.08 203.54 421.5 238.94 557.94 30.726-118.43 10.789-214.13 238.94-557.94 2.8182-4.2 10.308-12.712 11.644-17.218 0.8512-2.865-1.355-12.6-1.689-16.327-4.3854-66.619-3.2654-20.154-3.4305-233.48 14.512 220.87 10.425 172.89 18.647 241.07 3.1162 22.935 6.4359 11.307-11.958 36.967-8.9811 12.545-63.502 85.448-63.265 97.993 24.913 41.387 43.046 105.45 47.281 111.59 2.2172 3.2258 7.1423 5.6506 10.965 7.7048l-25.026-5.8689c15.528 25.59 30.71 64.169 29.567 94.321-0.3284 8.7336-7.2755 39.275-2.3872 44.365l-8.8112 2.1975c1.1156 11.321 9.543 27.732 15.72 37.384 2.3175 3.644 8.1992 10.153 9.1147 14.213 3.5938 15.867-9.4734 33.82-12.3 117.58 4.1649-4.5339 8.7614-10.959 13.789-14.353-13.819 28.65-15.814 55.77-24.294 85.643-2.8604 10.069 1.4939 21.084 3.8868 30.986 27.339 113.01 22.428 102.18 29.227 123.25l3.5417 1.3074 6.3519-4.2c13.6 9.8652 17.3 77.272 19.912 80.302 1.4858 1.7244 6.4882 2.6143 7.7042 4.3667 2.9901 4.3083 88.511 341.29 92.576 371.47 2.0726 15.382-2.3038 47.063-7.9878 61.694-10.187 26.145-22.31 31.223-9.7991 74.684 1.4161 4.895 5.0692 10.57 5.1361 15.52 0.1334 10.042-2.4847 21.168-3.8868 31.126-2.376 16.884-3.2275 33.74-6.3435 50.568-2.6404 14.27-7.5817 28.873-9.2203 43.141-1.1504 10.039 10.71 52.918 5.8872 77.104-3.0223 1.771-4.8199 2.7173-8.0991 5.7021 4.9913 15.52 28.546 31.542 42.076 38.635 14.935 7.7881 39.894 10.792 48.25 25.812 3.8424 6.9258 4.6213 15.771 9.5487 22.058 7.4175 9.5127 16.866 14.297 20.822 26.536 3.4138 10.542 2.5123 31.069 8.5917 39.414 3.9924 5.4795 20.73 13.686 27.332 17.246 58.847 31.904 127.68 45.45 193.38 54.435-3.8345-25.206-10.572-52.157-11.132-77.536 0.0117-5e-4 0.0232-0.0034 0.0348-0.0044l22.532 78.792c30.633-4.0552 53.632-16.578 56.12-16.578 15.156 0 13.519 0.4868 26.017-5.2295 18.707-8.1606 58.548-25.646 59.621-46.062 2.785-52.821-28.938-100.19-69.013-131.4-5.1195-3.9775-22.623-14.242-25.279-19.026-6.1285-11.075-1.672-17.906-33.654-75.741-14.559-26.285-39.074-55.436-47.98-83.668-2.4763-7.8721-2.1786-16.411-4.2819-24.422-2.2981-8.7339-7.448-16.967-8.9449-25.896-4.4321-26.453 2.5903-77.522-16.59-98.383l-9.8937 5.5078-5.2585-1.9751c-22.909-46.43-22.31-57.396-24.745-141.05-6.931-238.07 32.558-451.01 29.483-492.94-6.6216-90.177-29.864-166.31-75.791-244.25-0.2476-0.4175-0.7678-0.7791-0.74-1.2517 0.3815-6.5652 21.674-40.253 25.538-58.3l-9.0785-1.0569c-5.6925-4.4507-6.58-11.043-8.7111-17.802-8.397-26.591-11.032-53.683-8.0295-81.443 1.2823-11.822 8.2299-26.285 6.1819-37.69-25.982 17.136-39.086 30.836-56.201 35.77 4.3319-6.6477 17.069-13.212 23.969-17.384l10.903-109.48c20.586 21.536 107.47 100.01 173.06 142.3-50.871-94.377-75.198-206.72-99.504-310.17 39.997 53.238 85.776 95.851 146.45 123.94-8.0714-17.329-24.4-33.322-34.622-50.123-84.456-138.75-96.386-255.53-149.32-547.61-11.978-73.952-22.976-149.11-40.868-221.89-27.337-111.2-107.63-257.16-107.78-263.48-0.2142-8.6116 9.7295-20.111 9.8491-29.798 0.0891-7.1792-11.352-25.554-16.315-30.452-1.9392-1.9138-10.453-1.0403-13.516-1.0347-7.6847-7.9414-20.171-18.912-20.828-30.608-0.7455-13.299-12.086-22.77-19.651-33.117-7.1921-9.8352-13.466-20.561-19.865-30.93l24.089-25.028c-0.9822-6.328-20.208-21.866-25.647-27.22-1.5858-4.5424 5.3754-106.82 7.7681-110.74 5.161-8.4504 24.425-16.542 28.231-25.448 1.5637-3.6631-1.0183-14.7-1.572-18.789-7.0858-52.435-7.4764-41.86 14.262-114.88 1.4913-5.0209 3.1691-16.375 5.8204-20.338 5.3335-7.9802 17.484-9.6021 20.583-20.583 3.5419-12.553-0.5898-27.882 0.0891-40.802 0.7261-13.777 6.8999-29.089 11.16-42.212 62.732 95.931 55.872 85.863 82.557 152.99 2.3593 6.4281 3.5809 13.949 6.7664 19.935 4.3849 8.2388 17.812 8.795 26.106 10.614l24.42 52.243c-3.1635 18.174-8.2299 36.46 2.6792 53.16 4.7938 7.3347 10.84 13.632 14.699 21.546l-15.934 27.479c3.1328 10.136 11.691 20.071 17.701 28.833l-25.38 32.405c9.9631 6.9622 23.838 11.719 32.613 19.724 4.8412 4.4143 9.2286 14.903 12.386 20.797l-3.4889 6.1777c13.947 57.936 50.475 110.02 85.365 157.13 14.264 19.263 61.355 70.731 95.064 173.41 3.9646 12.08 9.4707 25.556 11.476 38.079 1.9727 12.336-13.104 10.236-8.7083 26.881 5.3174 20.122 24.582 57.228 24.219 58.287-3.5194 10.431-31.615 26.847-40.415 35.03-44.358 41.232-42.205 63.494-50.264 97.589l7.1643 1.897c-3.0632 1.7886-6.9138 3.8218-9.3817 6.3892-6.7162 6.9927-10.063 23.662-10.194 33.161l8.6165-3.5435c-8.1517 8.9871-14.971 14.366-14.57 27.326 0.1084 3.4573 0.3062 6.8591 2.5959 9.5879-6.6576 8.0151-3.7128 11.285-6.2323 19.067-3.5558 10.984-10.77 20.797-13.319 32.16-2.3563 10.514 0.1366 23.754 0.9515 34.463 13.985 4.1318 44.312-10.995 50.47-35.909 2.4734-8.8035 11.026-18.998 15.08-27.673 7.9824-17.09 11.95-40.788 23.666-55.478 7.8734-9.8711 33.868-27.667 34.639-29.745 0.3768-1.0098-3.0991-12.378-20.964-74.556-4.9471-18.968-9.1814-29.596 5.2054-41.539 2.5792 5.9497 0.2644 11.424 0.0112 17.682-0.4243 10.516 17.49 75.927 24.673 93.921 2.0674 5.1792 6.7778 8.937 9.1566 14.575 17.294 40.982 28.72 101.57 24.854 116.06-4.7843 19.559-41.434 53.807-56.221 62.351-22.088 12.74-39.505 16.467-58.633 35.742l-1.2742 5.7297c19.395 16.772 53.595 1.158 79.11 1.3354-5.422 7.2466-39.708 14.924-59.601 33.684-7.9573 7.4824-23.877 24.255-24.339 35.436l3.6309 3.0879c25.427 0.3616 45.453-6.6201 68.454-16.773-1.0656 9.7078-1.9891 18.747-0.8596 28.511l4.1262 2.9758c21.512-3.894 40.89-30.012 57.498-43.002 11.426-8.9565 24.909-15.854 36.734-24.478 16.961-12.406 32.697-27.62 48.644-41.305 1.063-9.6797 8.9561-21.696 12.228-31.236 4.677-13.685 6.1128-28.817 7.3396-43.169 1.1267-13.176 18.126-27.751 26.854-37.57l-0.2197-4.4065c-8.8806 4.6536-19.763 11.804-29.497 12.999-29.082-2.1953-49.026-7.7111-75.496-20.228zm8.7779-109.22c13.469 30.113 1.4718 65.513 21.807 94.179-2.621-0.8203-5.072-1.093-7.0031-3.1208-16.393-17.206-14.902-68.111-14.804-91.059zm-1874.6 91.059c-1.931 2.0278-4.3821 2.3005-7.003 3.1208 20.336-28.666 8.3385-64.067 21.807-94.179 0.0972 22.948 1.5886 73.852-14.804 91.059zm36.812 119.32-3.8031-1.0847c-8.9226-8.2053-16.329-48.148-17.356-60.987 14.473 10.308 10.965 46.579 21.159 62.072zm-9.9019 41.25c-38.409-30.53-40.804-45.73-45.885-93.431 11.418 12.851 10.102 39.831 17.475 55.602 7.6187 16.297 27.242 27.886 38.559 43.419-4.2457-0.5841-6.9055-3.0041-10.15-5.591zm277.37 949.67c0.2559-4.9233-0.2421-8.1223 2.4595-12.322-0.3784 4.1724-0.0557 8.9012-2.4595 12.322zm7.4174-37.078c-0.5315 3.2546-0.6093 7.1768-2.4735 9.9023-0.2781 4.8955 0.1753 8.1497-2.4594 12.35 0.3618-4.2004-0.0084-8.9287 2.4594-12.35-0.2281-3.6437 1.1824-6.5641 2.4735-9.9023 0.0612-3.5046 1.3715-6.5642 2.4732-9.874-0.5312 3.2263-0.6008 7.1763-2.4732 9.874zm1273.4 37.078c-2.4038-3.4214-2.0811-8.1501-2.4595-12.322 2.7016 4.2002 2.2035 7.3992 2.4595 12.322zm-7.4175-37.078c1.2911 3.3381 2.7017 6.2585 2.4735 9.9023 2.4679 3.4214 2.0977 8.1497 2.4595 12.35-2.6348-4.2004-2.1814-7.4546-2.4595-12.35-1.8641-2.7255-1.942-6.6476-2.4735-9.9023-1.8723-2.6978-1.942-6.6477-2.4733-9.874 1.1019 3.3098 2.4122 6.3694 2.4733 9.874zm79.138-2709.1c-10.264-1.6332-27.675-19.357-37.716-25.757-49.224-31.356-77.601-36.48-90.885-48.401 48.744 5.4418 124.3 60.815 128.6 74.158zm-147.87 235.04c29.074-17.468 211.23-122.1 226.1-120.1 2.3705 5.5909 4.5796 9.499 2.9102 15.632-32.115 24.831-241.76 136.81-267.86 133.87 2.6235-10.47 28.985-23.482 38.848-29.406zm-309.65-463.22 5.8844-0.4646c33.284 30.828 43.929 68.428 45.629 112.78 0.7234 18.903-0.498 50.779-9.24 67.663l-2.1504 1.0789c-0.0839-38.188 1.9171-85.846-26.648-138.53-3.8896-7.1762-11.825-16.881-14.084-24.458-1.1881-3.9752 0.4564-13.538 0.6093-18.074zm-225.06-587.53c13.232 69.767 12.921 217.69 7.0365 275.06 77.044-64.521 139.42-138.18 80.27-219.34-3.9285-5.3906-11.237-12.394-13.152-18.455 13.875 6.5587 26.849 31.484 33.203 45.191 22.678 48.924 16.938 84.931-1.3046 134.17 2.6957 20.094 12.509 35.676 21.404 53.494-16.292 12.059-93.795 52.098-121.64 63.335-6.4409 2.5976-10.433 8.2691-17.486 7.6516l15.845-210.52c1.33-43.625-4.2317-87.07-4.1705-130.59zm-165.15 216.62c-18.243-49.235-23.983-85.243-1.3047-134.17 6.3545-13.707 19.328-38.632 33.203-45.191-1.9142 6.0609-9.2231 13.065-13.152 18.455-59.172 81.186 3.2722 154.86 80.27 219.34-6.0601-59.076-6.0289-206.17 7.0365-275.06 0.0612 43.517-5.5004 86.962-4.1705 130.59l15.845 210.52c-7.0531 0.6175-11.046-5.054-17.486-7.6516-28.11-11.343-105.56-51.431-121.64-63.335 8.8948-17.819 18.708-33.401 21.404-53.495zm-91.352-99.428c-2.9047-14.486-13.934-67.861-6.6246-78.856 6.4038 100.78 61.842 203.84 64.701 212.53 2.5763 7.8353-0.7542 18.956 1.583 25.429 3.7309 10.325 132.4 65.215 151.13 79.615 7.4254 5.7105 9.9135 12.286 16.165 18.23 6.2649-5.9572 8.7878-12.557 16.165-18.23 18.724-14.4 147.4-69.29 151.13-79.615 2.3372-6.4732-0.9934-17.594 1.583-25.429 2.7242-8.2834 58.225-110.61 64.701-212.53 7.309 10.995-3.72 64.37-6.6246 78.856-9.7351 48.551-27.433 92.941-44.274 139.19 22.511 28.694 33.498 60.532 29.108 97.353-2.735 22.925-16.866 34.443-25.688 54.12-6.3435 14.144-6.1238 26.502-17.681 38.313-14.707 15.034-33.075 27.484-51.505 37.584-6.78 49.511-15.767 101.26-32.558 148.47 35.006-27.062 75.78-79.593 86.158-83.477 0.0365-0.1589 0.1234-0.2819 0.1688-0.4347 0.0626 0.051 0.1311 0.0916 0.1958 0.1384-0.1321 0.0893-0.2236 0.215-0.3646 0.2963-8.5256 25.508-102.21 116.55-141.53 159.11 5.6173-29.623 4.574-62.959 5.8594-93.209 8.408-178.67 7.8402-171.93 8.6917-172.95 2.4575-2.9688 77.574-31.343 154.55-101.79-2.4429-15.574-7.5762-30.536-12.226-45.558l-76.623 42.582c-27.235 13.877-61.896 27.156-86.132 45.522-8.152 6.1777-15.208 16.406-21.496 24.48l-1.6108 1.1794-1.6108-1.1794c-6.2878-8.0746-13.344-18.302-21.496-24.48-24.236-18.366-58.897-31.645-86.132-45.522l-76.623-42.582c-4.6492 15.023-9.7825 29.985-12.225 45.558 77.139 70.593 152.18 98.921 154.55 101.79 0.8934 1.0776 0.1868-7.7783 8.6917 172.95 1.2855 30.249 0.2421 63.586 5.8594 93.209-39.323-42.568-133-133.6-141.53-159.11-0.141-0.0813-0.2326-0.207-0.3646-0.2963 0.0648-0.0468 0.1332-0.0874 0.1959-0.1384 0.0453 0.1528 0.1323 0.2758 0.1688 0.4347 10.372 3.8815 51.16 56.421 86.158 83.477-16.791-47.214-25.778-98.964-32.558-148.47-18.43-10.1-36.798-22.55-51.505-37.584-11.557-11.81-11.338-24.169-17.681-38.313-8.8226-19.677-22.954-31.195-25.688-54.12-4.3903-36.822 6.5969-68.659 29.108-97.353-16.841-46.248-34.539-90.639-44.274-139.19zm385.02 668.89c-16.201 22.444-58.774 44.351-84.546 54.187-9.3234 3.5574-54.115 11.816-58.597 17.815-10.119 13.555-8.8976 41.762-10.492 58.134-0.5234 5.366-2.7039 14.383-4.4321 22.542-1.5894-7.5032-3.9025-17.112-4.432-22.542-1.5942-16.372-0.3728-44.58-10.492-58.134-4.4821-5.9991-49.273-14.258-58.597-17.815-25.772-9.8354-68.346-31.742-84.546-54.187 18.996 5.0251 54.466 47.349 144.01 58.159-43.111-28.371-141.45-87.061-188.95-196.8-5.4645-12.619-11.864-27.926-12.022-41.836-0.0105-0.014-0.0159-0.0308-0.0243-0.0458 7e-3 -5e-4 0.0133-0.0019 0.0201-0.0028 0.0014 0.0164 0.0026 0.0318 0.0042 0.0486 11.55 18.81 16.812 44.484 28.582 64.82 44.616 77.095 115.95 125.64 185.34 178.27l1.1073 0.7292 1.1074-0.7292c69.389-52.632 140.72-101.18 185.34-178.27 11.617-20.072 16.982-45.928 28.582-64.82 0.0016-0.0168 0.0028-0.0322 0.0042-0.0486 0.0068 9e-4 0.0131 0.0023 0.0201 0.0028-0.0084 0.015-0.0138 0.0317-0.0243 0.0458-0.1587 13.91-6.5579 29.217-12.022 41.836-20.519 47.406-51.958 86.358-88.703 122.19-30.463 29.704-64.904 51.356-100.25 74.614 89.614-10.818 125.02-53.136 144.01-58.159zm-361.94-367.1 3.973 0.6175c12.056 10.809 15.172 45.005 16.791 61.179l-3.439-0.4838c-4.0787-21.156-8.597-41.522-17.325-61.313zm386.99 61.797c1.6193-16.174 4.7355-50.37 16.791-61.179l3.973-0.6175c-8.7279 19.791-13.246 40.156-17.325 61.313l-3.4389 0.4838zm-489.23 219.07c1.7001-44.357 12.345-81.957 45.629-112.78l5.8844 0.4646c0.1529 4.5366 1.7974 14.099 0.6093 18.074-2.2592 7.5768-10.194 17.282-14.084 24.458-28.075 51.78-26.558 97.506-26.648 138.53l-2.1505-1.0789c-8.7419-16.884-9.9633-48.76-9.2399-67.663zm-59.988-33.684c2.3592 18.63 4.9246 35.283 10.681 53.197 3.7128-28.633-8.0283-25.305 33.434-77.424-4.8953 25.124-11.39 20.432-17.2 101.46 35.378 51.48 103.27 101.87 156.14 133.89 78.61 47.597 163.76 75.744 168.23 75.744 16.429 3.2675 30.308 0.2295 45.673-5.5007 12.744-4.7527 25.665-8.96 38.331-13.946 93.923-36.976 216.38-112.15 270-190.18-5.7997-80.892-12.3-76.319-17.2-101.46 41.231 51.829 29.748 49 33.434 77.424 5.7563-17.914 8.3217-34.566 10.681-53.197 14.282-2.2348 25.616 12.194 30.966 25.685-3.8562 2.2278-6.2935 1.9081-10.517 1.5042-52.821 139.39-217.2 247.76-360.14 287.47-15.262 4.2391-13.264 5.9501-28.385 6.4944-4.866 0.1753-12.413-2.6514-18.546-4.7051-26.261-8.7921-52.867-15.386-78.39-26.445-117.88-51.076-242.32-143.22-287.64-262.81-4.2234 0.4039-6.6606 0.7236-10.517-1.5042 5.3484-13.487 16.683-27.92 30.966-25.685zm187.23 309.3c37.777 20.725 75.282 39.311 115.97 53.778 32.299 11.487 49.026 22.382 77.288 17.148 5.3945-0.999 82.084-25.713 164.5-70.926 81.876-44.913 162.42-104.12 211.14-185.79 6.7526-11.321 13.31-32.672 21.626-41.403-6.8702 84.622-3.0225 63.971-23.056 87.223-51.687 59.972-103.28 127.18-273.13 195.47-14.704 5.9117-54.927 25.862-87.029 30.484-44.452 6.4016-38.776 5.4043-81.759-7.3761-77.193-22.954-170.61-68.157-243.14-124.13-35.084-27.078-63.36-61.102-92.103-94.452-19.799-22.979-16.14-2.0255-23.056-87.223 13.346 14.012 32.805 117.51 232.76 227.2zm-404.65-233.91c-13.115 11.77-42.131 17.345-90.885 48.401-10.041 6.4003-27.452 24.124-37.716 25.757 4.668-14.468 81.202-68.867 128.6-74.158zm-209.74 204.73c-1.6695-6.1332 0.5397-10.041 2.9101-15.632 14.866-2.0055 197.02 102.63 226.1 120.1 9.8631 5.9246 36.225 18.936 38.848 29.406-26.1 2.9372-235.74-109.04-267.86-133.87zm-36.333 1235c-66.644-9.3147-107.93-18.401-194.78-0.0247 23.237-18.792 33.709-26.419 63.68-29.743 54.202 2.3303 112.96 1.6624 132.6 24.986l-1.5052 4.7813zm-95.653-472.91 30.19 27.807c-0.7599 30.356-9.3313 59.946 11.377 99.498 1.0627 2.0305 9.3204 15.404 9.248 15.988-0.7888 6.1431-9.5886 7.1482-26.32 44.627-16.338 36.586-23.489 80.836-48.912 210.31-1.5692 9.9827-2.1369 29.423-9.7685 36.229l-6.1822-0.3784c-4.4543-16.817 5.9317-52.128 8.4942-69.769 28.176-202.36 40.105-249.09 31.873-364.31zm270 93.278c-41.415-11-174.88-115.18-221.54-270.87-3.1913-10.653-5.4198-23.832-10.937-33.423-82.366 161.22-89.832 268.5-100.83 434.17-0.4618 20.002 1.4886 46.73-4.5571 65.755-3.4523-127.59 10.942-317.88 59.593-435.42 14.56-35.181 34.747-67.485 55.453-99.311 26.092 136.15 118.72 243.52 224.64 327.7 0.5984 5.5633 1.0212 6.3114-1.8139 11.402zm-96.449-128.17c41.06 13.554 71.67 20.419 113.76 4.9426-13.078 22.435-96.281 18.942-113.76-4.9426zm136.4-370.78c-6.045 23.198-7.3235 46.55-40.718 70.044-38.562 27.134-81.091 17.237-124.12 9.8271-6.1434-1.0903-6.5718-0.4868-10.52-5.7159l4.3377-5.7466c44.094 4.1659 100.69 10.52 130.74-25.543 26.718-32.067 21.969-142.23 96.11-208.03-9.8741 35.425-27.074 69.9-38.584 105.17l-17.239 59.992zm-34.277-28.141c5.6535-19.866 14.882-65.126 31.426-78.15-2.5932 14.876-11.357 28.819-16.301 43.088-6.6281 19.125-16.5 63.432-23.271 70.617-0.2535-12.292 4.0832-21.29 8.1464-35.556zm106.85 201.91c-1.1046 3.6241-2.2898 5.2069-4.9467 7.8856-5.1277-30.989-15.6-58.089-27.325-87.036 13.227 16.116 27.592 36.852 36.884 55.452 3.2107 6.4198-2.3316 16.859-4.613 23.698zm-24.077-349.83c-180.85 62.211-192.15 7.3284-297.43-12.845 14.025-23.882 98.906 12.481 121.84 15.949 68.415 10.344 152.08-13.396 213.27-43.336l5.0332 0.1476c5.2223 5.2793 8.3049 7.1708 9.6294 14.684-25.754 18.526-16.774 13.167-52.342 25.401zm62.088 125.38-3.3887-2.6843c-3.5166-19.529-4.1512-34.469-1.2018-54.167 1.8361 0.0028 3.1076 0.6843 4.7936 1.3519-1.8808 17.854-3.4806 37.75-0.2031 55.5zm-1.5886-96.797c-5.7788-6.1973-12.851-12.436-15.611-20.617 2.9825-5.1348 3.6809-5.1041 8.8642-7.41 16.184 6.2446 28.131 7.9802 45.495 4.6284 12.139-2.3447 36.82-7.1541 43.339-18.213 9.1788-15.568 20.238-55.527 18.791-73.568-1.522-18.939-13.858-43.002-20.772-60.987-62.736-177.42-27.883-85.445-88.545-304.21 1.3495-7.5212 5.0748-10.937 10.244-16.066 3.3943-0.9709 5.0608-0.8596 8.4746 0 27.991 56.961 24.047 105.42 60.778 220.39 34.079 96.946 22.358 65.232 47.262 127.91 10.226 26.599 12.68-0.5568-14.712 120.73-24.296 19.999-77.13 41.475-103.61 27.415zm17.858-102.92c2.7683-13.478 17.549-23.22 31.025-20.453 13.476 2.7677 23.22 17.548 20.453 31.024-6.7774 33.006-58.256 22.432-51.477-10.572zm53.111 370.27 1.4496-17.304c5.8928 0.9763 149.88 108.58 166.54 121.32l-22.864-83.012 2.212-3.6827 11.034 4.9149c10.584 5.7106 15.912 36.199 19.729 48.421l25.065 81.384c-192.84-140.74-187.53-135.39-203.16-152.05zm42.093 175.5 3.8728-14.831c7.5899 0.4395 164.44 117.42 178.38 127.49l-37.257-127.87c6.5966 4.15 20.308 10.325 25.11 15.791 4.4265 5.0371 9.8044 36.421 11.994 44.554l33.287 118.98-113.29-88.669c-33.331-24.052-72.43-47.233-102.1-75.443zm493.23 417.74c-4.9858 0.281-9.1479-1.0959-13.903-2.4727-1.6526-9.3989 1.917-19.384 4.0259-28.558 29.448-131.37 52.165-248.81 90.938-360.07l33.609-22.038-114.67 413.14zm31.033-85.854 23.143-10.091c3.4667 17.729 17.408 62.161 11.118 77.165l-8.3857 6.2114c-4.8605-5.7134-4.1122-14.025-4.908-21.42l-4.8328-34.199-26.106 15.176c2.9241-10.512 5.0636-23.159 9.9716-32.842zm-41.881 98.48c13.628 14.016 9.8711 23.243 9.9912 42.88-0.2421 84.843 1.5878 87.737-7.7849 96.316-13.95 12.767-41.923 8.4001-59.893 8.2554-37.764 0.2798-23.311 0.2935-62.94 0-17.97 0.1448-45.943 4.5117-59.893-8.2554-9.4393-8.6394-7.5439-11.893-7.7849-96.316 0.1201-19.633-3.6369-28.864 9.9912-42.88 7.8856-8.1077 31.517-4.9387 50.214-4.8733 46.733-0.2559 28.847-0.2683 77.886 0 18.151-0.0635 42.277-3.2871 50.214 4.8733zm-175.26-15.098c-4.7548 1.3767-8.917 2.7537-13.903 2.4727l-114.67-413.14 33.609 22.038c35.44 101.7 57.225 207.9 80.346 312.82 14.912 66.525 16.164 67.014 14.618 75.81zm-34.964-50.54-26.106-15.176-4.8327 34.199c-0.7958 7.3958-0.0474 15.707-4.908 21.42l-8.3857-6.2114c-6.2906-15.003 7.6512-59.435 11.118-77.165l23.143 10.091c4.9079 9.6826 7.0474 22.33 9.9716 32.842zm-260.48-201.59 13.396-9.8883c10.128-1.1871 15.439 5.9797 29.442 15.518 57.604 36.786 19.121 13.491 167.4 100.3l-28.69-105.43c7.8765 6.111 24.896 15.868 30.212 23.443 4.2012 5.9856 6.7219 24.413 8.8754 32.229l26.912 94.98c-53.013-25.843-102.7-60.245-153.35-90.458-87.364-52.142-90.122-52.548-94.195-60.696zm-6.5244 79.098c9.3456 2.2529 27.606 25.089 35.184 32.135l52.951 45.116c102.07 82.065 153.57 91.223 182.97 115.56l-5.3167 4.2891-46.817-19.128c-104.02-46.883-217.71-147.48-226.4-170.55l7.434-7.4156zm-190.5 517.85c-0.8262-18.105 5.5897-39.439 9.1535-57.33 22.831-114.54 23.479-121.54 78.142-249.81 8.4164-19.746 16.145-43.765 28.941-60.94-3.3359 19.401-13.405 38.696-20.369 57.202l-50.601 137.08c-18.219 56.164-35.907 152.33-45.267 173.8-0.5257 3.2209-0.6065 7.1428-2.4092 9.8743 0.4672-3.2515 0.4171-7.2293 2.4092-9.8743zm-121.29 577.5c-9.1788 9.4851-21.882 26.313-34.246 30.708 7.3922-14.52 16.515-28.038 24.628-42.14 8.1908-14.269 15.327-29.735 24.795-43.169 11.819-16.773 26.161-32.015 38.701-48.287 95.653-124.21 101.34-160.73 147.15-314.23 135.76-476.58 118.78-452.59 136.08-481.16l4.9523 1.2407c3.7163 12.747 1.4614 17.607-15.247 97.139-34.8 169.42-76.114 340.07-136.59 502.27-44.945 120.59-65.473 168.75-190.23 297.62zm250.52-174.54c-5.6893 27.204-46.277 19.11-42.712-7.4338 2.7796-20.693 30.781-25.851 40.717-7.4365 2.4311 4.5051 3.0419 9.8669 1.9955 14.87zm-238.05 378.15c2.4066-9.5405 13.23-20.11 19.498-27.843 56.254-71.056 14.02-15.614 217.53-287.86 42.078-61.351 26.546 9.1477 66.888-354.17 9.8451-98.164 4.4341-122.17 56.627-283.67 9.0729-28.082 18.596-63.399 37.379-86.569-3.4778 31.837-17.639 64.718-26.042 95.767-49.218 181.9-50.72 274.25-67.002 458.25-7.1379 89.604-7.2786 99.283-11.596 112.35-5.8307 17.63-60.058 120.96-167.89 243.3-113.99 123.88-115.05 127.82-125.39 130.45zm418.98-869.27c-1.7195 33.812-22.536 76.297-35.064 107.74-10.18 25.554-19.323 52.774-32.269 76.992l-6.171 1.0652-3.2581-6.1775c5.5909-36.533 20.563-63.213 76.762-179.62zm-300.27 1118.9c-4.3987 15.298-17.328 30.18-25.129 44.226-3.5947 6.4807-8.4302 18.497-14.44 22.502 3.7212-21.088 28.467-59.435 39.569-66.729zm122.1 1009.7c-7.5537-16.967-12.634-33.906-22.405-49.956-22.674-37.234-80.332-75.795-99.816-77.438l-22.873 76.686c53.16 22.892 99.557 70.873 121.64 124.86l7.3199 22.586c-34.629-30.167-45.573-99.527-143.57-126.7l-26.198 89.036c28.337 8.5396 63.697 17.607 87.192 36.577 22.523 18.165 52.579 70.609 53.327 78.439-21.698-19.066-43.071-72.954-144.81-92.792-13.547 24.31-26.195 47.842-35.818 73.989 37.838 4.4502 74.305 15.771 111.08 25.395 10.517 14.992 30.215 37.55 34.68 55.269-13.01-8.3442-27.859-30.152-38.531-42.057-16.337-3.1987-116.22-13.073-125.73-7.8438l-3.3275-3.1431c-21.487-5.5352-71.328-14.965-91.088-4.3945-4.2012 2.2246-8.6055 3.8384-13.01 5.646 13.804-27.534 82.54-27.388 111.63-28.176l26.721-70.706-2.735-4.1724c-32.112-3.3101-65.124 14.798-93.216 28.344 29.216-32.933 60.87-47.536 104.48-52.348 5.5171-13.101 35.048-75.908 33.507-85.059-25.739-3.4863-56.826 10.232-76.492 26.23 3.4806-13.852 24.628-29.4 36.589-36.577 15.689-9.4292 30.705-9.2344 46.244-15.938 1.7361-0.751 32.149-66.117 36.77-75.018l-0.5953-1.6128c-42.376 7.2041-62.996 23.002-94.696 49.733 25.903-41.668 55.737-58.412 102.59-70.484 48.806 27.565 105.9 66.005 120.98 123.14 2.1253 8.039 3.5777 20.611 0.1721 28.483zm21.796-21c-3.0688 6.4253-5.1749 14.352-10.336 19.387-0.9901-25.75 18.115-57.4 29.511-61.277-5.0943 14.603-12.528 27.954-19.175 41.89zm24.645-132.04 2.0895-1.0293c0.1087 8.0869-10.29 29.474-19.771 36.661-1.4218 2.6421-2.5179 5.5908-4.9467 7.3989 0.4784-3.3379 2.6932-5.0903 4.9467-7.3989 1.7585-7.538 11.065-32.016 17.681-35.631zm-49.674-615.24c-18.382 17.928-11.149-3.6692-20.11 71.708-26.834 196.81-16.764 115.71-44.026 359.12-1.8501 14.936-1.1434 36.994-6.7803 50.707 0.0234-0.5078 21.323-455.46 17.779-469.99-4.204-17.218-14.868-35.158-22.141-51.542-15.903-35.802-46.069-118.5-48.289-145.81 9.4263 15.27 15.973 32.126 24.297 48.009 56.5 98.519 62.421 110.81 71.679 116.88 145.49-123.15 150.55-136.16 165.6-141.33-81.49 101.17-58.396 80.687-138.01 162.25zm-99.248-294.62 4.6018 0.4729c23.031 47.147 49.799 95.907 82.093 137.32l126.9-103.19 2.4291 2.4756c0.2023 31.228-11.515 35.429-139.46 167.11-71.572-141.51-91.704-167.36-76.562-204.19zm289.52-139.58c-17.535 14.957-29.527 12.707-78.276 52.877 23.559 100.04 21.058 85.892 21.476 90.399l-5.0302 3.1707-7.1309-1.9192c-17.389-86.422-51.152-168.89-89.71-247.83-134.94 211.4-109.2 169.82-137.22 218.74l-49.811-11.098 45.423-1.1404c37.613-81.471 83.133-161.55 144.04-228.2 32.402 55.074 52.209 114.54 76.439 173.15 18.694-14.631 37.507-27.231 58.394-38.524 6.3186-3.4211 14.201-8.7339 21.404-9.624zm-140.35-347.91c-84.489 143.36-219.6 255.94-233.09 258.76 6.3769-14.992 27.066-31.32 38.403-43.725 147.98-166.5 165.55-174.97 314.73-480.45 4.3627-9.457 10.049-27.008 17.025-34.38-6.1769 48.99-113.05 259.06-137.07 299.79zm44.983-249.11-1.9058-0.9458c-4.3007-21.659 28.48-54.657 98.589-179.82-2.5551 33.592-62.596 150.65-96.683 180.76zm-33.804-608.78c-27.263-22.629-68.806-55.381-56.374-88.291 7.053-0.4368 15.263 17.326 19.798 23.584 62.738 86.56 212.96 169.14 312.9 213.06l-0.8152 17.957-2.3901-0.2893c-12.921-3.8606-29.695-15.421-42.154-21.64-81.931-40.91-160.33-85.746-230.96-144.38zm287.83 1126.9c-34.939-56.103-61.101-117.66-95.998-173.98-9.0266-14.59-3.7031 6.2668-20.58-220.52-20.723-284.32-38.326-462.08-31.206-615.49 5.9263 0.356 9.2538 4.7339 14.117 7.5767 4.6214 2.7007 8.4886 82.447 9.0283 93.473 15.997 376.69 5.2401 157.08 34.948 661.33 1.074 17.635-0.2197 41.417 3.9092 58.272 1.7371 7.1179 44.485 70.267 90.734 192.82-3.194-0.946-3.2218-0.6956-4.9525-3.4771zm100.94 231.78c-0.0176-0.0957-0.0353-0.1917-0.0529-0.2871-0.0175 0.0955-0.0353 0.1914-0.0529 0.2871-46.719-190.02-79.937-249.67-128.49-353.2-43.532-88.132-9.3756 99.218-61.504-853.98 2.3204-0.3728 4.9273-0.0613 7.2839 0 18.62 21.362 33.5 762.4 42.451 794.7 4.2262 15.243 18.941 34.101 26.657 48.398 49.976 102.08 67.842 132.7 113.13 301.79 0.1783-0.3853 0.3527-0.7754 0.5231-1.1707 0.1704 0.3953 0.3447 0.7854 0.5231 1.1707 44.63-166.64 62.041-197.44 113.13-301.79 34.149-63.282 27.053-11.644 33.988-181.52 21.991-536.64 22.81-647.46 35.12-661.58 2.3567-0.0613 4.9636-0.3728 7.2841 0-37.825 691.65-33.068 788.11-36.122 801.29-3.87 16.717-17.592 36.911-25.382 52.682-50.981 108.71-82.294 165.32-128.49 353.2zm246.19-1021.2c-48.45 664.72-42.944 605.06-49.365 615.44-34.898 56.326-61.059 117.88-95.998 173.98-1.7307 2.7815-1.7585 2.531-4.9526 3.4771 47.662-126.29 88.693-184.45 90.734-192.82 2.4205-9.8816-2.4115 41.865 27.402-449.88 6.9817-164.4 13.02-358.84 20.483-363.2 4.8634-2.8428 8.1909-7.2207 14.117-7.5767 3.3637 72.47 0.7846 147.98-2.4205 220.57zm110.57 270.4-1.9058 0.9458c-34.764-30.71-94.156-147.54-96.683-180.76 69.969 124.91 102.88 158.18 98.589 179.82zm-88.406-328.24c57.819 119.77 71.328 144.12 76.762 179.62l-3.2581 6.1775-6.171-1.0652c-12.946-24.219-22.088-51.438-32.268-76.992-12.528-31.448-33.345-73.933-35.065-107.74zm43.392 1198.2c15.249 5.2388 18.002 16.395 165.6 141.33 9.3741-6.1467 16.114-19.993 71.679-116.88 8.3246-15.883 14.871-32.738 24.298-48.009-2.1273 26.17-30.502 105.77-48.289 145.81-7.2728 16.383-17.937 34.324-22.141 51.542-0.3403 1.395-4.5424-13.458 17.779 469.99-5.6368-13.713-4.9301-35.77-6.7803-50.707-27.273-243.51-17.205-162.41-44.026-359.12-8.9351-75.159-1.7018-53.753-20.11-71.708-79.444-81.385-56-60.43-138.01-162.25zm21.234-95.294 2.4291-2.4756 126.9 103.19c32.293-41.416 59.061-90.177 82.093-137.32l4.6018-0.4729c15.079 36.681-4.4353 61.582-76.562 204.19-126.14-129.83-139.67-135.57-139.46-167.11zm67.102 872.78c6.6163 3.6157 15.923 28.093 17.681 35.631 2.2535 2.3086 4.4684 4.061 4.9468 7.3989-2.4288-1.8081-3.525-4.7568-4.9468-7.3989-9.4866-7.1914-19.879-28.579-19.771-36.661l2.0894 1.0293zm34.981 151.43c-5.161-5.0347-7.2671-12.962-10.336-19.387-6.6469-13.936-14.081-27.287-19.175-41.89 11.231 3.8203 30.514 35.19 29.511 61.277zm235.2-79.523c-31.701-26.731-52.32-42.529-94.696-49.733l-0.5953 1.6128c4.6212 8.9009 35.034 74.267 36.77 75.018 15.539 6.7036 30.555 6.5088 46.244 15.938 11.961 7.1768 33.109 22.725 36.589 36.577-19.653-15.987-50.744-29.717-76.492-26.23-1.5414 9.1509 27.99 71.958 33.507 85.059 43.606 4.812 75.26 19.415 104.48 52.348-28.092-13.546-61.104-31.654-93.216-28.344l-2.735 4.1724 26.721 70.706c30.232 0.8193 97.886 0.7578 111.63 28.176-4.4042-1.8076-8.8085-3.4214-13.01-5.646-19.759-10.57-69.601-1.1406-91.088 4.3945l-3.3275 3.1431c-9.5181-5.2295-109.4 4.645-125.73 7.8438-10.673 11.905-25.522 33.712-38.531 42.057 4.4655-17.718 24.164-40.276 34.68-55.269 36.773-9.624 73.24-20.945 111.08-25.395-9.6235-26.146-22.272-49.678-35.818-73.989-101.51 19.794-122.4 73.104-144.81 92.792 0.3534-3.6992 2.2175-7.2041 4.0009-10.376 42.644-75.998 57.031-80.686 136.52-104.64l-26.198-89.036c-97.895 27.141-109.24 96.786-143.57 126.7l7.3199-22.586c22.085-53.989 68.482-101.97 121.64-124.86l-22.873-76.686c-19.534 1.6465-77.146 40.21-99.816 77.438-9.7712 16.05-14.851 32.989-22.405 49.956-3.4056-7.8716-1.9532-20.444 0.1722-28.483 15.08-57.132 72.171-95.573 120.98-123.14 46.856 12.072 76.69 28.816 102.59 70.484zm-62.072-861.88c-6.0096-4.0054-10.845-16.022-14.44-22.502-7.8014-14.047-20.731-28.928-25.129-44.226 11.112 7.2997 35.867 45.75 39.569 66.729zm-48.433-156.27 45.423 1.1404-49.811 11.098c-28.01-48.907-2.0201-6.9382-137.22-218.74-38.559 78.94-72.321 161.41-89.71 247.83l-7.131 1.9192-5.0302-3.1707c0.4673-5.0391-2.606 11.861 21.476-90.399-48.036-39.583-60.838-38.003-78.276-52.877 14.461 1.7869 62.889 34.915 79.797 48.148 24.23-58.606 44.037-118.08 76.439-173.15 60.906 66.645 106.43 146.73 144.04 228.2zm61.423-199.44c-187.89-148.55-250.04-303.57-302.7-412.22-12.41-25.632-51.551-106.25-55.712-139.24 6.9752 7.3713 12.662 24.923 17.025 34.38 150.5 308.19 169.82 317.41 314.73 480.45 11.337 12.406 32.026 28.733 38.403 43.725-4.2512-0.8899-8.3717-4.4226-11.741-7.093zm46.65 11.46c6.2684 7.7327 17.091 18.302 19.498 27.843-10.229-2.605-10.943-6.0688-125.39-130.45-105.75-119.98-161.77-224.77-167.89-243.3-4.371-13.224-4.4789-22.997-11.596-112.35-16.331-184.55-17.776-276.32-67.002-458.25-8.4023-31.05-22.564-63.93-26.042-95.767 18.783 23.17 28.306 58.487 37.379 86.569 52.329 161.93 46.972 187.4 56.627 283.67 40.593 365.58 24.957 293.03 66.888 354.17 203.51 272.25 161.44 217.01 217.53 287.86zm-216.55-365.17c9.9144-18.374 37.931-13.302 40.717 7.4365 3.5667 26.556-37.024 34.632-42.712 7.4338-1.0464-5.0034-0.4357-10.365 1.9956-14.87zm39.941-695.23c54.499 127.89 55.262 135.02 78.142 249.81 3.5638 17.891 9.9797 39.225 9.1536 57.33 1.9921 2.645 1.942 6.6228 2.4092 9.8743-1.8026-2.7314-1.8835-6.6533-2.4092-9.8743-6.3854-14.648-9.2397-32.953-13.199-48.588-35.228-139.12-6.902-57.04-82.668-262.29-6.9641-18.506-17.033-37.801-20.369-57.202 12.795 17.176 20.524 41.194 28.941 60.94zm7.5565 467.52c45.837 153.59 51.595 190.14 147.15 314.23 12.54 16.272 26.882 31.514 38.701 48.287 9.4679 13.435 16.604 28.9 24.795 43.169 8.113 14.102 17.236 27.62 24.628 42.14-12.364-4.395-25.068-21.223-34.247-30.708-125.57-129.71-145.88-178.63-190.23-297.62-60.472-162.2-101.79-332.85-136.59-502.27-16.71-79.543-18.962-84.394-15.247-97.139l4.9524-1.2407c16.935 27.955 2.7602 13.126 136.08 481.16zm-73.543-592.85c4.5352-6.2583 12.745-24.021 19.798-23.584 12.424 32.886-29.05 65.612-56.374 88.291-70.635 58.634-149.03 103.47-230.96 144.38-12.459 6.2192-29.233 17.779-42.154 21.64l-2.3901 0.2893-0.8152-17.957c99.604-43.769 250.07-126.38 312.9-213.06zm-37.221-85.381 7.4341 7.4155c-8.7767 23.304-122.72 123.82-226.4 170.55l-46.816 19.128-5.3168-4.2891c18.841-15.596 48.77-26.85 70.622-39.23 76.639-43.417 116.48-79.853 165.3-121.44 7.5789-7.0455 25.839-29.882 35.184-32.135zm-6.5243-79.098c-3.9707 7.9418-3.8728 6.787-94.196 60.696-50.653 30.213-100.34 64.614-153.35 90.458l26.912-94.98c2.1536-7.8159 4.6742-26.244 8.8754-32.229 5.3168-7.5743 22.336-17.332 30.212-23.443l-28.69 105.43c147.69-86.464 109.98-63.628 167.4-100.3 14.002-9.5381 19.314-16.705 29.442-15.518l13.396 9.8882zm-90.42-87.701-113.29 88.669 33.287-118.98c2.1898-8.1333 7.5677-39.517 11.994-44.554 4.8022-5.4659 18.513-11.641 25.11-15.791l-37.257 127.87c13.944-10.072 170.79-127.05 178.38-127.49l3.8728 14.831c-29.672 28.21-68.771 51.391-102.1 75.443zm-58.97-98.897 25.065-81.384c3.8171-12.222 9.1451-42.71 19.729-48.421l11.034-4.9149 2.2119 3.6827-22.864 83.012c16.654-12.742 160.65-120.35 166.54-121.32l1.4495 17.304c-15.386 16.391-9.1989 10.484-203.16 152.05zm-11.691-122.79c-30.61 12.456-62.2 19.537-94.404 26.527-48.979 10.63-44.074 5.8138-67.002 27.882-48.656 46.826-41.86 54.536-39.992 83.181 2.2341 34.218 6.6719 67.563 13.31 101.22 52.877-44.856 66.75-66.567 139.59-102.65 3.4888-1.7301 15.669-6.1388 17.23-8.2888 3.6392-5.0178 6.1488-19.243 8.2549-25.598 7.1559-21.585 16.471-42.621 22.878-64.406 1.1658-3.9607 3.5778-20.336 5.5782-22.728 2.2648-2.7147 31.128-13.438 36.211-16.18l-43.169 141.97c-81.698 29.715-156.85 72.898-195.43 154.76-11.513 25.718-8.4297-7.9769-11.585 247.93-0.0863 12.954 2.6647 18.987-11.936 17.919-14.563 1.0647-11.849-4.9468-11.936-17.919-3.1225-253.24-0.031-222.12-11.585-247.93-38.584-81.86-113.73-125.04-195.43-154.76l-43.169-141.97c5.0833 2.7427 33.946 13.466 36.211 16.18 2.0005 2.3921 4.4125 18.767 5.5783 22.728 6.4075 21.785 15.722 42.822 22.878 64.406 2.1061 6.3556 4.6158 20.58 8.2549 25.598 3.3269 4.5829 18.079 4.4969 66.534 35.929 33.926 22.01 59.829 49.172 90.284 75.006 6.6382-33.654 11.076-66.998 13.31-101.22 1.8698-28.668 8.6445-36.373-39.992-83.181-5.8982-5.6771-12.406-13.137-19.99-16.503-17.975-7.9786-86.154-15.42-141.42-37.907-167.64-68.208-247.13-195.25-221.34-257.86 3.7087 1.5049 2.9854 1.4465 4.2065 5.3768 19.092 61.458 60.122 125.83 115.67 160.37 2.1753-11.749-43.941-70.803-55.873-135.18-9.3974-50.715-5.0182-46.682 8.5526-90.769 44.552-144.8-22.928-180.35-26.257-260.36 0.0652 0 0.1306-0.0145 0.1959-0.0172 13.538 43.711 37.355 86.664 46.246 131.38 4.8131 24.207-3.3862 51.561 1.3937 75.532 19.202-88.63 3.9914-110.98-31.779-202.94 39.292 42.994 31.06 38.901 55.333 93.643 9.0897 20.494 18.994 41.328 25.285 62.837-14.911 57.877-53.438 151.99-48.717 192.53 2.8601 24.586 17.948 52.657 30.393 73.777 46.848 79.515 114.25 126.81 202.93 149.73 13.268 3.4297 27.658 6.7565 41.4 6.7256 15.052-17.215-18.671-81.849-28.346-103.63-20.75-46.721-40.487-95.94-65.444-140.48-24.873-44.396-57.52-85.39-84.878-128.41-23.875-37.542-41.767-75.986-61.696-115.57-5.1971-10.322-17.4-27.401-18.207-38.836 6.9722 2.5284 15.491 12.128 21.37 17.081 50.866 42.871 163.36 105.66 289.77 140.72 22.491 6.2394 21.289 5.3632 39.162 0.4486 84.867-23.338 163.96-57.047 251.65-111.93 41.776-26.149 49.606-42.254 60.836-46.326-0.8068 11.435-13.01 28.514-18.207 38.836-19.929 39.584-37.822 78.027-61.696 115.57-27.358 43.016-60.004 84.01-84.878 128.41-24.956 44.544-44.694 93.762-65.444 140.48-9.4417 21.257-43.397 86.416-28.346 103.63 13.742 0.0309 28.131-3.2959 41.4-6.7256 88.681-22.914 156.08-70.214 202.93-149.73 38.834-65.906 33.902-83.057 23.012-128.74-11.176-46.863-29.355-91.067-41.336-137.57 6.2906-21.51 16.195-42.343 25.285-62.837 24.317-54.841 16.119-50.735 55.333-93.643-35.361 90.908-51.119 113.67-31.779 202.94 4.7799-23.971-3.4193-51.325 1.3937-75.532 8.8909-44.713 32.708-87.666 46.246-131.38 0.0652 0.0027 0.1306 0.0172 0.1959 0.0172-2.1372 51.37-37.528 100.21-40.897 151.74-4.873 74.578 25.172 129.55 27.8 153.67 2.973 27.192-11.258 75.791-22.728 102.55-9.5061 22.173-39.269 70.161-37.752 78.352 55.547-34.535 96.577-98.908 115.67-160.37 1.2212-3.9303 0.4979-3.8719 4.2065-5.3768 25.975 63.043-53.967 189.76-221.33 257.86zm287.62-202.5-3.3888 2.6843c3.2775-17.749 1.6776-37.645-0.2031-55.5 1.6862-0.6676 2.9575-1.3491 4.7937-1.3519 2.9493 19.699 2.3148 34.638-1.2018 54.167zm-1.8002-94.112c-26.479 14.061-79.275-7.3859-103.61-27.415-23.192-102.69-22.335-97.219-21.924-101.77 0.7406-8.1937 54.195-121.85 80.462-242.72 8.9504-41.181 16.048-86.408 34.789-124.55 3.4137-0.8596 5.0802-0.9709 8.4745 0 5.1696 5.1293 8.8948 8.5449 10.244 16.066-62.459 225.25-26.765 129.5-88.545 304.21-6.9138 17.985-19.25 42.048-20.772 60.987-1.4468 18.041 9.6125 58 18.791 73.568 6.5188 11.059 31.2 15.869 43.339 18.213 17.364 3.3518 29.311 1.6162 45.495-4.6284 5.1833 2.3059 5.8817 2.2753 8.8643 7.41-2.7599 8.1806-9.8323 14.42-15.611 20.617zm-69.336-92.345c-2.7673-13.476 6.9762-28.256 20.453-31.024 12.792-2.6271 26.758 6.0177 30.512 18.428 10.16 33.586-43.914 46.928-50.964 12.596zm77.493 38.358c1.3246-7.5128 4.4071-9.4043 9.6294-14.684l5.0333-0.1476c61.192 29.94 144.85 53.681 213.27 43.336 22.931-3.4688 107.81-39.831 121.84-15.949-106.31 20.371-116.2 75.184-297.43 12.845-36.053-12.4-26.875-7.0817-52.342-25.401zm143.27 208.87c-6.9161-7.3401-16.019-49.694-23.271-70.617-4.944-14.269-13.708-28.213-16.301-43.088 16.543 13.023 25.772 58.284 31.425 78.15 4.0669 14.279 8.3997 23.276 8.1465 35.556zm-110.05 174.24c-2.657-2.6787-3.8422-4.2615-4.9468-7.8856-2.2814-6.8396-7.8236-17.279-4.613-23.698 9.2928-18.6 23.658-39.336 36.884-55.452-11.724 28.947-22.197 56.048-27.324 87.036zm77.961-146.1c-4.6851-9.9045 0.1216 0.8143-27.569-95.551-11.51-35.27-28.71-69.744-38.584-105.17 48.375 42.93 61.802 100.46 77.588 160.55 9.2167 35.094 14.543 82.492 120.82 75.702l28.44-2.6869 4.3376 5.7466c-3.948 5.2291-4.3765 4.6256-10.52 5.7159-43.033 7.4099-85.562 17.306-124.12-9.8271-12.114-8.5225-24.055-21.09-30.388-34.485zm12.306 340.16c42.092 15.476 72.703 8.6117 113.76-4.9426-17.547 23.974-100.76 27.253-113.76 4.9426zm17.314 123.22c-2.8351-5.0902-2.4122-5.8384-1.814-11.402 105.92-84.177 198.54-191.55 224.64-327.7 46.769 71.888 80.213 128.21 102.02 292.3 10.611 79.844 15.205 161.92 13.026 242.43-6.0458-19.026-4.0953-45.753-4.5571-65.755-11.13-167.68-18.646-273.3-100.83-434.17-8.0785 14.043-9.8508 41.33-30.591 87.067-53.372 117.68-162.33 206.71-201.89 217.22zm239.82-65.471 30.19-27.807c-8.3108 116.32 3.267 158.87 31.873 364.31 2.5625 17.64 12.948 52.952 8.4941 69.769l-6.1823 0.3784c-7.6315-6.8064-8.1992-26.247-9.7684-36.229-27.42-139.65-33.73-192.15-65.294-240.63-1.5302-2.3503-9.6654-12.191-9.9379-14.314-0.53-4.272 11.12-10.181 20.227-46.126 5.8401-23.061 0.9797-46.131 0.3981-69.36zm-65.463 445.11-1.5051-4.7812c19.832-23.553 79.88-22.72 132.6-24.986 29.97 3.324 40.442 10.951 63.68 29.743-87.77-18.572-131.89-8.7652-194.78 0.0246zm99.434 327.7c-1.0267 12.839-8.4332 52.782-17.356 60.987l-3.8031 1.0847c10.194-15.493 6.6857-51.764 21.159-62.072zm23.936 63.797c-7.8599 17.449-37.623 44.054-45.342 45.116 11.342-15.569 30.922-27.082 38.559-43.419 7.3728-15.772 6.0569-42.752 17.475-55.602-1.8279 17.162-3.5892 38.134-10.692 53.905z"/> <path d="m871.34 680.35c13.385 17.343 54.478 36.393 56.605 39.723 4.6214 7.2446 24.642 162.66 50.464 179.91 0.5894-26.206-8.8796-72.675-23.201-153.67-2.7767-12.405-4.6408-26.38-9.646-38.023-15.041-7.9465-30.312-16.431-42.574-28.419-22.024-21.54-35.969-48.669-61.699-67.299 31.188 69.843 26.414 63.066 30.051 67.778z"/> <path d="m1169.8 679.87c-12.261 11.988-27.533 20.472-42.574 28.419-5.0051 11.643-6.8693 25.618-9.6459 38.023-17.689 100.04-23.727 130.29-23.201 153.67 26.007-17.38 45.655-172.38 50.464-179.91 2.1254-3.3275 43.24-22.407 56.605-39.723 3.6879-4.778-1.205 2.2186 30.051-67.778-25.73 18.63-39.675 45.759-61.699 67.299z"/> <path d="m1016.1 1518c-8.8793-127.45-27.31-127.52-184.54-245.6 105.35 258.71 144.87 366.26 185.87 429.02l5.7704 2.3893c0.974-17.064 0.9724-8.3517-7.1003-185.81z"/> <path d="m1241.2 1272.4c-155.55 116.82-175.63 117.76-184.54 245.6-8.0319 176.56-8.095 168.38-7.1002 185.81l5.7704-2.3893c41.421-63.407 80.19-169.51 185.87-429.02z"/> <path d="m1106.7 2279.3c-26.122-2.1375-114.66-2.1353-140.75 0-8.0267 2.8093-8.9032 2.9233-13.633 9.8882-0.7534 103.59-1.9946 101.75 3.7643 108.91 9.2751 6.6892 151.18 6.7148 160.49 0 5.8317-7.2468 4.4991-7.8804 3.7643-108.91-4.7298-6.9649-5.6063-7.0789-13.633-9.8882z"/> </svg>